{"glyphs":{"0":{"ha":694,"x_min":79,"x_max":615,"o":"m 347 871 q 545 753 475 871 q 615 428 615 635 q 546 100 615 215 q 347 -15 476 -15 q 149 100 218 -15 q 79 428 79 215 q 149 753 79 635 q 347 871 219 871 m 347 786 q 224 690 268 786 q 179 428 179 593 q 192 268 179 338 l 486 649 q 430 751 465 715 q 347 786 394 786 m 347 69 q 471 163 426 69 q 515 428 515 256 q 506 567 515 508 l 211 192 q 347 69 256 69 z "},"1":{"ha":694,"x_min":122,"x_max":417,"o":"m 319 0 l 319 746 l 144 694 l 122 749 l 349 867 l 417 867 l 417 0 l 319 0 z "},"2":{"ha":694,"x_min":81,"x_max":610,"o":"m 101 78 l 214 192 q 383 368 326 304 q 472 495 439 432 q 506 626 506 558 q 465 749 506 711 q 358 786 425 786 q 248 760 299 786 q 181 701 197 733 q 164 670 172 686 q 156 651 156 654 q 157 650 156 650 q 163 652 158 650 q 168 649 167 654 l 164 640 l 151 647 l 81 703 q 194 827 122 783 q 357 871 267 871 q 537 804 468 871 q 606 624 606 738 q 569 478 606 549 q 477 343 533 407 q 321 181 421 279 l 226 85 l 549 85 q 581 88 571 85 q 600 99 592 90 l 610 99 l 610 0 l 101 0 l 101 78 z "},"3":{"ha":694,"x_min":96,"x_max":593,"o":"m 428 458 q 549 378 504 433 q 593 238 593 322 q 563 110 593 168 q 474 19 532 53 q 333 -15 415 -15 q 202 10 264 -15 q 96 83 140 35 l 160 160 l 161 161 l 163 160 q 234 92 197 115 q 329 68 271 68 q 451 115 410 68 q 493 242 493 163 q 441 371 493 328 q 294 414 389 414 q 250 411 281 414 l 250 489 q 419 535 374 489 q 464 660 464 581 q 430 753 464 718 q 340 788 396 788 q 182 724 250 788 l 124 782 q 339 871 208 871 q 503 812 443 871 q 564 656 564 753 q 529 532 564 585 q 428 458 494 479 m 176 164 q 172 160 176 160 q 164 164 168 161 l 169 171 l 176 164 m 161 161 q 159 168 156 171 q 164 164 163 165 l 161 161 z "},"4":{"ha":694,"x_min":67,"x_max":656,"o":"m 442 0 l 442 213 l 67 213 l 67 283 l 463 867 l 544 867 l 544 293 l 656 293 l 656 211 l 544 211 l 544 0 l 442 0 m 179 294 l 442 294 l 442 692 l 179 294 z "},"5":{"ha":694,"x_min":89,"x_max":618,"o":"m 357 563 q 491 527 432 563 q 584 426 550 492 q 618 272 618 360 q 583 119 618 185 q 485 19 547 54 q 346 -15 424 -15 q 199 19 267 -15 q 89 118 132 54 l 167 176 l 168 178 q 169 177 169 178 q 169 176 169 176 q 246 95 206 121 q 351 69 286 69 q 435 95 396 69 q 497 167 474 121 q 519 276 519 214 q 469 426 519 371 q 342 482 418 482 q 254 460 297 482 q 179 400 211 439 l 118 425 l 147 865 l 586 865 l 586 778 l 229 778 l 215 529 q 357 563 283 563 m 168 178 q 171 179 161 189 l 168 178 m 183 178 q 171 179 183 169 l 178 185 l 183 178 z "},"6":{"ha":694,"x_min":93,"x_max":610,"o":"m 372 558 q 492 523 438 558 q 578 423 546 488 q 610 275 610 358 q 577 125 610 190 q 488 23 544 60 q 363 -14 431 -14 q 164 95 235 -14 q 93 394 93 204 q 131 656 93 547 q 237 819 168 764 q 399 875 306 875 q 589 796 507 875 l 528 726 l 526 725 q 470 775 497 761 q 401 789 443 789 q 308 760 356 789 q 226 658 261 732 q 189 454 190 583 q 267 531 218 503 q 372 558 317 558 m 511 722 q 524 721 511 731 l 518 715 l 511 722 m 526 725 q 530 717 535 714 q 524 721 525 721 l 526 725 m 367 72 q 472 126 429 72 q 515 274 515 179 q 493 384 515 339 q 436 451 471 429 q 364 474 401 474 q 269 441 315 474 q 194 357 224 408 q 192 321 192 335 q 213 203 192 260 q 275 109 235 146 q 367 72 315 72 z "},"7":{"ha":694,"x_min":110,"x_max":600,"o":"m 215 0 q 479 774 336 396 l 110 774 l 110 865 l 600 865 l 600 811 q 325 0 429 381 l 215 0 z "},"8":{"ha":694,"x_min":83,"x_max":613,"o":"m 347 -14 q 208 17 268 -14 q 115 100 147 47 q 83 218 83 153 q 131 358 83 293 q 257 460 178 424 q 161 545 197 490 q 125 663 125 600 q 185 816 125 756 q 354 876 244 876 q 526 819 468 876 q 583 671 583 761 q 546 552 583 608 q 446 463 508 496 q 567 363 521 428 q 613 224 613 299 q 580 103 613 157 q 487 17 547 49 q 347 -14 426 -14 m 371 497 q 456 573 422 526 q 489 668 489 619 q 453 758 489 721 q 351 794 417 794 q 252 759 286 794 q 218 672 218 724 q 256 576 218 614 q 371 497 293 539 m 350 74 q 471 116 428 74 q 514 224 514 158 q 464 341 514 288 q 329 421 414 394 q 224 342 265 394 q 183 228 183 289 q 228 118 183 163 q 350 74 274 74 z "},"9":{"ha":694,"x_min":94,"x_max":610,"o":"m 343 871 q 484 824 424 871 q 577 694 544 778 q 610 504 610 611 q 533 119 610 249 q 317 -14 457 -11 q 110 65 192 -14 l 169 133 l 171 135 l 172 133 q 232 84 201 99 q 308 69 263 69 q 454 161 403 69 q 515 390 506 253 q 440 344 481 360 q 346 328 399 328 q 217 361 275 328 q 127 453 160 394 q 94 589 94 513 q 128 733 94 668 q 218 834 161 797 q 343 871 275 871 m 347 413 q 445 429 406 413 q 517 485 485 446 q 470 712 511 638 q 347 786 429 786 q 232 733 275 786 q 189 590 189 681 q 235 461 189 510 q 347 413 281 413 m 186 138 q 174 138 186 128 l 179 144 l 186 138 m 171 135 q 174 138 163 144 l 171 135 z "},"\u0000":{"ha":0,"x_min":0,"x_max":0,"o":""},"\r":{"ha":694,"x_min":0,"x_max":0,"o":""}," ":{"ha":694,"x_min":0,"x_max":0,"o":""},"A":{"ha":694,"x_min":22,"x_max":672,"o":"m 572 0 l 485 253 l 206 253 l 118 0 l 22 0 l 342 881 l 353 881 l 672 0 l 572 0 m 232 328 l 460 328 l 346 658 l 232 328 z "},"Á":{"ha":694,"x_min":22,"x_max":672,"o":"m 572 0 l 485 253 l 206 253 l 118 0 l 22 0 l 342 881 l 353 881 l 672 0 l 572 0 m 232 328 l 460 328 l 346 658 l 232 328 m 246 917 l 214 975 l 425 1099 l 481 1001 l 246 917 z "},"Ă":{"ha":694,"x_min":22,"x_max":672,"o":"m 572 0 l 485 253 l 206 253 l 118 0 l 22 0 l 342 881 l 353 881 l 672 0 l 572 0 m 232 328 l 460 328 l 346 658 l 232 328 m 544 1060 q 462 965 513 999 q 347 932 411 932 q 233 965 283 932 q 150 1060 182 999 l 222 1093 q 275 1022 244 1044 q 347 999 306 999 q 419 1022 389 999 q 472 1093 450 1044 l 544 1060 z "},"Ắ":{"ha":694,"x_min":22,"x_max":672,"o":"m 572 0 l 485 253 l 206 253 l 118 0 l 22 0 l 342 881 l 353 881 l 672 0 l 572 0 m 232 328 l 460 328 l 346 658 l 232 328 m 544 1060 q 462 965 513 999 q 347 932 411 932 q 233 965 283 932 q 150 1060 182 999 l 222 1093 q 275 1022 244 1044 q 347 999 306 999 q 419 1022 389 999 q 472 1093 450 1044 l 544 1060 m 288 1071 l 256 1129 l 467 1253 l 522 1156 l 288 1071 z "},"Ặ":{"ha":694,"x_min":22,"x_max":672,"o":"m 572 0 l 485 253 l 206 253 l 118 0 l 22 0 l 342 881 l 353 881 l 672 0 l 572 0 m 232 328 l 460 328 l 346 658 l 232 328 m 343 -222 q 292 -201 313 -222 q 271 -151 271 -181 q 292 -101 271 -122 q 343 -79 313 -79 q 393 -101 372 -79 q 414 -151 414 -122 q 393 -201 414 -181 q 343 -222 372 -222 m 544 1060 q 462 965 513 999 q 347 932 411 932 q 233 965 283 932 q 150 1060 182 999 l 222 1093 q 275 1022 244 1044 q 347 999 306 999 q 419 1022 389 999 q 472 1093 450 1044 l 544 1060 z "},"Ằ":{"ha":694,"x_min":22,"x_max":672,"o":"m 572 0 l 485 253 l 206 253 l 118 0 l 22 0 l 342 881 l 353 881 l 672 0 l 572 0 m 232 328 l 460 328 l 346 658 l 232 328 m 544 1060 q 462 965 513 999 q 347 932 411 932 q 233 965 283 932 q 150 1060 182 999 l 222 1093 q 275 1022 244 1044 q 347 999 306 999 q 419 1022 389 999 q 472 1093 450 1044 l 544 1060 m 407 1144 l 171 1229 l 226 1326 l 439 1203 l 407 1144 z "},"Ẳ":{"ha":694,"x_min":22,"x_max":672,"o":"m 572 0 l 485 253 l 206 253 l 118 0 l 22 0 l 342 881 l 353 881 l 672 0 l 572 0 m 232 328 l 460 328 l 346 658 l 232 328 m 544 1060 q 462 965 513 999 q 347 932 411 932 q 233 965 283 932 q 150 1060 182 999 l 222 1093 q 275 1022 244 1044 q 347 999 306 999 q 419 1022 389 999 q 472 1093 450 1044 l 544 1060 m 451 1218 q 442 1177 451 1192 q 411 1144 432 1163 q 383 1115 392 1128 q 374 1079 374 1101 l 374 1069 l 303 1069 l 303 1108 q 343 1171 303 1136 q 367 1196 360 1186 q 375 1215 375 1206 q 363 1244 375 1233 q 332 1254 350 1254 q 271 1210 285 1254 l 219 1263 q 273 1307 244 1293 q 339 1321 301 1321 q 419 1293 386 1321 q 451 1218 451 1265 z "},"Ẵ":{"ha":694,"x_min":22,"x_max":672,"o":"m 572 0 l 485 253 l 206 253 l 118 0 l 22 0 l 342 881 l 353 881 l 672 0 l 572 0 m 232 328 l 460 328 l 346 658 l 232 328 m 544 1060 q 462 965 513 999 q 347 932 411 932 q 233 965 283 932 q 150 1060 182 999 l 222 1093 q 275 1022 244 1044 q 347 999 306 999 q 419 1022 389 999 q 472 1093 450 1044 l 544 1060 m 539 1219 q 422 1121 489 1121 q 370 1134 393 1121 q 324 1169 347 1147 q 289 1195 301 1188 q 263 1203 276 1203 q 228 1183 242 1203 q 206 1119 215 1163 l 138 1139 q 268 1272 169 1272 q 319 1260 297 1272 q 365 1225 340 1247 q 394 1202 382 1210 q 418 1194 406 1194 q 449 1208 436 1194 q 475 1253 461 1221 l 539 1219 z "},"Â":{"ha":694,"x_min":22,"x_max":672,"o":"m 572 0 l 485 253 l 206 253 l 118 0 l 22 0 l 342 881 l 353 881 l 672 0 l 572 0 m 232 328 l 460 328 l 346 658 l 232 328 m 174 910 l 128 963 l 326 1099 l 357 1099 l 567 961 l 525 911 l 344 1008 l 174 910 z "},"Ấ":{"ha":694,"x_min":22,"x_max":747,"o":"m 572 0 l 485 253 l 206 253 l 118 0 l 22 0 l 342 881 l 353 881 l 672 0 l 572 0 m 232 328 l 460 328 l 346 658 l 232 328 m 172 910 l 126 963 l 325 1099 l 356 1099 l 565 961 l 524 911 l 343 1008 l 172 910 m 513 1064 l 481 1122 l 692 1246 l 747 1149 l 513 1064 z "},"Ậ":{"ha":694,"x_min":22,"x_max":672,"o":"m 572 0 l 485 253 l 206 253 l 118 0 l 22 0 l 342 881 l 353 881 l 672 0 l 572 0 m 232 328 l 460 328 l 346 658 l 232 328 m 343 -222 q 292 -201 313 -222 q 271 -151 271 -181 q 292 -101 271 -122 q 343 -79 313 -79 q 393 -101 372 -79 q 414 -151 414 -122 q 393 -201 414 -181 q 343 -222 372 -222 m 174 910 l 128 963 l 326 1099 l 357 1099 l 567 961 l 525 911 l 344 1008 l 174 910 z "},"Ầ":{"ha":694,"x_min":22,"x_max":672,"o":"m 572 0 l 485 253 l 206 253 l 118 0 l 22 0 l 342 881 l 353 881 l 672 0 l 572 0 m 232 328 l 460 328 l 346 658 l 232 328 m 174 910 l 128 963 l 326 1099 l 357 1099 l 567 961 l 525 911 l 344 1008 l 174 910 m 496 1108 l 260 1193 l 315 1290 l 528 1167 l 496 1108 z "},"Ẩ":{"ha":694,"x_min":22,"x_max":672,"o":"m 572 0 l 485 253 l 206 253 l 118 0 l 22 0 l 342 881 l 353 881 l 672 0 l 572 0 m 232 328 l 460 328 l 346 658 l 232 328 m 168 910 l 122 963 l 321 1099 l 351 1099 l 561 961 l 519 911 l 339 1008 l 168 910 m 625 1189 q 615 1148 625 1163 q 585 1115 606 1133 q 556 1085 565 1099 q 547 1050 547 1072 l 547 1040 l 476 1040 l 476 1079 q 517 1142 476 1107 q 541 1167 533 1157 q 549 1186 549 1176 q 536 1215 549 1204 q 506 1225 524 1225 q 444 1181 458 1225 l 393 1233 q 447 1278 418 1264 q 513 1292 475 1292 q 592 1264 560 1292 q 625 1189 625 1236 z "},"Ẫ":{"ha":694,"x_min":22,"x_max":672,"o":"m 572 0 l 485 253 l 206 253 l 118 0 l 22 0 l 342 881 l 353 881 l 672 0 l 572 0 m 232 328 l 460 328 l 346 658 l 232 328 m 174 910 l 128 963 l 326 1099 l 357 1099 l 567 961 l 525 911 l 344 1008 l 174 910 m 546 1224 q 429 1125 496 1125 q 377 1138 400 1125 q 331 1174 354 1151 q 296 1199 308 1192 q 269 1207 283 1207 q 235 1187 249 1207 q 213 1124 222 1167 l 144 1143 q 275 1276 176 1276 q 326 1264 304 1276 q 372 1229 347 1251 q 401 1206 389 1214 q 425 1199 413 1199 q 456 1212 443 1199 q 482 1257 468 1225 l 546 1224 z "},"Ȁ":{"ha":694,"x_min":22,"x_max":672,"o":"m 572 0 l 485 253 l 206 253 l 118 0 l 22 0 l 342 881 l 353 881 l 672 0 l 572 0 m 232 328 l 460 328 l 346 658 l 232 328 m 243 935 l 103 1122 l 179 1178 l 296 971 l 243 935 m 465 935 l 325 1122 l 401 1178 l 518 971 l 465 935 z "},"Ä":{"ha":694,"x_min":22,"x_max":672,"o":"m 572 0 l 485 253 l 206 253 l 118 0 l 22 0 l 342 881 l 353 881 l 672 0 l 572 0 m 232 328 l 460 328 l 346 658 l 232 328 m 222 956 q 174 976 194 956 q 153 1025 153 997 q 174 1074 153 1053 q 222 1096 194 1096 q 272 1075 251 1096 q 293 1025 293 1054 q 272 976 293 997 q 222 956 251 956 m 469 956 q 422 976 442 956 q 401 1025 401 996 q 422 1075 401 1054 q 469 1096 442 1096 q 519 1075 499 1096 q 540 1025 540 1054 q 519 976 540 997 q 469 956 499 956 z "},"Ạ":{"ha":694,"x_min":22,"x_max":672,"o":"m 572 0 l 485 253 l 206 253 l 118 0 l 22 0 l 342 881 l 353 881 l 672 0 l 572 0 m 232 328 l 460 328 l 346 658 l 232 328 m 343 -222 q 292 -201 313 -222 q 271 -151 271 -181 q 292 -101 271 -122 q 343 -79 313 -79 q 393 -101 372 -79 q 414 -151 414 -122 q 393 -201 414 -181 q 343 -222 372 -222 z "},"À":{"ha":694,"x_min":22,"x_max":672,"o":"m 572 0 l 485 253 l 206 253 l 118 0 l 22 0 l 342 881 l 353 881 l 672 0 l 572 0 m 232 328 l 460 328 l 346 658 l 232 328 m 407 917 l 171 1001 l 226 1099 l 439 975 l 407 917 z "},"Ả":{"ha":694,"x_min":22,"x_max":672,"o":"m 572 0 l 485 253 l 206 253 l 118 0 l 22 0 l 342 881 l 353 881 l 672 0 l 572 0 m 232 328 l 460 328 l 346 658 l 232 328 m 465 1106 q 456 1065 465 1079 q 425 1032 446 1050 q 397 1002 406 1015 q 388 967 388 989 l 388 957 l 317 957 l 317 996 q 357 1058 317 1024 q 381 1083 374 1074 q 389 1103 389 1093 q 376 1131 389 1121 q 346 1142 364 1142 q 285 1097 299 1142 l 233 1150 q 287 1194 258 1181 q 353 1208 315 1208 q 433 1181 400 1208 q 465 1106 465 1153 z "},"Ȃ":{"ha":694,"x_min":22,"x_max":672,"o":"m 572 0 l 485 253 l 206 253 l 118 0 l 22 0 l 342 881 l 353 881 l 672 0 l 572 0 m 232 328 l 460 328 l 346 658 l 232 328 m 472 964 q 419 1035 450 1013 q 347 1058 389 1058 q 275 1035 306 1058 q 222 964 244 1013 l 150 997 q 233 1092 182 1058 q 347 1125 283 1125 q 462 1092 411 1125 q 544 997 513 1058 l 472 964 z "},"Ā":{"ha":694,"x_min":22,"x_max":672,"o":"m 572 0 l 485 253 l 206 253 l 118 0 l 22 0 l 342 881 l 353 881 l 672 0 l 572 0 m 232 328 l 460 328 l 346 658 l 232 328 m 171 1015 l 171 1093 l 524 1093 l 524 1015 l 171 1015 z "},"Ą":{"ha":694,"x_min":22,"x_max":672,"o":"m 644 0 q 561 -87 592 -42 q 531 -171 531 -133 q 552 -222 531 -201 q 617 -249 574 -243 l 594 -315 q 481 -274 524 -306 q 439 -190 439 -242 q 473 -92 439 -142 q 572 1 507 -43 l 485 253 l 206 253 l 118 0 l 22 0 l 342 881 l 353 881 l 672 0 l 644 0 m 232 328 l 460 328 l 346 658 l 232 328 z "},"Å":{"ha":694,"x_min":22,"x_max":672,"o":"m 485 253 l 206 253 l 118 0 l 22 0 l 335 860 q 253 900 286 865 q 219 982 219 935 q 258 1068 219 1032 q 347 1104 296 1104 q 436 1068 399 1104 q 474 981 474 1032 q 441 900 474 935 q 360 860 408 865 l 672 0 l 572 0 l 485 253 m 290 982 q 308 938 290 956 q 349 919 325 919 q 389 938 372 919 q 406 982 406 956 q 389 1028 406 1010 q 349 1046 372 1046 q 307 1028 324 1046 q 290 982 290 1010 m 232 328 l 460 328 l 346 658 l 232 328 z "},"Ǻ":{"ha":694,"x_min":22,"x_max":672,"o":"m 481 1240 l 246 1156 l 214 1214 l 425 1338 l 481 1240 m 485 253 l 206 253 l 118 0 l 22 0 l 335 860 q 253 900 286 865 q 219 982 219 935 q 258 1068 219 1032 q 347 1104 296 1104 q 436 1068 399 1104 q 474 981 474 1032 q 441 900 474 935 q 360 860 408 865 l 672 0 l 572 0 l 485 253 m 290 982 q 308 938 290 956 q 349 919 325 919 q 389 938 372 919 q 406 982 406 956 q 389 1028 406 1010 q 349 1046 372 1046 q 307 1028 324 1046 q 290 982 290 1010 m 232 328 l 460 328 l 346 658 l 232 328 z "},"Ã":{"ha":694,"x_min":22,"x_max":672,"o":"m 572 0 l 485 253 l 206 253 l 118 0 l 22 0 l 342 881 l 353 881 l 672 0 l 572 0 m 232 328 l 460 328 l 346 658 l 232 328 m 590 1060 q 531 978 560 1001 q 461 956 503 956 q 409 966 432 956 q 356 997 386 976 q 313 1022 329 1014 q 278 1031 297 1031 q 235 1016 253 1031 q 200 965 217 1001 l 132 996 q 188 1076 153 1046 q 275 1107 224 1107 q 325 1097 304 1107 q 375 1067 346 1086 q 417 1040 399 1049 q 456 1032 435 1032 q 492 1046 478 1032 q 526 1099 507 1060 l 590 1060 z "},"Æ":{"ha":694,"x_min":21,"x_max":688,"o":"m 21 0 l 293 867 l 688 867 l 688 781 l 450 781 l 450 496 l 651 496 l 651 407 l 450 407 l 450 86 l 685 86 l 685 0 l 365 0 l 365 235 l 185 235 l 110 0 l 21 0 m 204 315 l 365 315 l 365 781 l 350 781 l 204 315 z "},"Ǽ":{"ha":694,"x_min":21,"x_max":688,"o":"m 21 0 l 293 867 l 688 867 l 688 781 l 450 781 l 450 496 l 651 496 l 651 407 l 450 407 l 450 86 l 685 86 l 685 0 l 365 0 l 365 235 l 185 235 l 110 0 l 21 0 m 204 315 l 365 315 l 365 781 l 350 781 l 204 315 m 272 917 l 240 975 l 451 1099 l 507 1001 l 272 917 z "},"B":{"ha":694,"x_min":67,"x_max":635,"o":"m 67 865 l 313 865 q 528 809 457 865 q 600 656 600 753 q 566 538 600 592 q 472 464 532 485 q 590 377 544 439 q 635 243 635 315 q 554 65 635 129 q 311 0 474 0 l 67 0 l 67 865 m 299 507 q 503 644 503 507 q 457 745 503 707 q 314 783 411 783 l 163 783 l 163 507 l 299 507 m 328 85 q 532 249 532 85 q 304 425 532 425 l 163 425 l 163 85 l 328 85 z "},"C":{"ha":694,"x_min":57,"x_max":651,"o":"m 392 69 q 490 98 443 69 q 567 175 538 126 l 639 128 q 538 22 596 57 q 396 -14 479 -14 q 223 34 299 -14 q 102 181 147 82 q 57 428 57 279 q 106 687 57 588 q 229 829 154 786 q 390 872 304 872 q 549 826 482 872 q 651 701 617 781 l 568 663 q 567 663 567 663 q 567 664 567 664 q 486 765 531 736 q 388 794 442 794 q 215 699 278 794 q 151 435 151 604 q 183 244 151 328 q 270 115 215 161 q 392 69 325 69 m 551 667 q 554 669 554 669 q 565 661 557 669 l 556 657 l 551 667 m 568 663 q 565 661 574 650 l 568 663 z "},"Ć":{"ha":694,"x_min":57,"x_max":651,"o":"m 392 69 q 490 98 443 69 q 567 175 538 126 l 639 128 q 538 22 596 57 q 396 -14 479 -14 q 223 34 299 -14 q 102 181 147 82 q 57 428 57 279 q 106 687 57 588 q 229 829 154 786 q 390 872 304 872 q 549 826 482 872 q 651 701 617 781 l 568 663 q 567 663 567 663 q 567 664 567 664 q 486 765 531 736 q 388 794 442 794 q 215 699 278 794 q 151 435 151 604 q 183 244 151 328 q 270 115 215 161 q 392 69 325 69 m 551 667 q 554 669 554 669 q 565 661 557 669 l 556 657 l 551 667 m 568 663 q 565 661 574 650 l 568 663 m 274 917 l 242 975 l 453 1099 l 508 1001 l 274 917 z "},"Č":{"ha":694,"x_min":57,"x_max":651,"o":"m 392 69 q 490 98 443 69 q 567 175 538 126 l 639 128 q 538 22 596 57 q 396 -14 479 -14 q 223 34 299 -14 q 102 181 147 82 q 57 428 57 279 q 106 687 57 588 q 229 829 154 786 q 390 872 304 872 q 549 826 482 872 q 651 701 617 781 l 568 663 q 567 663 567 663 q 567 664 567 664 q 486 765 531 736 q 388 794 442 794 q 215 699 278 794 q 151 435 151 604 q 183 244 151 328 q 270 115 215 161 q 392 69 325 69 m 551 667 q 554 669 554 669 q 565 661 557 669 l 556 657 l 551 667 m 568 663 q 565 661 574 650 l 568 663 m 354 910 l 183 1046 l 229 1099 l 372 1000 l 528 1094 l 567 1049 l 385 910 l 354 910 z "},"Ç":{"ha":694,"x_min":57,"x_max":651,"o":"m 392 69 q 490 98 443 69 q 567 175 538 126 l 639 128 q 552 31 601 65 q 435 -12 503 -4 l 428 -65 q 516 -97 486 -71 q 546 -156 546 -122 q 504 -240 546 -206 q 385 -274 463 -274 q 247 -231 311 -274 l 282 -172 q 403 -214 335 -214 q 472 -164 472 -214 q 453 -130 472 -142 q 401 -118 435 -118 l 360 -118 l 374 -14 q 145 106 232 -6 q 57 428 58 217 q 106 687 57 588 q 229 829 154 786 q 390 872 304 872 q 549 826 482 872 q 651 701 617 781 l 568 663 q 567 663 567 663 q 567 664 567 664 q 486 765 531 736 q 388 794 442 794 q 215 699 278 794 q 151 435 151 604 q 183 244 151 328 q 270 115 215 161 q 392 69 325 69 m 551 667 q 554 669 554 669 q 565 661 557 669 l 556 657 l 551 667 m 568 663 q 565 661 574 650 l 568 663 z "},"Ḉ":{"ha":694,"x_min":57,"x_max":651,"o":"m 508 1001 l 274 917 l 242 975 l 453 1099 l 508 1001 m 392 69 q 490 98 443 69 q 567 175 538 126 l 639 128 q 552 31 601 65 q 435 -12 503 -4 l 428 -65 q 516 -97 486 -71 q 546 -156 546 -122 q 504 -240 546 -206 q 385 -274 463 -274 q 247 -231 311 -274 l 282 -172 q 403 -214 335 -214 q 472 -164 472 -214 q 453 -130 472 -142 q 401 -118 435 -118 l 360 -118 l 374 -14 q 145 106 232 -6 q 57 428 58 217 q 106 687 57 588 q 229 829 154 786 q 390 872 304 872 q 549 826 482 872 q 651 701 617 781 l 568 663 q 567 663 567 663 q 567 664 567 664 q 486 765 531 736 q 388 794 442 794 q 215 699 278 794 q 151 435 151 604 q 183 244 151 328 q 270 115 215 161 q 392 69 325 69 m 551 667 q 554 669 554 669 q 565 661 557 669 l 556 657 l 551 667 m 568 663 q 565 661 574 650 l 568 663 z "},"Ĉ":{"ha":694,"x_min":57,"x_max":651,"o":"m 392 69 q 490 98 443 69 q 567 175 538 126 l 639 128 q 538 22 596 57 q 396 -14 479 -14 q 223 34 299 -14 q 102 181 147 82 q 57 428 57 279 q 106 687 57 588 q 229 829 154 786 q 390 872 304 872 q 549 826 482 872 q 651 701 617 781 l 568 663 q 567 663 567 663 q 567 664 567 664 q 486 765 531 736 q 388 794 442 794 q 215 699 278 794 q 151 435 151 604 q 183 244 151 328 q 270 115 215 161 q 392 69 325 69 m 551 667 q 554 669 554 669 q 565 661 557 669 l 556 657 l 551 667 m 568 663 q 565 661 574 650 l 568 663 m 201 910 l 156 963 l 354 1099 l 385 1099 l 594 961 l 553 911 l 372 1008 l 201 910 z "},"Ċ":{"ha":694,"x_min":57,"x_max":651,"o":"m 392 69 q 490 98 443 69 q 567 175 538 126 l 639 128 q 538 22 596 57 q 396 -14 479 -14 q 223 34 299 -14 q 102 181 147 82 q 57 428 57 279 q 106 687 57 588 q 229 829 154 786 q 390 872 304 872 q 549 826 482 872 q 651 701 617 781 l 568 663 q 567 663 567 663 q 567 664 567 664 q 486 765 531 736 q 388 794 442 794 q 215 699 278 794 q 151 435 151 604 q 183 244 151 328 q 270 115 215 161 q 392 69 325 69 m 551 667 q 554 669 554 669 q 565 661 557 669 l 556 657 l 551 667 m 568 663 q 565 661 574 650 l 568 663 m 374 957 q 324 978 346 957 q 303 1028 303 999 q 324 1078 303 1057 q 374 1099 344 1099 q 424 1078 403 1099 q 446 1028 446 1057 q 424 978 446 999 q 374 957 403 957 z "},"D":{"ha":694,"x_min":75,"x_max":639,"o":"m 75 865 l 276 865 q 446 837 383 865 q 554 747 508 808 q 639 428 639 633 q 542 108 631 218 q 260 -1 453 -3 l 75 -1 l 75 865 m 256 75 q 542 422 542 75 q 476 691 540 599 q 271 783 413 783 l 167 783 l 167 75 l 256 75 z "},"Ð":{"ha":694,"x_min":42,"x_max":647,"o":"m 110 418 l 42 418 l 42 499 l 110 499 l 110 865 l 303 865 q 564 749 481 865 q 647 425 647 632 q 592 182 647 296 q 443 25 538 68 q 286 -1 390 -1 l 110 -1 l 110 418 m 282 79 q 484 169 414 79 q 554 425 554 260 q 491 690 554 597 q 297 783 428 783 l 199 783 l 199 499 l 344 499 l 344 418 l 199 418 l 199 79 l 282 79 z "},"Ď":{"ha":694,"x_min":75,"x_max":639,"o":"m 75 865 l 276 865 q 446 837 383 865 q 554 747 508 808 q 639 428 639 633 q 542 108 631 218 q 260 -1 453 -3 l 75 -1 l 75 865 m 256 75 q 542 422 542 75 q 476 691 540 599 q 271 783 413 783 l 167 783 l 167 75 l 256 75 m 285 910 l 114 1046 l 160 1099 l 303 1000 l 458 1094 l 497 1049 l 315 910 l 285 910 z "},"Đ":{"ha":694,"x_min":42,"x_max":647,"o":"m 110 418 l 42 418 l 42 499 l 110 499 l 110 865 l 303 865 q 564 749 481 865 q 647 425 647 632 q 592 182 647 296 q 443 25 538 68 q 286 -1 390 -1 l 110 -1 l 110 418 m 282 79 q 484 169 414 79 q 554 425 554 260 q 491 690 554 597 q 297 783 428 783 l 199 783 l 199 499 l 344 499 l 344 418 l 199 418 l 199 79 l 282 79 z "},"Ḍ":{"ha":694,"x_min":75,"x_max":639,"o":"m 75 865 l 276 865 q 446 837 383 865 q 554 747 508 808 q 639 428 639 633 q 542 108 631 218 q 260 -1 453 -3 l 75 -1 l 75 865 m 256 75 q 542 422 542 75 q 476 691 540 599 q 271 783 413 783 l 167 783 l 167 75 l 256 75 m 343 -222 q 292 -201 313 -222 q 271 -151 271 -181 q 292 -101 271 -122 q 343 -79 313 -79 q 393 -101 372 -79 q 414 -151 414 -122 q 393 -201 414 -181 q 343 -222 372 -222 z "},"Ḏ":{"ha":694,"x_min":75,"x_max":639,"o":"m 75 865 l 276 865 q 446 837 383 865 q 554 747 508 808 q 639 428 639 633 q 542 108 631 218 q 260 -1 453 -3 l 75 -1 l 75 865 m 256 75 q 542 422 542 75 q 476 691 540 599 q 271 783 413 783 l 167 783 l 167 75 l 256 75 m 174 -215 l 174 -137 l 526 -137 l 526 -215 l 174 -215 z "},"E":{"ha":694,"x_min":82,"x_max":613,"o":"m 82 0 l 82 867 l 613 867 l 613 781 l 174 781 l 174 496 l 536 496 l 536 407 l 174 407 l 174 86 l 608 86 l 608 0 l 82 0 z "},"É":{"ha":694,"x_min":82,"x_max":613,"o":"m 82 0 l 82 867 l 613 867 l 613 781 l 174 781 l 174 496 l 536 496 l 536 407 l 174 407 l 174 86 l 608 86 l 608 0 l 82 0 m 274 917 l 242 975 l 453 1099 l 508 1001 l 274 917 z "},"Ĕ":{"ha":694,"x_min":82,"x_max":613,"o":"m 82 0 l 82 867 l 613 867 l 613 781 l 174 781 l 174 496 l 536 496 l 536 407 l 174 407 l 174 86 l 608 86 l 608 0 l 82 0 m 572 1060 q 490 965 540 999 q 375 932 439 932 q 260 965 311 932 q 178 1060 210 999 l 250 1093 q 303 1022 272 1044 q 375 999 333 999 q 447 1022 417 999 q 500 1093 478 1044 l 572 1060 z "},"Ě":{"ha":694,"x_min":82,"x_max":613,"o":"m 82 0 l 82 867 l 613 867 l 613 781 l 174 781 l 174 496 l 536 496 l 536 407 l 174 407 l 174 86 l 608 86 l 608 0 l 82 0 m 354 910 l 183 1046 l 229 1099 l 372 1000 l 528 1094 l 567 1049 l 385 910 l 354 910 z "},"Ḝ":{"ha":694,"x_min":82,"x_max":613,"o":"m 82 0 l 82 867 l 613 867 l 613 781 l 174 781 l 174 496 l 536 496 l 536 407 l 174 407 l 174 86 l 608 86 l 608 0 l 82 0 m 343 -274 q 206 -231 269 -274 l 240 -172 q 361 -214 292 -214 q 431 -164 431 -214 q 412 -130 431 -142 q 360 -118 393 -118 l 318 -118 l 333 0 l 394 0 l 386 -65 q 474 -97 444 -71 q 504 -156 504 -122 q 463 -240 504 -206 q 343 -274 421 -274 m 572 1060 q 490 965 540 999 q 375 932 439 932 q 260 965 311 932 q 178 1060 210 999 l 250 1093 q 303 1022 272 1044 q 375 999 333 999 q 447 1022 417 999 q 500 1093 478 1044 l 572 1060 z "},"Ê":{"ha":694,"x_min":82,"x_max":613,"o":"m 82 0 l 82 867 l 613 867 l 613 781 l 174 781 l 174 496 l 536 496 l 536 407 l 174 407 l 174 86 l 608 86 l 608 0 l 82 0 m 201 910 l 156 963 l 354 1099 l 385 1099 l 594 961 l 553 911 l 372 1008 l 201 910 z "},"Ế":{"ha":694,"x_min":82,"x_max":775,"o":"m 82 0 l 82 867 l 613 867 l 613 781 l 174 781 l 174 496 l 536 496 l 536 407 l 174 407 l 174 86 l 608 86 l 608 0 l 82 0 m 200 910 l 154 963 l 353 1099 l 383 1099 l 593 961 l 551 911 l 371 1008 l 200 910 m 540 1064 l 508 1122 l 719 1246 l 775 1149 l 540 1064 z "},"Ệ":{"ha":694,"x_min":82,"x_max":613,"o":"m 82 0 l 82 867 l 613 867 l 613 781 l 174 781 l 174 496 l 536 496 l 536 407 l 174 407 l 174 86 l 608 86 l 608 0 l 82 0 m 343 -222 q 292 -201 313 -222 q 271 -151 271 -181 q 292 -101 271 -122 q 343 -79 313 -79 q 393 -101 372 -79 q 414 -151 414 -122 q 393 -201 414 -181 q 343 -222 372 -222 m 201 910 l 156 963 l 354 1099 l 385 1099 l 594 961 l 553 911 l 372 1008 l 201 910 z "},"Ề":{"ha":694,"x_min":82,"x_max":613,"o":"m 82 0 l 82 867 l 613 867 l 613 781 l 174 781 l 174 496 l 536 496 l 536 407 l 174 407 l 174 86 l 608 86 l 608 0 l 82 0 m 201 910 l 156 963 l 354 1099 l 385 1099 l 594 961 l 553 911 l 372 1008 l 201 910 m 524 1108 l 288 1193 l 343 1290 l 556 1167 l 524 1108 z "},"Ể":{"ha":694,"x_min":82,"x_max":653,"o":"m 82 0 l 82 867 l 613 867 l 613 781 l 174 781 l 174 496 l 536 496 l 536 407 l 174 407 l 174 86 l 608 86 l 608 0 l 82 0 m 196 910 l 150 963 l 349 1099 l 379 1099 l 589 961 l 547 911 l 367 1008 l 196 910 m 653 1189 q 643 1148 653 1163 q 613 1115 633 1133 q 584 1085 593 1099 q 575 1050 575 1072 l 575 1040 l 504 1040 l 504 1079 q 544 1142 504 1107 q 569 1167 561 1157 q 576 1186 576 1176 q 564 1215 576 1204 q 533 1225 551 1225 q 472 1181 486 1225 l 421 1233 q 474 1278 446 1264 q 540 1292 503 1292 q 620 1264 588 1292 q 653 1189 653 1236 z "},"Ễ":{"ha":694,"x_min":82,"x_max":613,"o":"m 82 0 l 82 867 l 613 867 l 613 781 l 174 781 l 174 496 l 536 496 l 536 407 l 174 407 l 174 86 l 608 86 l 608 0 l 82 0 m 201 910 l 156 963 l 354 1099 l 385 1099 l 594 961 l 553 911 l 372 1008 l 201 910 m 574 1224 q 457 1125 524 1125 q 405 1138 428 1125 q 358 1174 382 1151 q 324 1199 336 1192 q 297 1207 311 1207 q 263 1187 276 1207 q 240 1124 250 1167 l 172 1143 q 303 1276 204 1276 q 353 1264 332 1276 q 400 1229 375 1251 q 428 1206 417 1214 q 453 1199 440 1199 q 483 1212 471 1199 q 510 1257 496 1225 l 574 1224 z "},"Ȅ":{"ha":694,"x_min":82,"x_max":613,"o":"m 82 0 l 82 867 l 613 867 l 613 781 l 174 781 l 174 496 l 536 496 l 536 407 l 174 407 l 174 86 l 608 86 l 608 0 l 82 0 m 271 935 l 131 1122 l 207 1178 l 324 971 l 271 935 m 493 935 l 353 1122 l 429 1178 l 546 971 l 493 935 z "},"Ë":{"ha":694,"x_min":82,"x_max":613,"o":"m 82 0 l 82 867 l 613 867 l 613 781 l 174 781 l 174 496 l 536 496 l 536 407 l 174 407 l 174 86 l 608 86 l 608 0 l 82 0 m 250 956 q 201 976 222 956 q 181 1025 181 997 q 201 1074 181 1053 q 250 1096 222 1096 q 300 1075 279 1096 q 321 1025 321 1054 q 300 976 321 997 q 250 956 279 956 m 497 956 q 449 976 469 956 q 429 1025 429 996 q 449 1075 429 1054 q 497 1096 469 1096 q 547 1075 526 1096 q 568 1025 568 1054 q 547 976 568 997 q 497 956 526 956 z "},"Ė":{"ha":694,"x_min":82,"x_max":613,"o":"m 82 0 l 82 867 l 613 867 l 613 781 l 174 781 l 174 496 l 536 496 l 536 407 l 174 407 l 174 86 l 608 86 l 608 0 l 82 0 m 374 957 q 324 978 346 957 q 303 1028 303 999 q 324 1078 303 1057 q 374 1099 344 1099 q 424 1078 403 1099 q 446 1028 446 1057 q 424 978 446 999 q 374 957 403 957 z "},"Ẹ":{"ha":694,"x_min":82,"x_max":613,"o":"m 82 0 l 82 867 l 613 867 l 613 781 l 174 781 l 174 496 l 536 496 l 536 407 l 174 407 l 174 86 l 608 86 l 608 0 l 82 0 m 343 -222 q 292 -201 313 -222 q 271 -151 271 -181 q 292 -101 271 -122 q 343 -79 313 -79 q 393 -101 372 -79 q 414 -151 414 -122 q 393 -201 414 -181 q 343 -222 372 -222 z "},"È":{"ha":694,"x_min":82,"x_max":613,"o":"m 82 0 l 82 867 l 613 867 l 613 781 l 174 781 l 174 496 l 536 496 l 536 407 l 174 407 l 174 86 l 608 86 l 608 0 l 82 0 m 435 917 l 199 1001 l 254 1099 l 467 975 l 435 917 z "},"Ẻ":{"ha":694,"x_min":82,"x_max":613,"o":"m 82 0 l 82 867 l 613 867 l 613 781 l 174 781 l 174 496 l 536 496 l 536 407 l 174 407 l 174 86 l 608 86 l 608 0 l 82 0 m 493 1106 q 483 1065 493 1079 q 453 1032 474 1050 q 424 1002 433 1015 q 415 967 415 989 l 415 957 l 344 957 l 344 996 q 385 1058 344 1024 q 409 1083 401 1074 q 417 1103 417 1093 q 404 1131 417 1121 q 374 1142 392 1142 q 313 1097 326 1142 l 261 1150 q 315 1194 286 1181 q 381 1208 343 1208 q 460 1181 428 1208 q 493 1106 493 1153 z "},"Ȇ":{"ha":694,"x_min":82,"x_max":613,"o":"m 82 0 l 82 867 l 613 867 l 613 781 l 174 781 l 174 496 l 536 496 l 536 407 l 174 407 l 174 86 l 608 86 l 608 0 l 82 0 m 500 964 q 447 1035 478 1013 q 375 1058 417 1058 q 303 1035 333 1058 q 250 964 272 1013 l 178 997 q 260 1092 210 1058 q 375 1125 311 1125 q 490 1092 439 1125 q 572 997 540 1058 l 500 964 z "},"Ē":{"ha":694,"x_min":82,"x_max":613,"o":"m 82 0 l 82 867 l 613 867 l 613 781 l 174 781 l 174 496 l 536 496 l 536 407 l 174 407 l 174 86 l 608 86 l 608 0 l 82 0 m 199 1015 l 199 1093 l 551 1093 l 551 1015 l 199 1015 z "},"Ḗ":{"ha":694,"x_min":82,"x_max":613,"o":"m 82 0 l 82 867 l 613 867 l 613 781 l 174 781 l 174 496 l 536 496 l 536 407 l 174 407 l 174 86 l 608 86 l 608 0 l 82 0 m 199 1015 l 199 1093 l 551 1093 l 551 1015 l 199 1015 m 274 1131 l 242 1189 l 453 1313 l 508 1215 l 274 1131 z "},"Ḕ":{"ha":694,"x_min":82,"x_max":613,"o":"m 82 0 l 82 867 l 613 867 l 613 781 l 174 781 l 174 496 l 536 496 l 536 407 l 174 407 l 174 86 l 608 86 l 608 0 l 82 0 m 199 1015 l 199 1093 l 551 1093 l 551 1015 l 199 1015 m 435 1131 l 199 1215 l 254 1313 l 467 1189 l 435 1131 z "},"Ę":{"ha":694,"x_min":82,"x_max":613,"o":"m 82 0 l 82 867 l 613 867 l 613 781 l 174 781 l 174 496 l 536 496 l 536 407 l 174 407 l 174 86 l 608 86 l 608 0 l 82 0 m 496 -244 q 413 -221 442 -244 q 383 -160 383 -197 q 494 0 383 -90 l 586 0 q 469 -142 469 -104 q 481 -169 469 -158 q 508 -181 492 -181 q 589 -149 549 -181 l 589 -212 q 496 -244 549 -244 z "},"Ẽ":{"ha":694,"x_min":82,"x_max":618,"o":"m 82 0 l 82 867 l 613 867 l 613 781 l 174 781 l 174 496 l 536 496 l 536 407 l 174 407 l 174 86 l 608 86 l 608 0 l 82 0 m 618 1060 q 559 978 588 1001 q 489 956 531 956 q 437 966 460 956 q 383 997 414 976 q 341 1022 357 1014 q 306 1031 325 1031 q 263 1016 281 1031 q 228 965 244 1001 l 160 996 q 216 1076 181 1046 q 303 1107 251 1107 q 353 1097 332 1107 q 403 1067 374 1086 q 444 1040 426 1049 q 483 1032 463 1032 q 520 1046 506 1032 q 554 1099 535 1060 l 618 1060 z "},"Ƹ":{"ha":694,"x_min":99,"x_max":596,"o":"m 596 83 q 372 -15 506 -15 q 223 19 285 -15 q 130 112 161 54 q 99 239 99 169 q 133 375 99 313 q 228 476 167 438 q 367 517 289 514 l 122 778 l 122 865 l 546 865 l 546 778 l 231 778 l 469 517 l 469 444 q 270 403 342 451 q 199 246 199 354 q 247 117 199 165 q 382 68 296 68 q 499 111 461 68 q 532 156 532 151 q 527 156 532 157 q 521 160 522 154 l 526 167 l 538 158 l 596 83 z "},"F":{"ha":694,"x_min":108,"x_max":607,"o":"m 108 0 l 108 867 l 607 867 l 607 782 l 206 782 l 206 510 l 529 510 l 529 425 l 206 425 l 206 0 l 108 0 z "},"G":{"ha":694,"x_min":49,"x_max":639,"o":"m 639 415 l 639 76 q 385 -14 515 -14 q 206 40 282 -14 q 90 193 131 94 q 50 422 50 292 q 100 695 49 594 q 226 835 151 796 q 378 875 301 875 q 528 835 456 875 q 636 729 600 794 l 568 675 l 567 674 q 479 763 519 736 q 379 789 439 789 q 210 708 275 789 q 146 443 146 628 q 209 169 146 265 q 385 72 272 72 q 472 85 426 72 q 549 125 518 99 l 549 331 l 392 331 l 392 415 l 639 415 m 551 674 q 564 672 551 682 l 557 665 l 551 674 m 567 674 q 564 672 574 664 l 567 674 z "},"Ğ":{"ha":694,"x_min":50,"x_max":639,"o":"m 639 415 l 639 76 q 385 -14 515 -14 q 206 40 282 -14 q 90 193 131 94 q 50 422 50 292 q 100 695 49 594 q 226 835 151 796 q 378 875 301 875 q 528 835 456 875 q 636 729 600 794 l 568 675 l 567 674 q 479 763 519 736 q 379 789 439 789 q 210 708 275 789 q 146 443 146 628 q 209 169 146 265 q 385 72 272 72 q 472 85 426 72 q 549 125 518 99 l 549 331 l 392 331 l 392 415 l 639 415 m 551 674 q 564 672 551 682 l 557 665 l 551 674 m 567 674 q 564 672 574 664 l 567 674 m 578 1060 q 495 965 546 999 q 381 932 444 932 q 266 965 317 932 q 183 1060 215 999 l 256 1093 q 308 1022 278 1044 q 381 999 339 999 q 453 1022 422 999 q 506 1093 483 1044 l 578 1060 z "},"Ǧ":{"ha":694,"x_min":50,"x_max":639,"o":"m 639 415 l 639 76 q 385 -14 515 -14 q 206 40 282 -14 q 90 193 131 94 q 50 422 50 292 q 100 695 49 594 q 226 835 151 796 q 378 875 301 875 q 528 835 456 875 q 636 729 600 794 l 568 675 l 567 674 q 479 763 519 736 q 379 789 439 789 q 210 708 275 789 q 146 443 146 628 q 209 169 146 265 q 385 72 272 72 q 472 85 426 72 q 549 125 518 99 l 549 331 l 392 331 l 392 415 l 639 415 m 551 674 q 564 672 551 682 l 557 665 l 551 674 m 567 674 q 564 672 574 664 l 567 674 m 360 910 l 189 1046 l 235 1099 l 378 1000 l 533 1094 l 572 1049 l 390 910 l 360 910 z "},"Ĝ":{"ha":694,"x_min":50,"x_max":639,"o":"m 639 415 l 639 76 q 385 -14 515 -14 q 206 40 282 -14 q 90 193 131 94 q 50 422 50 292 q 100 695 49 594 q 226 835 151 796 q 378 875 301 875 q 528 835 456 875 q 636 729 600 794 l 568 675 l 567 674 q 479 763 519 736 q 379 789 439 789 q 210 708 275 789 q 146 443 146 628 q 209 169 146 265 q 385 72 272 72 q 472 85 426 72 q 549 125 518 99 l 549 331 l 392 331 l 392 415 l 639 415 m 551 674 q 564 672 551 682 l 557 665 l 551 674 m 567 674 q 564 672 574 664 l 567 674 m 207 910 l 161 963 l 360 1099 l 390 1099 l 600 961 l 558 911 l 378 1008 l 207 910 z "},"Ģ":{"ha":694,"x_min":50,"x_max":639,"o":"m 639 415 l 639 76 q 385 -14 515 -14 q 206 40 282 -14 q 90 193 131 94 q 50 422 50 292 q 100 695 49 594 q 226 835 151 796 q 378 875 301 875 q 528 835 456 875 q 636 729 600 794 l 568 675 l 567 674 q 479 763 519 736 q 379 789 439 789 q 210 708 275 789 q 146 443 146 628 q 209 169 146 265 q 385 72 272 72 q 472 85 426 72 q 549 125 518 99 l 549 331 l 392 331 l 392 415 l 639 415 m 551 674 q 564 672 551 682 l 557 665 l 551 674 m 567 674 q 564 672 574 664 l 567 674 m 286 -344 q 344 -275 321 -312 q 368 -214 368 -237 q 362 -195 368 -203 q 339 -172 356 -187 q 313 -144 321 -156 q 304 -117 304 -133 q 325 -65 304 -86 q 378 -43 346 -43 q 438 -73 413 -43 q 463 -147 463 -103 q 329 -382 463 -244 l 286 -344 z "},"Ġ":{"ha":694,"x_min":50,"x_max":639,"o":"m 639 415 l 639 76 q 385 -14 515 -14 q 206 40 282 -14 q 90 193 131 94 q 50 422 50 292 q 100 695 49 594 q 226 835 151 796 q 378 875 301 875 q 528 835 456 875 q 636 729 600 794 l 568 675 l 567 674 q 479 763 519 736 q 379 789 439 789 q 210 708 275 789 q 146 443 146 628 q 209 169 146 265 q 385 72 272 72 q 472 85 426 72 q 549 125 518 99 l 549 331 l 392 331 l 392 415 l 639 415 m 551 674 q 564 672 551 682 l 557 665 l 551 674 m 567 674 q 564 672 574 664 l 567 674 m 379 957 q 330 978 351 957 q 308 1028 308 999 q 329 1078 308 1057 q 379 1099 350 1099 q 430 1078 408 1099 q 451 1028 451 1057 q 430 978 451 999 q 379 957 408 957 z "},"Ḡ":{"ha":694,"x_min":50,"x_max":639,"o":"m 639 415 l 639 76 q 385 -14 515 -14 q 206 40 282 -14 q 90 193 131 94 q 50 422 50 292 q 100 695 49 594 q 226 835 151 796 q 378 875 301 875 q 528 835 456 875 q 636 729 600 794 l 568 675 l 567 674 q 479 763 519 736 q 379 789 439 789 q 210 708 275 789 q 146 443 146 628 q 209 169 146 265 q 385 72 272 72 q 472 85 426 72 q 549 125 518 99 l 549 331 l 392 331 l 392 415 l 639 415 m 551 674 q 564 672 551 682 l 557 665 l 551 674 m 567 674 q 564 672 574 664 l 567 674 m 204 1015 l 204 1093 l 557 1093 l 557 1015 l 204 1015 z "},"H":{"ha":694,"x_min":69,"x_max":624,"o":"m 69 865 l 183 865 l 183 856 q 173 838 175 847 q 171 804 171 828 l 171 496 l 510 496 l 510 865 l 624 865 l 624 856 q 613 838 615 847 q 611 804 611 828 l 611 0 l 508 0 l 508 413 l 171 413 l 171 0 l 69 0 l 69 865 z "},"Ħ":{"ha":694,"x_min":69,"x_max":624,"o":"m 624 856 q 613 838 615 847 q 611 804 611 828 l 611 0 l 508 0 l 508 386 l 171 386 l 171 0 l 69 0 l 69 865 l 183 865 l 183 856 q 173 838 175 847 q 171 804 171 828 l 171 496 l 510 496 l 510 865 l 624 865 l 624 856 z "},"Ḫ":{"ha":694,"x_min":69,"x_max":624,"o":"m 69 865 l 183 865 l 183 856 q 173 838 175 847 q 171 804 171 828 l 171 496 l 510 496 l 510 865 l 624 865 l 624 856 q 613 838 615 847 q 611 804 611 828 l 611 0 l 508 0 l 508 413 l 171 413 l 171 0 l 69 0 l 69 865 m 558 -115 q 476 -210 526 -176 q 361 -243 425 -243 q 247 -210 297 -243 q 164 -115 196 -176 l 236 -82 q 289 -153 258 -131 q 361 -176 319 -176 q 433 -153 403 -176 q 486 -82 464 -131 l 558 -115 z "},"Ĥ":{"ha":694,"x_min":69,"x_max":624,"o":"m 69 865 l 183 865 l 183 856 q 173 838 175 847 q 171 804 171 828 l 171 496 l 510 496 l 510 865 l 624 865 l 624 856 q 613 838 615 847 q 611 804 611 828 l 611 0 l 508 0 l 508 413 l 171 413 l 171 0 l 69 0 l 69 865 m 174 910 l 128 963 l 326 1099 l 357 1099 l 567 961 l 525 911 l 344 1008 l 174 910 z "},"Ḥ":{"ha":694,"x_min":69,"x_max":624,"o":"m 69 865 l 183 865 l 183 856 q 173 838 175 847 q 171 804 171 828 l 171 496 l 510 496 l 510 865 l 624 865 l 624 856 q 613 838 615 847 q 611 804 611 828 l 611 0 l 508 0 l 508 413 l 171 413 l 171 0 l 69 0 l 69 865 m 343 -222 q 292 -201 313 -222 q 271 -151 271 -181 q 292 -101 271 -122 q 343 -79 313 -79 q 393 -101 372 -79 q 414 -151 414 -122 q 393 -201 414 -181 q 343 -222 372 -222 z "},"I":{"ha":694,"x_min":113,"x_max":560,"o":"m 113 0 l 113 82 l 283 82 l 283 783 l 122 783 l 122 865 l 551 865 l 551 783 l 381 783 l 381 81 l 560 81 l 560 0 l 113 0 z "},"Í":{"ha":694,"x_min":113,"x_max":560,"o":"m 113 0 l 113 82 l 283 82 l 283 783 l 122 783 l 122 865 l 551 865 l 551 783 l 381 783 l 381 81 l 560 81 l 560 0 l 113 0 m 231 917 l 199 975 l 410 1099 l 465 1001 l 231 917 z "},"Ĭ":{"ha":694,"x_min":113,"x_max":560,"o":"m 113 0 l 113 82 l 283 82 l 283 783 l 122 783 l 122 865 l 551 865 l 551 783 l 381 783 l 381 81 l 560 81 l 560 0 l 113 0 m 529 1060 q 447 965 497 999 q 332 932 396 932 q 217 965 268 932 q 135 1060 167 999 l 207 1093 q 260 1022 229 1044 q 332 999 290 999 q 404 1022 374 999 q 457 1093 435 1044 l 529 1060 z "},"Î":{"ha":694,"x_min":113,"x_max":560,"o":"m 113 0 l 113 82 l 283 82 l 283 783 l 122 783 l 122 865 l 551 865 l 551 783 l 381 783 l 381 81 l 560 81 l 560 0 l 113 0 m 158 910 l 113 963 l 311 1099 l 342 1099 l 551 961 l 510 911 l 329 1008 l 158 910 z "},"Ȉ":{"ha":694,"x_min":88,"x_max":560,"o":"m 113 0 l 113 82 l 283 82 l 283 783 l 122 783 l 122 865 l 551 865 l 551 783 l 381 783 l 381 81 l 560 81 l 560 0 l 113 0 m 228 935 l 88 1122 l 164 1178 l 281 971 l 228 935 m 450 935 l 310 1122 l 386 1178 l 503 971 l 450 935 z "},"Ï":{"ha":694,"x_min":113,"x_max":560,"o":"m 113 0 l 113 82 l 283 82 l 283 783 l 122 783 l 122 865 l 551 865 l 551 783 l 381 783 l 381 81 l 560 81 l 560 0 l 113 0 m 207 956 q 158 976 179 956 q 138 1025 138 997 q 158 1074 138 1053 q 207 1096 179 1096 q 257 1075 236 1096 q 278 1025 278 1054 q 257 976 278 997 q 207 956 236 956 m 454 956 q 406 976 426 956 q 386 1025 386 996 q 406 1075 386 1054 q 454 1096 426 1096 q 504 1075 483 1096 q 525 1025 525 1054 q 504 976 525 997 q 454 956 483 956 z "},"Ḯ":{"ha":694,"x_min":113,"x_max":560,"o":"m 113 0 l 113 82 l 283 82 l 283 783 l 122 783 l 122 865 l 551 865 l 551 783 l 381 783 l 381 81 l 560 81 l 560 0 l 113 0 m 207 956 q 158 976 179 956 q 138 1025 138 997 q 158 1074 138 1053 q 207 1096 179 1096 q 257 1075 236 1096 q 278 1025 278 1054 q 257 976 278 997 q 207 956 236 956 m 454 956 q 406 976 426 956 q 386 1025 386 996 q 406 1075 386 1054 q 454 1096 426 1096 q 504 1075 483 1096 q 525 1025 525 1054 q 504 976 525 997 q 454 956 483 956 m 228 1114 l 196 1172 l 407 1296 l 463 1199 l 228 1114 z "},"İ":{"ha":694,"x_min":113,"x_max":560,"o":"m 113 0 l 113 82 l 283 82 l 283 783 l 122 783 l 122 865 l 551 865 l 551 783 l 381 783 l 381 81 l 560 81 l 560 0 l 113 0 m 331 957 q 281 978 303 957 q 260 1028 260 999 q 281 1078 260 1057 q 331 1099 301 1099 q 381 1078 360 1099 q 403 1028 403 1057 q 381 978 403 999 q 331 957 360 957 z "},"Ị":{"ha":694,"x_min":113,"x_max":560,"o":"m 113 0 l 113 82 l 283 82 l 283 783 l 122 783 l 122 865 l 551 865 l 551 783 l 381 783 l 381 81 l 560 81 l 560 0 l 113 0 m 343 -222 q 292 -201 313 -222 q 271 -151 271 -181 q 292 -101 271 -122 q 343 -79 313 -79 q 393 -101 372 -79 q 414 -151 414 -122 q 393 -201 414 -181 q 343 -222 372 -222 z "},"Ì":{"ha":694,"x_min":113,"x_max":560,"o":"m 113 0 l 113 82 l 283 82 l 283 783 l 122 783 l 122 865 l 551 865 l 551 783 l 381 783 l 381 81 l 560 81 l 560 0 l 113 0 m 392 917 l 156 1001 l 211 1099 l 424 975 l 392 917 z "},"Ỉ":{"ha":694,"x_min":113,"x_max":560,"o":"m 113 0 l 113 82 l 283 82 l 283 783 l 122 783 l 122 865 l 551 865 l 551 783 l 381 783 l 381 81 l 560 81 l 560 0 l 113 0 m 450 1106 q 440 1065 450 1079 q 410 1032 431 1050 q 381 1002 390 1015 q 372 967 372 989 l 372 957 l 301 957 l 301 996 q 342 1058 301 1024 q 366 1083 358 1074 q 374 1103 374 1093 q 361 1131 374 1121 q 331 1142 349 1142 q 269 1097 283 1142 l 218 1150 q 272 1194 243 1181 q 338 1208 300 1208 q 417 1181 385 1208 q 450 1106 450 1153 z "},"Ȋ":{"ha":694,"x_min":113,"x_max":560,"o":"m 113 0 l 113 82 l 283 82 l 283 783 l 122 783 l 122 865 l 551 865 l 551 783 l 381 783 l 381 81 l 560 81 l 560 0 l 113 0 m 457 964 q 404 1035 435 1013 q 332 1058 374 1058 q 260 1035 290 1058 q 207 964 229 1013 l 135 997 q 217 1092 167 1058 q 332 1125 268 1125 q 447 1092 396 1125 q 529 997 497 1058 l 457 964 z "},"Ī":{"ha":694,"x_min":113,"x_max":560,"o":"m 113 0 l 113 82 l 283 82 l 283 783 l 122 783 l 122 865 l 551 865 l 551 783 l 381 783 l 381 81 l 560 81 l 560 0 l 113 0 m 156 1015 l 156 1093 l 508 1093 l 508 1015 l 156 1015 z "},"Į":{"ha":694,"x_min":113,"x_max":560,"o":"m 560 0 q 476 -87 507 -42 q 446 -171 446 -133 q 467 -222 446 -201 q 532 -249 489 -243 l 510 -315 q 397 -274 439 -306 q 354 -190 354 -242 q 388 -93 354 -142 q 485 0 421 -44 l 113 0 l 113 82 l 283 82 l 283 783 l 122 783 l 122 865 l 551 865 l 551 783 l 381 783 l 381 81 l 560 81 l 560 0 z "},"Ĩ":{"ha":694,"x_min":111,"x_max":569,"o":"m 113 0 l 113 82 l 283 82 l 283 783 l 122 783 l 122 865 l 551 865 l 551 783 l 381 783 l 381 81 l 560 81 l 560 0 l 113 0 m 569 1132 q 510 1051 539 1074 q 440 1028 482 1028 q 388 1038 411 1028 q 335 1069 365 1049 q 292 1094 308 1086 q 257 1103 276 1103 q 214 1088 232 1103 q 179 1038 196 1074 l 111 1068 q 167 1149 132 1118 q 254 1179 203 1179 q 304 1169 283 1179 q 354 1139 325 1158 q 396 1113 378 1121 q 435 1104 414 1104 q 472 1118 457 1104 q 506 1171 486 1132 l 569 1132 z "},"J":{"ha":694,"x_min":68,"x_max":635,"o":"m 501 783 l 501 290 q 474 117 504 185 q 391 17 443 49 q 275 -15 339 -15 q 68 81 147 -15 l 124 150 l 125 151 l 126 150 q 198 90 165 108 q 272 71 231 71 q 374 120 343 71 q 406 289 406 169 l 406 783 l 239 783 l 239 865 l 635 865 l 635 783 l 501 783 m 140 156 q 136 151 140 150 q 128 154 132 151 l 133 161 l 140 156 m 125 151 q 122 157 118 158 q 128 154 126 156 l 125 151 z "},"Ĵ":{"ha":694,"x_min":68,"x_max":678,"o":"m 501 783 l 501 290 q 474 117 504 185 q 391 17 443 49 q 275 -15 339 -15 q 68 81 147 -15 l 124 150 l 125 151 l 126 150 q 198 90 165 108 q 272 71 231 71 q 374 120 343 71 q 406 289 406 169 l 406 783 l 239 783 l 239 865 l 635 865 l 635 783 l 501 783 m 140 156 q 136 151 140 150 q 128 154 132 151 l 133 161 l 140 156 m 125 151 q 122 157 118 158 q 128 154 126 156 l 125 151 m 285 910 l 239 963 l 438 1099 l 468 1099 l 678 961 l 636 911 l 456 1008 l 285 910 z "},"K":{"ha":694,"x_min":58,"x_max":654,"o":"m 231 433 l 163 358 l 163 0 l 58 0 l 58 865 l 175 865 l 175 856 q 165 838 167 847 q 163 804 163 828 l 163 467 l 524 872 q 596 865 558 865 l 632 865 l 304 492 l 654 0 l 529 -6 l 231 433 z "},"Ķ":{"ha":694,"x_min":58,"x_max":654,"o":"m 231 433 l 163 358 l 163 0 l 58 0 l 58 865 l 175 865 l 175 856 q 165 838 167 847 q 163 804 163 828 l 163 467 l 524 872 q 596 865 558 865 l 632 865 l 304 492 l 654 0 l 529 -6 l 231 433 m 244 -344 q 303 -275 279 -312 q 326 -214 326 -237 q 320 -195 326 -203 q 297 -172 314 -187 q 271 -144 279 -156 q 263 -117 263 -133 q 283 -65 263 -86 q 336 -43 304 -43 q 396 -73 371 -43 q 421 -147 421 -103 q 288 -382 421 -244 l 244 -344 z "},"Ƙ":{"ha":694,"x_min":58,"x_max":654,"o":"m 646 765 l 646 764 q 617 770 631 768 q 581 772 604 772 q 473 722 539 772 q 289 514 407 672 l 654 0 l 529 -6 l 231 432 l 163 331 l 163 0 l 58 0 l 58 865 l 175 865 l 175 856 q 165 838 167 847 q 163 804 163 828 l 163 453 q 397 774 290 676 q 599 871 504 871 q 647 865 626 871 l 646 765 m 646 764 q 653 761 653 763 q 650 759 653 760 q 646 758 647 758 l 646 764 m 635 754 q 646 758 635 758 l 646 751 l 636 751 l 635 754 z "},"L":{"ha":694,"x_min":92,"x_max":610,"o":"m 92 865 l 206 865 l 206 856 q 195 838 197 847 q 193 804 193 828 l 193 83 l 610 83 l 610 0 l 92 0 l 92 865 z "},"Ǉ":{"ha":694,"x_min":92,"x_max":631,"o":"m 92 865 l 206 865 q 199 841 206 856 q 193 818 193 826 l 193 85 l 429 85 l 429 0 l 92 0 l 92 865 m 397 -210 q 193 -114 275 -210 l 258 -35 q 272 -56 267 -42 q 285 -79 276 -71 q 328 -110 297 -96 q 396 -124 358 -124 q 497 -73 464 -124 q 531 94 531 -22 l 531 783 l 350 783 l 350 865 l 626 865 l 626 96 q 565 -135 631 -60 q 397 -210 499 -210 z "},"Ĺ":{"ha":694,"x_min":92,"x_max":610,"o":"m 92 865 l 206 865 l 206 856 q 195 838 197 847 q 193 804 193 828 l 193 83 l 610 83 l 610 0 l 92 0 l 92 865 m 176 917 l 144 975 l 356 1099 l 411 1001 l 176 917 z "},"Ľ":{"ha":694,"x_min":92,"x_max":610,"o":"m 432 604 q 484 666 464 632 q 504 721 504 700 q 478 760 504 736 q 447 807 447 785 q 466 853 447 835 q 514 872 485 872 q 567 846 544 872 q 589 781 589 819 q 471 571 589 689 l 432 604 m 92 865 l 206 865 l 206 856 q 195 838 197 847 q 193 804 193 828 l 193 83 l 610 83 l 610 0 l 92 0 l 92 865 z "},"Ļ":{"ha":694,"x_min":92,"x_max":610,"o":"m 92 865 l 206 865 l 206 856 q 195 838 197 847 q 193 804 193 828 l 193 83 l 610 83 l 610 0 l 92 0 l 92 865 m 264 -344 q 322 -275 299 -312 q 346 -214 346 -237 q 340 -195 346 -203 q 317 -172 333 -187 q 290 -144 299 -156 q 282 -117 282 -133 q 303 -65 282 -86 q 356 -43 324 -43 q 415 -73 390 -43 q 440 -147 440 -103 q 307 -382 440 -244 l 264 -344 z "},"Ŀ":{"ha":694,"x_min":92,"x_max":610,"o":"m 92 865 l 206 865 l 206 856 q 195 838 197 847 q 193 804 193 828 l 193 83 l 610 83 l 610 0 l 92 0 l 92 865 m 414 381 q 356 403 379 381 q 332 460 332 426 q 356 516 332 493 q 414 539 381 539 q 472 515 446 539 q 497 460 497 492 q 473 404 497 428 q 414 381 449 381 z "},"Ḷ":{"ha":694,"x_min":92,"x_max":610,"o":"m 92 865 l 206 865 l 206 856 q 195 838 197 847 q 193 804 193 828 l 193 83 l 610 83 l 610 0 l 92 0 l 92 865 m 343 -222 q 292 -201 313 -222 q 271 -151 271 -181 q 292 -101 271 -122 q 343 -79 313 -79 q 393 -101 372 -79 q 414 -151 414 -122 q 393 -201 414 -181 q 343 -222 372 -222 z "},"ǈ":{"ha":694,"x_min":92,"x_max":604,"o":"m 532 767 q 482 788 503 767 q 461 838 461 808 q 481 889 461 868 q 532 910 501 910 q 583 888 561 910 q 604 838 604 867 q 583 788 604 808 q 532 767 561 767 m 92 865 l 206 865 q 199 841 206 856 q 193 818 193 826 l 193 85 l 415 85 l 415 0 l 92 0 l 92 865 m 344 -242 q 150 -153 222 -242 l 215 -67 q 226 -87 221 -72 q 244 -115 232 -103 q 286 -140 256 -126 q 351 -156 319 -156 q 456 -111 417 -156 q 494 25 494 -67 l 494 553 l 300 553 l 300 635 l 596 635 l 596 31 q 527 -171 596 -106 q 344 -242 458 -236 z "},"Ḻ":{"ha":694,"x_min":92,"x_max":610,"o":"m 92 865 l 206 865 l 206 856 q 195 838 197 847 q 193 804 193 828 l 193 83 l 610 83 l 610 0 l 92 0 l 92 865 m 174 -215 l 174 -137 l 526 -137 l 526 -215 l 174 -215 z "},"Ł":{"ha":694,"x_min":28,"x_max":619,"o":"m 101 338 l 28 314 l 28 399 l 101 424 l 101 865 l 214 865 q 217 863 217 865 q 211 844 217 860 q 203 818 206 829 l 203 456 l 433 531 q 468 544 463 542 l 468 456 l 203 371 l 203 83 l 619 83 l 619 -1 l 101 -1 l 101 338 z "},"M":{"ha":694,"x_min":57,"x_max":639,"o":"m 57 0 l 57 865 l 133 865 l 347 442 l 565 867 l 639 867 l 639 0 l 547 0 l 547 653 l 360 304 l 322 304 l 147 649 l 147 0 l 57 0 z "},"Ṃ":{"ha":694,"x_min":57,"x_max":639,"o":"m 57 0 l 57 865 l 133 865 l 347 442 l 565 867 l 639 867 l 639 0 l 547 0 l 547 653 l 360 304 l 322 304 l 147 649 l 147 0 l 57 0 m 343 -222 q 292 -201 313 -222 q 271 -151 271 -181 q 292 -101 271 -122 q 343 -79 313 -79 q 393 -101 372 -79 q 414 -151 414 -122 q 393 -201 414 -181 q 343 -222 372 -222 z "},"N":{"ha":694,"x_min":69,"x_max":633,"o":"m 69 865 l 164 865 l 528 224 l 528 865 l 633 865 l 633 856 q 623 838 625 847 q 621 804 621 828 l 621 0 l 544 0 l 163 681 l 163 0 l 69 0 l 69 865 z "},"Ń":{"ha":694,"x_min":69,"x_max":633,"o":"m 69 865 l 164 865 l 528 224 l 528 865 l 633 865 l 633 856 q 623 838 625 847 q 621 804 621 828 l 621 0 l 544 0 l 163 681 l 163 0 l 69 0 l 69 865 m 246 917 l 214 975 l 425 1099 l 481 1001 l 246 917 z "},"Ň":{"ha":694,"x_min":69,"x_max":633,"o":"m 69 865 l 164 865 l 528 224 l 528 865 l 633 865 l 633 856 q 623 838 625 847 q 621 804 621 828 l 621 0 l 544 0 l 163 681 l 163 0 l 69 0 l 69 865 m 326 910 l 156 1046 l 201 1099 l 344 1000 l 500 1094 l 539 1049 l 357 910 l 326 910 z "},"Ņ":{"ha":694,"x_min":69,"x_max":633,"o":"m 69 865 l 164 865 l 528 224 l 528 865 l 633 865 l 633 856 q 623 838 625 847 q 621 804 621 828 l 621 0 l 544 0 l 163 681 l 163 0 l 69 0 l 69 865 m 264 -344 q 322 -275 299 -312 q 346 -214 346 -237 q 340 -195 346 -203 q 317 -172 333 -187 q 290 -144 299 -156 q 282 -117 282 -133 q 303 -65 282 -86 q 356 -43 324 -43 q 415 -73 390 -43 q 440 -147 440 -103 q 307 -382 440 -244 l 264 -344 z "},"Ṅ":{"ha":694,"x_min":69,"x_max":633,"o":"m 69 865 l 164 865 l 528 224 l 528 865 l 633 865 l 633 856 q 623 838 625 847 q 621 804 621 828 l 621 0 l 544 0 l 163 681 l 163 0 l 69 0 l 69 865 m 346 957 q 297 978 318 957 q 275 1028 275 999 q 296 1078 275 1057 q 346 1099 317 1099 q 397 1078 375 1099 q 418 1028 418 1057 q 397 978 418 999 q 346 957 375 957 z "},"Ṇ":{"ha":694,"x_min":69,"x_max":633,"o":"m 69 865 l 164 865 l 528 224 l 528 865 l 633 865 l 633 856 q 623 838 625 847 q 621 804 621 828 l 621 0 l 544 0 l 163 681 l 163 0 l 69 0 l 69 865 m 343 -222 q 292 -201 313 -222 q 271 -151 271 -181 q 292 -101 271 -122 q 343 -79 313 -79 q 393 -101 372 -79 q 414 -151 414 -122 q 393 -201 414 -181 q 343 -222 372 -222 z "},"Ŋ":{"ha":694,"x_min":69,"x_max":631,"o":"m 631 865 q 626 850 631 861 q 621 828 621 839 l 621 0 q 565 -192 621 -126 q 410 -257 508 -257 q 289 -222 344 -257 l 338 -136 q 356 -149 346 -139 q 376 -164 365 -158 q 414 -169 388 -169 q 501 -123 476 -169 q 528 31 525 -76 l 163 681 l 163 0 l 69 0 l 69 865 l 164 865 l 528 224 l 528 865 l 631 865 z "},"Ṉ":{"ha":694,"x_min":69,"x_max":633,"o":"m 69 865 l 164 865 l 528 224 l 528 865 l 633 865 l 633 856 q 623 838 625 847 q 621 804 621 828 l 621 0 l 544 0 l 163 681 l 163 0 l 69 0 l 69 865 m 174 -215 l 174 -137 l 526 -137 l 526 -215 l 174 -215 z "},"Ñ":{"ha":694,"x_min":69,"x_max":633,"o":"m 69 865 l 164 865 l 528 224 l 528 865 l 633 865 l 633 856 q 623 838 625 847 q 621 804 621 828 l 621 0 l 544 0 l 163 681 l 163 0 l 69 0 l 69 865 m 590 1060 q 531 978 560 1001 q 461 956 503 956 q 409 966 432 956 q 356 997 386 976 q 313 1022 329 1014 q 278 1031 297 1031 q 235 1016 253 1031 q 200 965 217 1001 l 132 996 q 188 1076 153 1046 q 275 1107 224 1107 q 325 1097 304 1107 q 375 1067 346 1086 q 417 1040 399 1049 q 456 1032 435 1032 q 492 1046 478 1032 q 526 1099 507 1060 l 590 1060 z "},"O":{"ha":694,"x_min":38,"x_max":657,"o":"m 347 -15 q 118 100 199 -15 q 38 428 38 215 q 119 753 38 635 q 347 871 200 871 q 576 753 494 871 q 657 428 657 635 q 576 100 657 215 q 347 -15 496 -15 m 347 69 q 502 163 447 69 q 557 428 557 256 q 501 690 557 593 q 347 786 446 786 q 193 690 249 786 q 138 428 138 593 q 192 163 138 256 q 347 69 247 69 z "},"Ó":{"ha":694,"x_min":38,"x_max":657,"o":"m 347 -15 q 118 100 199 -15 q 38 428 38 215 q 119 753 38 635 q 347 871 200 871 q 576 753 494 871 q 657 428 657 635 q 576 100 657 215 q 347 -15 496 -15 m 347 69 q 502 163 447 69 q 557 428 557 256 q 501 690 557 593 q 347 786 446 786 q 193 690 249 786 q 138 428 138 593 q 192 163 138 256 q 347 69 247 69 m 246 917 l 214 975 l 425 1099 l 481 1001 l 246 917 z "},"Ŏ":{"ha":694,"x_min":38,"x_max":657,"o":"m 347 -15 q 118 100 199 -15 q 38 428 38 215 q 119 753 38 635 q 347 871 200 871 q 576 753 494 871 q 657 428 657 635 q 576 100 657 215 q 347 -15 496 -15 m 347 69 q 502 163 447 69 q 557 428 557 256 q 501 690 557 593 q 347 786 446 786 q 193 690 249 786 q 138 428 138 593 q 192 163 138 256 q 347 69 247 69 m 544 1060 q 462 965 513 999 q 347 932 411 932 q 233 965 283 932 q 150 1060 182 999 l 222 1093 q 275 1022 244 1044 q 347 999 306 999 q 419 1022 389 999 q 472 1093 450 1044 l 544 1060 z "},"Ô":{"ha":694,"x_min":38,"x_max":657,"o":"m 347 -15 q 118 100 199 -15 q 38 428 38 215 q 119 753 38 635 q 347 871 200 871 q 576 753 494 871 q 657 428 657 635 q 576 100 657 215 q 347 -15 496 -15 m 347 69 q 502 163 447 69 q 557 428 557 256 q 501 690 557 593 q 347 786 446 786 q 193 690 249 786 q 138 428 138 593 q 192 163 138 256 q 347 69 247 69 m 174 910 l 128 963 l 326 1099 l 357 1099 l 567 961 l 525 911 l 344 1008 l 174 910 z "},"Ố":{"ha":694,"x_min":38,"x_max":747,"o":"m 347 -15 q 118 100 199 -15 q 38 428 38 215 q 119 753 38 635 q 347 871 200 871 q 576 753 494 871 q 657 428 657 635 q 576 100 657 215 q 347 -15 496 -15 m 347 69 q 502 163 447 69 q 557 428 557 256 q 501 690 557 593 q 347 786 446 786 q 193 690 249 786 q 138 428 138 593 q 192 163 138 256 q 347 69 247 69 m 172 910 l 126 963 l 325 1099 l 356 1099 l 565 961 l 524 911 l 343 1008 l 172 910 m 513 1064 l 481 1122 l 692 1246 l 747 1149 l 513 1064 z "},"Ộ":{"ha":694,"x_min":38,"x_max":657,"o":"m 347 -15 q 118 100 199 -15 q 38 428 38 215 q 119 753 38 635 q 347 871 200 871 q 576 753 494 871 q 657 428 657 635 q 576 100 657 215 q 347 -15 496 -15 m 347 69 q 502 163 447 69 q 557 428 557 256 q 501 690 557 593 q 347 786 446 786 q 193 690 249 786 q 138 428 138 593 q 192 163 138 256 q 347 69 247 69 m 343 -222 q 292 -201 313 -222 q 271 -151 271 -181 q 292 -101 271 -122 q 343 -79 313 -79 q 393 -101 372 -79 q 414 -151 414 -122 q 393 -201 414 -181 q 343 -222 372 -222 m 174 910 l 128 963 l 326 1099 l 357 1099 l 567 961 l 525 911 l 344 1008 l 174 910 z "},"Ồ":{"ha":694,"x_min":38,"x_max":657,"o":"m 347 -15 q 118 100 199 -15 q 38 428 38 215 q 119 753 38 635 q 347 871 200 871 q 576 753 494 871 q 657 428 657 635 q 576 100 657 215 q 347 -15 496 -15 m 347 69 q 502 163 447 69 q 557 428 557 256 q 501 690 557 593 q 347 786 446 786 q 193 690 249 786 q 138 428 138 593 q 192 163 138 256 q 347 69 247 69 m 174 910 l 128 963 l 326 1099 l 357 1099 l 567 961 l 525 911 l 344 1008 l 174 910 m 496 1108 l 260 1193 l 315 1290 l 528 1167 l 496 1108 z "},"Ổ":{"ha":694,"x_min":38,"x_max":657,"o":"m 347 -15 q 118 100 199 -15 q 38 428 38 215 q 119 753 38 635 q 347 871 200 871 q 576 753 494 871 q 657 428 657 635 q 576 100 657 215 q 347 -15 496 -15 m 347 69 q 502 163 447 69 q 557 428 557 256 q 501 690 557 593 q 347 786 446 786 q 193 690 249 786 q 138 428 138 593 q 192 163 138 256 q 347 69 247 69 m 168 910 l 122 963 l 321 1099 l 351 1099 l 561 961 l 519 911 l 339 1008 l 168 910 m 625 1189 q 615 1148 625 1163 q 585 1115 606 1133 q 556 1085 565 1099 q 547 1050 547 1072 l 547 1040 l 476 1040 l 476 1079 q 517 1142 476 1107 q 541 1167 533 1157 q 549 1186 549 1176 q 536 1215 549 1204 q 506 1225 524 1225 q 444 1181 458 1225 l 393 1233 q 447 1278 418 1264 q 513 1292 475 1292 q 592 1264 560 1292 q 625 1189 625 1236 z "},"Ỗ":{"ha":694,"x_min":38,"x_max":657,"o":"m 347 -15 q 118 100 199 -15 q 38 428 38 215 q 119 753 38 635 q 347 871 200 871 q 576 753 494 871 q 657 428 657 635 q 576 100 657 215 q 347 -15 496 -15 m 347 69 q 502 163 447 69 q 557 428 557 256 q 501 690 557 593 q 347 786 446 786 q 193 690 249 786 q 138 428 138 593 q 192 163 138 256 q 347 69 247 69 m 174 910 l 128 963 l 326 1099 l 357 1099 l 567 961 l 525 911 l 344 1008 l 174 910 m 546 1224 q 429 1125 496 1125 q 377 1138 400 1125 q 331 1174 354 1151 q 296 1199 308 1192 q 269 1207 283 1207 q 235 1187 249 1207 q 213 1124 222 1167 l 144 1143 q 275 1276 176 1276 q 326 1264 304 1276 q 372 1229 347 1251 q 401 1206 389 1214 q 425 1199 413 1199 q 456 1212 443 1199 q 482 1257 468 1225 l 546 1224 z "},"Ȍ":{"ha":694,"x_min":38,"x_max":657,"o":"m 347 -15 q 118 100 199 -15 q 38 428 38 215 q 119 753 38 635 q 347 871 200 871 q 576 753 494 871 q 657 428 657 635 q 576 100 657 215 q 347 -15 496 -15 m 347 69 q 502 163 447 69 q 557 428 557 256 q 501 690 557 593 q 347 786 446 786 q 193 690 249 786 q 138 428 138 593 q 192 163 138 256 q 347 69 247 69 m 243 935 l 103 1122 l 179 1178 l 296 971 l 243 935 m 465 935 l 325 1122 l 401 1178 l 518 971 l 465 935 z "},"Ö":{"ha":694,"x_min":38,"x_max":657,"o":"m 347 -15 q 118 100 199 -15 q 38 428 38 215 q 119 753 38 635 q 347 871 200 871 q 576 753 494 871 q 657 428 657 635 q 576 100 657 215 q 347 -15 496 -15 m 347 69 q 502 163 447 69 q 557 428 557 256 q 501 690 557 593 q 347 786 446 786 q 193 690 249 786 q 138 428 138 593 q 192 163 138 256 q 347 69 247 69 m 222 956 q 174 976 194 956 q 153 1025 153 997 q 174 1074 153 1053 q 222 1096 194 1096 q 272 1075 251 1096 q 293 1025 293 1054 q 272 976 293 997 q 222 956 251 956 m 469 956 q 422 976 442 956 q 401 1025 401 996 q 422 1075 401 1054 q 469 1096 442 1096 q 519 1075 499 1096 q 540 1025 540 1054 q 519 976 540 997 q 469 956 499 956 z "},"Ȫ":{"ha":694,"x_min":38,"x_max":657,"o":"m 347 -15 q 118 100 199 -15 q 38 428 38 215 q 119 753 38 635 q 347 871 200 871 q 576 753 494 871 q 657 428 657 635 q 576 100 657 215 q 347 -15 496 -15 m 347 69 q 502 163 447 69 q 557 428 557 256 q 501 690 557 593 q 347 786 446 786 q 193 690 249 786 q 138 428 138 593 q 192 163 138 256 q 347 69 247 69 m 222 956 q 174 976 194 956 q 153 1025 153 997 q 174 1074 153 1053 q 222 1096 194 1096 q 272 1075 251 1096 q 293 1025 293 1054 q 272 976 293 997 q 222 956 251 956 m 469 956 q 422 976 442 956 q 401 1025 401 996 q 422 1075 401 1054 q 469 1096 442 1096 q 519 1075 499 1096 q 540 1025 540 1054 q 519 976 540 997 q 469 956 499 956 m 168 1213 l 168 1290 l 521 1290 l 521 1213 l 168 1213 z "},"Ȱ":{"ha":694,"x_min":38,"x_max":657,"o":"m 347 -15 q 118 100 199 -15 q 38 428 38 215 q 119 753 38 635 q 347 871 200 871 q 576 753 494 871 q 657 428 657 635 q 576 100 657 215 q 347 -15 496 -15 m 347 69 q 502 163 447 69 q 557 428 557 256 q 501 690 557 593 q 347 786 446 786 q 193 690 249 786 q 138 428 138 593 q 192 163 138 256 q 347 69 247 69 m 346 957 q 297 978 318 957 q 275 1028 275 999 q 296 1078 275 1057 q 346 1099 317 1099 q 397 1078 375 1099 q 418 1028 418 1057 q 397 978 418 999 q 346 957 375 957 m 168 1171 l 168 1249 l 521 1249 l 521 1171 l 168 1171 z "},"Ọ":{"ha":694,"x_min":38,"x_max":657,"o":"m 347 -15 q 118 100 199 -15 q 38 428 38 215 q 119 753 38 635 q 347 871 200 871 q 576 753 494 871 q 657 428 657 635 q 576 100 657 215 q 347 -15 496 -15 m 347 69 q 502 163 447 69 q 557 428 557 256 q 501 690 557 593 q 347 786 446 786 q 193 690 249 786 q 138 428 138 593 q 192 163 138 256 q 347 69 247 69 m 343 -222 q 292 -201 313 -222 q 271 -151 271 -181 q 292 -101 271 -122 q 343 -79 313 -79 q 393 -101 372 -79 q 414 -151 414 -122 q 393 -201 414 -181 q 343 -222 372 -222 z "},"Ò":{"ha":694,"x_min":38,"x_max":657,"o":"m 347 -15 q 118 100 199 -15 q 38 428 38 215 q 119 753 38 635 q 347 871 200 871 q 576 753 494 871 q 657 428 657 635 q 576 100 657 215 q 347 -15 496 -15 m 347 69 q 502 163 447 69 q 557 428 557 256 q 501 690 557 593 q 347 786 446 786 q 193 690 249 786 q 138 428 138 593 q 192 163 138 256 q 347 69 247 69 m 407 917 l 171 1001 l 226 1099 l 439 975 l 407 917 z "},"Ỏ":{"ha":694,"x_min":38,"x_max":657,"o":"m 347 -15 q 118 100 199 -15 q 38 428 38 215 q 119 753 38 635 q 347 871 200 871 q 576 753 494 871 q 657 428 657 635 q 576 100 657 215 q 347 -15 496 -15 m 347 69 q 502 163 447 69 q 557 428 557 256 q 501 690 557 593 q 347 786 446 786 q 193 690 249 786 q 138 428 138 593 q 192 163 138 256 q 347 69 247 69 m 465 1106 q 456 1065 465 1079 q 425 1032 446 1050 q 397 1002 406 1015 q 388 967 388 989 l 388 957 l 317 957 l 317 996 q 357 1058 317 1024 q 381 1083 374 1074 q 389 1103 389 1093 q 376 1131 389 1121 q 346 1142 364 1142 q 285 1097 299 1142 l 233 1150 q 287 1194 258 1181 q 353 1208 315 1208 q 433 1181 400 1208 q 465 1106 465 1153 z "},"Ơ":{"ha":694,"x_min":38,"x_max":657,"o":"m 579 749 q 657 428 657 633 q 576 100 657 215 q 347 -15 496 -15 q 118 100 199 -15 q 38 428 38 215 q 119 753 38 635 q 347 871 200 871 q 522 811 450 871 q 554 825 544 814 q 567 861 564 836 q 569 942 569 886 l 650 942 q 636 803 650 846 q 579 749 622 761 m 347 69 q 502 163 447 69 q 557 428 557 256 q 501 690 557 593 q 347 786 446 786 q 193 690 249 786 q 138 428 138 593 q 192 163 138 256 q 347 69 247 69 z "},"Ớ":{"ha":694,"x_min":38,"x_max":657,"o":"m 579 749 q 657 428 657 633 q 576 100 657 215 q 347 -15 496 -15 q 118 100 199 -15 q 38 428 38 215 q 119 753 38 635 q 347 871 200 871 q 522 811 450 871 q 554 825 544 814 q 567 861 564 836 q 569 942 569 886 l 650 942 q 636 803 650 846 q 579 749 622 761 m 347 69 q 502 163 447 69 q 557 428 557 256 q 501 690 557 593 q 347 786 446 786 q 193 690 249 786 q 138 428 138 593 q 192 163 138 256 q 347 69 247 69 m 246 917 l 214 975 l 425 1099 l 481 1001 l 246 917 z "},"Ợ":{"ha":694,"x_min":38,"x_max":657,"o":"m 579 749 q 657 428 657 633 q 576 100 657 215 q 347 -15 496 -15 q 118 100 199 -15 q 38 428 38 215 q 119 753 38 635 q 347 871 200 871 q 522 811 450 871 q 554 825 544 814 q 567 861 564 836 q 569 942 569 886 l 650 942 q 636 803 650 846 q 579 749 622 761 m 347 69 q 502 163 447 69 q 557 428 557 256 q 501 690 557 593 q 347 786 446 786 q 193 690 249 786 q 138 428 138 593 q 192 163 138 256 q 347 69 247 69 m 343 -222 q 292 -201 313 -222 q 271 -151 271 -181 q 292 -101 271 -122 q 343 -79 313 -79 q 393 -101 372 -79 q 414 -151 414 -122 q 393 -201 414 -181 q 343 -222 372 -222 z "},"Ờ":{"ha":694,"x_min":38,"x_max":657,"o":"m 579 749 q 657 428 657 633 q 576 100 657 215 q 347 -15 496 -15 q 118 100 199 -15 q 38 428 38 215 q 119 753 38 635 q 347 871 200 871 q 522 811 450 871 q 554 825 544 814 q 567 861 564 836 q 569 942 569 886 l 650 942 q 636 803 650 846 q 579 749 622 761 m 347 69 q 502 163 447 69 q 557 428 557 256 q 501 690 557 593 q 347 786 446 786 q 193 690 249 786 q 138 428 138 593 q 192 163 138 256 q 347 69 247 69 m 407 917 l 171 1001 l 226 1099 l 439 975 l 407 917 z "},"Ở":{"ha":694,"x_min":38,"x_max":657,"o":"m 579 749 q 657 428 657 633 q 576 100 657 215 q 347 -15 496 -15 q 118 100 199 -15 q 38 428 38 215 q 119 753 38 635 q 347 871 200 871 q 522 811 450 871 q 554 825 544 814 q 567 861 564 836 q 569 942 569 886 l 650 942 q 636 803 650 846 q 579 749 622 761 m 347 69 q 502 163 447 69 q 557 428 557 256 q 501 690 557 593 q 347 786 446 786 q 193 690 249 786 q 138 428 138 593 q 192 163 138 256 q 347 69 247 69 m 465 1106 q 456 1065 465 1079 q 425 1032 446 1050 q 397 1002 406 1015 q 388 967 388 989 l 388 957 l 317 957 l 317 996 q 357 1058 317 1024 q 381 1083 374 1074 q 389 1103 389 1093 q 376 1131 389 1121 q 346 1142 364 1142 q 285 1097 299 1142 l 233 1150 q 287 1194 258 1181 q 353 1208 315 1208 q 433 1181 400 1208 q 465 1106 465 1153 z "},"Ỡ":{"ha":694,"x_min":38,"x_max":657,"o":"m 579 749 q 657 428 657 633 q 576 100 657 215 q 347 -15 496 -15 q 118 100 199 -15 q 38 428 38 215 q 119 753 38 635 q 347 871 200 871 q 522 811 450 871 q 554 825 544 814 q 567 861 564 836 q 569 942 569 886 l 650 942 q 636 803 650 846 q 579 749 622 761 m 347 69 q 502 163 447 69 q 557 428 557 256 q 501 690 557 593 q 347 786 446 786 q 193 690 249 786 q 138 428 138 593 q 192 163 138 256 q 347 69 247 69 m 590 1060 q 531 978 560 1001 q 461 956 503 956 q 409 966 432 956 q 356 997 386 976 q 313 1022 329 1014 q 278 1031 297 1031 q 235 1016 253 1031 q 200 965 217 1001 l 132 996 q 188 1076 153 1046 q 275 1107 224 1107 q 325 1097 304 1107 q 375 1067 346 1086 q 417 1040 399 1049 q 456 1032 435 1032 q 492 1046 478 1032 q 526 1099 507 1060 l 590 1060 z "},"Ő":{"ha":694,"x_min":38,"x_max":657,"o":"m 347 -15 q 118 100 199 -15 q 38 428 38 215 q 119 753 38 635 q 347 871 200 871 q 576 753 494 871 q 657 428 657 635 q 576 100 657 215 q 347 -15 496 -15 m 347 69 q 502 163 447 69 q 557 428 557 256 q 501 690 557 593 q 347 786 446 786 q 193 690 249 786 q 138 428 138 593 q 192 163 138 256 q 347 69 247 69 m 144 896 l 100 953 l 282 1125 l 347 1036 l 144 896 m 392 896 l 347 953 l 529 1125 l 593 1036 l 392 896 z "},"Ȏ":{"ha":694,"x_min":38,"x_max":657,"o":"m 347 -15 q 118 100 199 -15 q 38 428 38 215 q 119 753 38 635 q 347 871 200 871 q 576 753 494 871 q 657 428 657 635 q 576 100 657 215 q 347 -15 496 -15 m 347 69 q 502 163 447 69 q 557 428 557 256 q 501 690 557 593 q 347 786 446 786 q 193 690 249 786 q 138 428 138 593 q 192 163 138 256 q 347 69 247 69 m 472 964 q 419 1035 450 1013 q 347 1058 389 1058 q 275 1035 306 1058 q 222 964 244 1013 l 150 997 q 233 1092 182 1058 q 347 1125 283 1125 q 462 1092 411 1125 q 544 997 513 1058 l 472 964 z "},"Ō":{"ha":694,"x_min":38,"x_max":657,"o":"m 347 -15 q 118 100 199 -15 q 38 428 38 215 q 119 753 38 635 q 347 871 200 871 q 576 753 494 871 q 657 428 657 635 q 576 100 657 215 q 347 -15 496 -15 m 347 69 q 502 163 447 69 q 557 428 557 256 q 501 690 557 593 q 347 786 446 786 q 193 690 249 786 q 138 428 138 593 q 192 163 138 256 q 347 69 247 69 m 171 1015 l 171 1093 l 524 1093 l 524 1015 l 171 1015 z "},"Ṓ":{"ha":694,"x_min":38,"x_max":657,"o":"m 347 -15 q 118 100 199 -15 q 38 428 38 215 q 119 753 38 635 q 347 871 200 871 q 576 753 494 871 q 657 428 657 635 q 576 100 657 215 q 347 -15 496 -15 m 347 69 q 502 163 447 69 q 557 428 557 256 q 501 690 557 593 q 347 786 446 786 q 193 690 249 786 q 138 428 138 593 q 192 163 138 256 q 347 69 247 69 m 171 1015 l 171 1093 l 524 1093 l 524 1015 l 171 1015 m 246 1131 l 214 1189 l 425 1313 l 481 1215 l 246 1131 z "},"Ṑ":{"ha":694,"x_min":38,"x_max":657,"o":"m 347 -15 q 118 100 199 -15 q 38 428 38 215 q 119 753 38 635 q 347 871 200 871 q 576 753 494 871 q 657 428 657 635 q 576 100 657 215 q 347 -15 496 -15 m 347 69 q 502 163 447 69 q 557 428 557 256 q 501 690 557 593 q 347 786 446 786 q 193 690 249 786 q 138 428 138 593 q 192 163 138 256 q 347 69 247 69 m 171 1015 l 171 1093 l 524 1093 l 524 1015 l 171 1015 m 407 1131 l 171 1215 l 226 1313 l 439 1189 l 407 1131 z "},"Ǫ":{"ha":694,"x_min":38,"x_max":657,"o":"m 456 3 q 381 -78 408 -36 q 354 -157 354 -121 q 376 -208 354 -187 q 440 -235 397 -229 l 418 -301 q 305 -260 347 -292 q 263 -176 263 -228 q 356 -15 263 -93 l 347 -15 q 118 100 199 -15 q 38 428 38 215 q 119 753 38 635 q 347 871 200 871 q 576 753 494 871 q 657 428 657 635 q 606 149 657 258 q 456 3 554 40 m 138 428 q 192 163 138 256 q 347 69 247 69 q 502 163 447 69 q 557 428 557 256 q 501 690 557 593 q 347 786 446 786 q 193 690 249 786 q 138 428 138 593 z "},"Ø":{"ha":694,"x_min":38,"x_max":657,"o":"m 560 774 q 632 628 607 717 q 657 428 657 540 q 576 100 657 215 q 347 -15 496 -15 q 171 42 243 -15 l 118 -58 l 57 -31 l 122 93 q 38 428 38 207 q 119 753 38 635 q 347 871 200 871 q 511 821 439 871 l 578 947 l 636 917 l 560 774 m 138 428 q 176 194 138 285 l 465 736 q 347 786 415 786 q 193 690 249 786 q 138 428 138 593 m 347 69 q 502 163 447 69 q 557 428 557 256 q 508 676 557 583 l 217 128 q 347 69 269 69 z "},"Ǿ":{"ha":694,"x_min":38,"x_max":657,"o":"m 560 774 q 632 628 607 717 q 657 428 657 540 q 576 100 657 215 q 347 -15 496 -15 q 171 42 243 -15 l 118 -58 l 57 -31 l 122 93 q 38 428 38 207 q 119 753 38 635 q 347 871 200 871 q 511 821 439 871 l 578 947 l 636 917 l 560 774 m 138 428 q 176 194 138 285 l 465 736 q 347 786 415 786 q 193 690 249 786 q 138 428 138 593 m 347 69 q 502 163 447 69 q 557 428 557 256 q 508 676 557 583 l 217 128 q 347 69 269 69 m 246 917 l 214 975 l 425 1099 l 481 1001 l 246 917 z "},"Õ":{"ha":694,"x_min":38,"x_max":657,"o":"m 347 -15 q 118 100 199 -15 q 38 428 38 215 q 119 753 38 635 q 347 871 200 871 q 576 753 494 871 q 657 428 657 635 q 576 100 657 215 q 347 -15 496 -15 m 347 69 q 502 163 447 69 q 557 428 557 256 q 501 690 557 593 q 347 786 446 786 q 193 690 249 786 q 138 428 138 593 q 192 163 138 256 q 347 69 247 69 m 590 1060 q 531 978 560 1001 q 461 956 503 956 q 409 966 432 956 q 356 997 386 976 q 313 1022 329 1014 q 278 1031 297 1031 q 235 1016 253 1031 q 200 965 217 1001 l 132 996 q 188 1076 153 1046 q 275 1107 224 1107 q 325 1097 304 1107 q 375 1067 346 1086 q 417 1040 399 1049 q 456 1032 435 1032 q 492 1046 478 1032 q 526 1099 507 1060 l 590 1060 z "},"Ṍ":{"ha":694,"x_min":38,"x_max":657,"o":"m 347 -15 q 118 100 199 -15 q 38 428 38 215 q 119 753 38 635 q 347 871 200 871 q 576 753 494 871 q 657 428 657 635 q 576 100 657 215 q 347 -15 496 -15 m 347 69 q 502 163 447 69 q 557 428 557 256 q 501 690 557 593 q 347 786 446 786 q 193 690 249 786 q 138 428 138 593 q 192 163 138 256 q 347 69 247 69 m 590 1060 q 531 978 560 1001 q 461 956 503 956 q 409 966 432 956 q 356 997 386 976 q 313 1022 329 1014 q 278 1031 297 1031 q 235 1016 253 1031 q 200 965 217 1001 l 132 996 q 188 1076 153 1046 q 275 1107 224 1107 q 325 1097 304 1107 q 375 1067 346 1086 q 417 1040 399 1049 q 456 1032 435 1032 q 492 1046 478 1032 q 526 1099 507 1060 l 590 1060 m 246 1132 l 214 1190 l 425 1314 l 481 1217 l 246 1132 z "},"Ṏ":{"ha":694,"x_min":38,"x_max":657,"o":"m 347 -15 q 118 100 199 -15 q 38 428 38 215 q 119 753 38 635 q 347 871 200 871 q 576 753 494 871 q 657 428 657 635 q 576 100 657 215 q 347 -15 496 -15 m 347 69 q 502 163 447 69 q 557 428 557 256 q 501 690 557 593 q 347 786 446 786 q 193 690 249 786 q 138 428 138 593 q 192 163 138 256 q 347 69 247 69 m 590 1060 q 531 978 560 1001 q 461 956 503 956 q 409 966 432 956 q 356 997 386 976 q 313 1022 329 1014 q 278 1031 297 1031 q 235 1016 253 1031 q 200 965 217 1001 l 132 996 q 188 1076 153 1046 q 275 1107 224 1107 q 325 1097 304 1107 q 375 1067 346 1086 q 417 1040 399 1049 q 456 1032 435 1032 q 492 1046 478 1032 q 526 1099 507 1060 l 590 1060 m 222 1171 q 174 1192 194 1171 q 153 1240 153 1213 q 174 1290 153 1268 q 222 1311 194 1311 q 272 1290 251 1311 q 293 1240 293 1269 q 272 1192 293 1213 q 222 1171 251 1171 m 469 1171 q 422 1191 442 1171 q 401 1240 401 1211 q 422 1290 401 1269 q 469 1311 442 1311 q 519 1290 499 1311 q 540 1240 540 1269 q 519 1192 540 1213 q 469 1171 499 1171 z "},"Ȭ":{"ha":694,"x_min":38,"x_max":657,"o":"m 347 -15 q 118 100 199 -15 q 38 428 38 215 q 119 753 38 635 q 347 871 200 871 q 576 753 494 871 q 657 428 657 635 q 576 100 657 215 q 347 -15 496 -15 m 347 69 q 502 163 447 69 q 557 428 557 256 q 501 690 557 593 q 347 786 446 786 q 193 690 249 786 q 138 428 138 593 q 192 163 138 256 q 347 69 247 69 m 546 1107 q 429 1008 496 1008 q 377 1022 400 1008 q 331 1057 354 1035 q 296 1083 308 1075 q 269 1090 283 1090 q 235 1070 249 1090 q 213 1007 222 1050 l 144 1026 q 275 1160 176 1160 q 326 1147 304 1160 q 372 1113 347 1135 q 401 1090 389 1097 q 425 1082 413 1082 q 456 1095 443 1082 q 482 1140 468 1108 l 546 1107 m 164 1219 l 164 1297 l 517 1297 l 517 1219 l 164 1219 z "},"Œ":{"ha":694,"x_min":13,"x_max":672,"o":"m 239 -10 q 72 101 132 -10 q 13 433 13 211 q 72 765 13 651 q 240 878 131 878 q 351 826 306 878 l 351 867 l 672 867 l 672 781 l 438 781 l 438 496 l 636 496 l 636 407 l 438 407 l 438 86 l 669 86 l 669 0 l 350 0 l 350 43 q 239 -10 306 -10 m 249 75 q 313 104 285 75 q 350 179 340 133 l 350 674 q 238 797 306 797 q 139 714 176 797 q 101 435 101 631 q 140 169 101 264 q 249 75 178 75 z "},"P":{"ha":694,"x_min":82,"x_max":633,"o":"m 82 865 l 360 865 q 565 797 497 865 q 633 621 633 729 q 567 448 633 514 q 367 382 500 382 l 182 382 l 182 0 l 82 0 l 82 865 m 356 468 q 490 508 447 468 q 533 618 533 547 q 489 730 533 686 q 357 774 444 774 l 182 774 l 182 468 l 356 468 z "},"Þ":{"ha":694,"x_min":82,"x_max":633,"o":"m 82 865 l 190 865 q 193 861 193 863 q 188 847 193 858 q 179 826 182 836 l 179 703 l 360 703 q 562 635 496 703 q 633 458 628 568 q 564 285 628 350 q 367 219 500 219 l 179 219 l 179 0 l 82 0 l 82 865 m 367 304 q 533 456 521 304 q 485 568 528 525 q 357 611 443 611 l 179 611 l 179 304 l 367 304 z "},"Q":{"ha":694,"x_min":40,"x_max":657,"o":"m 557 -201 q 368 -163 422 -207 q 314 -10 314 -119 q 179 52 242 0 q 78 199 117 104 q 40 428 40 294 q 88 689 40 589 q 205 832 135 789 q 349 875 275 875 q 503 828 432 875 q 615 681 574 781 q 654 432 657 581 q 590 129 654 240 q 399 -10 525 18 q 424 -87 401 -61 q 501 -114 447 -114 l 614 -107 l 611 -201 l 557 -201 m 356 76 q 453 110 407 76 q 531 219 500 144 q 561 408 561 293 q 528 638 561 553 q 448 756 496 722 q 349 790 400 790 q 190 691 246 790 q 135 449 135 592 q 194 179 135 282 q 356 76 253 76 z "},"R":{"ha":694,"x_min":78,"x_max":644,"o":"m 78 865 l 333 865 q 551 800 481 865 q 621 618 621 735 q 572 474 621 542 q 444 386 522 406 l 644 0 l 536 0 l 344 382 l 176 382 l 176 0 l 78 0 l 78 865 m 344 468 q 478 508 435 468 q 521 618 521 547 q 477 731 521 688 q 344 774 433 774 l 176 774 l 176 468 l 344 468 z "},"Ŕ":{"ha":694,"x_min":78,"x_max":644,"o":"m 78 865 l 333 865 q 551 800 481 865 q 621 618 621 735 q 572 474 621 542 q 444 386 522 406 l 644 0 l 536 0 l 344 382 l 176 382 l 176 0 l 78 0 l 78 865 m 344 468 q 478 508 435 468 q 521 618 521 547 q 477 731 521 688 q 344 774 433 774 l 176 774 l 176 468 l 344 468 m 246 917 l 214 975 l 425 1099 l 481 1001 l 246 917 z "},"Ř":{"ha":694,"x_min":78,"x_max":644,"o":"m 78 865 l 333 865 q 551 800 481 865 q 621 618 621 735 q 572 474 621 542 q 444 386 522 406 l 644 0 l 536 0 l 344 382 l 176 382 l 176 0 l 78 0 l 78 865 m 344 468 q 478 508 435 468 q 521 618 521 547 q 477 731 521 688 q 344 774 433 774 l 176 774 l 176 468 l 344 468 m 326 910 l 156 1046 l 201 1099 l 344 1000 l 500 1094 l 539 1049 l 357 910 l 326 910 z "},"Ŗ":{"ha":694,"x_min":78,"x_max":644,"o":"m 78 865 l 333 865 q 551 800 481 865 q 621 618 621 735 q 572 474 621 542 q 444 386 522 406 l 644 0 l 536 0 l 344 382 l 176 382 l 176 0 l 78 0 l 78 865 m 344 468 q 478 508 435 468 q 521 618 521 547 q 477 731 521 688 q 344 774 433 774 l 176 774 l 176 468 l 344 468 m 264 -344 q 322 -275 299 -312 q 346 -214 346 -237 q 340 -195 346 -203 q 317 -172 333 -187 q 290 -144 299 -156 q 282 -117 282 -133 q 303 -65 282 -86 q 356 -43 324 -43 q 415 -73 390 -43 q 440 -147 440 -103 q 307 -382 440 -244 l 264 -344 z "},"Ȑ":{"ha":694,"x_min":78,"x_max":644,"o":"m 78 865 l 333 865 q 551 800 481 865 q 621 618 621 735 q 572 474 621 542 q 444 386 522 406 l 644 0 l 536 0 l 344 382 l 176 382 l 176 0 l 78 0 l 78 865 m 344 468 q 478 508 435 468 q 521 618 521 547 q 477 731 521 688 q 344 774 433 774 l 176 774 l 176 468 l 344 468 m 243 935 l 103 1122 l 179 1178 l 296 971 l 243 935 m 465 935 l 325 1122 l 401 1178 l 518 971 l 465 935 z "},"Ṛ":{"ha":694,"x_min":78,"x_max":644,"o":"m 78 865 l 333 865 q 551 800 481 865 q 621 618 621 735 q 572 474 621 542 q 444 386 522 406 l 644 0 l 536 0 l 344 382 l 176 382 l 176 0 l 78 0 l 78 865 m 344 468 q 478 508 435 468 q 521 618 521 547 q 477 731 521 688 q 344 774 433 774 l 176 774 l 176 468 l 344 468 m 343 -222 q 292 -201 313 -222 q 271 -151 271 -181 q 292 -101 271 -122 q 343 -79 313 -79 q 393 -101 372 -79 q 414 -151 414 -122 q 393 -201 414 -181 q 343 -222 372 -222 z "},"Ȓ":{"ha":694,"x_min":78,"x_max":644,"o":"m 78 865 l 333 865 q 551 800 481 865 q 621 618 621 735 q 572 474 621 542 q 444 386 522 406 l 644 0 l 536 0 l 344 382 l 176 382 l 176 0 l 78 0 l 78 865 m 344 468 q 478 508 435 468 q 521 618 521 547 q 477 731 521 688 q 344 774 433 774 l 176 774 l 176 468 l 344 468 m 472 964 q 419 1035 450 1013 q 347 1058 389 1058 q 275 1035 306 1058 q 222 964 244 1013 l 150 997 q 233 1092 182 1058 q 347 1125 283 1125 q 462 1092 411 1125 q 544 997 513 1058 l 472 964 z "},"Ṟ":{"ha":694,"x_min":78,"x_max":644,"o":"m 78 865 l 333 865 q 551 800 481 865 q 621 618 621 735 q 572 474 621 542 q 444 386 522 406 l 644 0 l 536 0 l 344 382 l 176 382 l 176 0 l 78 0 l 78 865 m 344 468 q 478 508 435 468 q 521 618 521 547 q 477 731 521 688 q 344 774 433 774 l 176 774 l 176 468 l 344 468 m 174 -215 l 174 -137 l 526 -137 l 526 -215 l 174 -215 z "},"S":{"ha":694,"x_min":72,"x_max":632,"o":"m 414 478 q 585 372 538 426 q 632 236 632 318 q 601 115 632 172 q 504 22 569 58 q 343 -14 439 -14 q 72 96 175 -14 l 122 183 l 122 185 q 124 184 124 185 q 124 183 124 183 q 220 103 161 133 q 357 74 279 74 q 485 117 433 74 q 536 222 536 160 q 520 290 536 263 q 463 343 504 317 q 338 406 421 369 q 155 519 210 456 q 100 663 100 583 q 171 818 100 760 q 364 876 242 876 q 497 848 435 876 q 604 768 558 819 l 550 696 l 549 694 q 462 774 507 751 q 349 796 417 796 q 241 759 282 796 q 200 669 200 722 q 217 599 200 629 q 281 541 235 569 q 414 478 326 513 m 533 692 q 539 693 533 696 q 546 690 544 690 l 542 685 l 533 690 l 533 692 m 549 694 q 552 687 557 683 q 546 690 547 690 l 549 694 m 138 189 q 132 188 138 185 q 125 190 126 190 l 128 196 l 138 190 l 138 189 m 122 185 q 125 190 114 196 l 122 185 z "},"Ś":{"ha":694,"x_min":72,"x_max":632,"o":"m 414 478 q 585 372 538 426 q 632 236 632 318 q 601 115 632 172 q 504 22 569 58 q 343 -14 439 -14 q 72 96 175 -14 l 122 183 l 122 185 q 124 184 124 185 q 124 183 124 183 q 220 103 161 133 q 357 74 279 74 q 485 117 433 74 q 536 222 536 160 q 520 290 536 263 q 463 343 504 317 q 338 406 421 369 q 155 519 210 456 q 100 663 100 583 q 171 818 100 760 q 364 876 242 876 q 497 848 435 876 q 604 768 558 819 l 550 696 l 549 694 q 462 774 507 751 q 349 796 417 796 q 241 759 282 796 q 200 669 200 722 q 217 599 200 629 q 281 541 235 569 q 414 478 326 513 m 533 692 q 539 693 533 696 q 546 690 544 690 l 542 685 l 533 690 l 533 692 m 549 694 q 552 687 557 683 q 546 690 547 690 l 549 694 m 138 189 q 132 188 138 185 q 125 190 126 190 l 128 196 l 138 190 l 138 189 m 122 185 q 125 190 114 196 l 122 185 m 261 917 l 229 975 l 440 1099 l 496 1001 l 261 917 z "},"Ṥ":{"ha":694,"x_min":72,"x_max":632,"o":"m 414 478 q 585 372 538 426 q 632 236 632 318 q 601 115 632 172 q 504 22 569 58 q 343 -14 439 -14 q 72 96 175 -14 l 122 183 l 122 185 q 124 184 124 185 q 124 183 124 183 q 220 103 161 133 q 357 74 279 74 q 485 117 433 74 q 536 222 536 160 q 520 290 536 263 q 463 343 504 317 q 338 406 421 369 q 155 519 210 456 q 100 663 100 583 q 171 818 100 760 q 364 876 242 876 q 497 848 435 876 q 604 768 558 819 l 550 696 l 549 694 q 462 774 507 751 q 349 796 417 796 q 241 759 282 796 q 200 669 200 722 q 217 599 200 629 q 281 541 235 569 q 414 478 326 513 m 533 692 q 539 693 533 696 q 546 690 544 690 l 542 685 l 533 690 l 533 692 m 549 694 q 552 687 557 683 q 546 690 547 690 l 549 694 m 138 189 q 132 188 138 185 q 125 190 126 190 l 128 196 l 138 190 l 138 189 m 122 185 q 125 190 114 196 l 122 185 m 261 917 l 229 975 l 440 1099 l 496 1001 l 261 917 m 361 1121 q 312 1142 333 1121 q 290 1192 290 1163 q 311 1242 290 1221 q 361 1263 332 1263 q 412 1242 390 1263 q 433 1192 433 1221 q 412 1142 433 1163 q 361 1121 390 1121 z "},"Š":{"ha":694,"x_min":72,"x_max":632,"o":"m 414 478 q 585 372 538 426 q 632 236 632 318 q 601 115 632 172 q 504 22 569 58 q 343 -14 439 -14 q 72 96 175 -14 l 122 183 l 122 185 q 124 184 124 185 q 124 183 124 183 q 220 103 161 133 q 357 74 279 74 q 485 117 433 74 q 536 222 536 160 q 520 290 536 263 q 463 343 504 317 q 338 406 421 369 q 155 519 210 456 q 100 663 100 583 q 171 818 100 760 q 364 876 242 876 q 497 848 435 876 q 604 768 558 819 l 550 696 l 549 694 q 462 774 507 751 q 349 796 417 796 q 241 759 282 796 q 200 669 200 722 q 217 599 200 629 q 281 541 235 569 q 414 478 326 513 m 533 692 q 539 693 533 696 q 546 690 544 690 l 542 685 l 533 690 l 533 692 m 549 694 q 552 687 557 683 q 546 690 547 690 l 549 694 m 138 189 q 132 188 138 185 q 125 190 126 190 l 128 196 l 138 190 l 138 189 m 122 185 q 125 190 114 196 l 122 185 m 342 910 l 171 1046 l 217 1099 l 360 1000 l 515 1094 l 554 1049 l 372 910 l 342 910 z "},"Ṧ":{"ha":694,"x_min":72,"x_max":632,"o":"m 414 478 q 585 372 538 426 q 632 236 632 318 q 601 115 632 172 q 504 22 569 58 q 343 -14 439 -14 q 72 96 175 -14 l 122 183 l 122 185 q 124 184 124 185 q 124 183 124 183 q 220 103 161 133 q 357 74 279 74 q 485 117 433 74 q 536 222 536 160 q 520 290 536 263 q 463 343 504 317 q 338 406 421 369 q 155 519 210 456 q 100 663 100 583 q 171 818 100 760 q 364 876 242 876 q 497 848 435 876 q 604 768 558 819 l 550 696 l 549 694 q 462 774 507 751 q 349 796 417 796 q 241 759 282 796 q 200 669 200 722 q 217 599 200 629 q 281 541 235 569 q 414 478 326 513 m 533 692 q 539 693 533 696 q 546 690 544 690 l 542 685 l 533 690 l 533 692 m 549 694 q 552 687 557 683 q 546 690 547 690 l 549 694 m 138 189 q 132 188 138 185 q 125 190 126 190 l 128 196 l 138 190 l 138 189 m 122 185 q 125 190 114 196 l 122 185 m 342 910 l 171 1046 l 217 1099 l 360 1000 l 515 1094 l 554 1049 l 372 910 l 342 910 m 361 1190 q 312 1211 333 1190 q 290 1261 290 1232 q 311 1311 290 1290 q 361 1332 332 1332 q 412 1311 390 1332 q 433 1261 433 1290 q 412 1211 433 1232 q 361 1190 390 1190 z "},"Ş":{"ha":694,"x_min":72,"x_max":632,"o":"m 632 236 q 606 125 632 178 q 524 35 579 72 q 389 -11 469 -3 l 382 -65 q 470 -97 440 -71 q 500 -156 500 -122 q 458 -240 500 -206 q 339 -274 417 -274 q 201 -231 265 -274 l 236 -172 q 357 -214 289 -214 q 426 -164 426 -214 q 408 -130 426 -142 q 356 -118 389 -118 l 314 -118 l 328 -14 q 72 96 169 -8 l 122 183 l 122 185 q 124 184 124 185 q 124 183 124 183 q 220 103 161 133 q 357 74 279 74 q 485 117 433 74 q 536 222 536 160 q 520 290 536 263 q 463 343 504 317 q 338 406 421 369 q 155 519 210 456 q 100 663 100 583 q 171 818 100 760 q 364 876 242 876 q 497 848 435 876 q 604 768 558 819 l 550 696 l 549 694 q 462 774 507 751 q 349 796 417 796 q 241 759 282 796 q 200 669 200 722 q 217 599 200 629 q 281 541 235 569 q 414 478 326 513 q 585 372 538 426 q 632 236 632 318 m 533 692 q 539 693 533 696 q 546 690 544 690 l 542 685 l 533 690 l 533 692 m 549 694 q 552 687 557 683 q 546 690 547 690 l 549 694 m 138 189 q 132 188 138 185 q 125 190 126 190 l 128 196 l 138 190 l 138 189 m 122 185 q 125 190 114 196 l 122 185 z "},"Ŝ":{"ha":694,"x_min":72,"x_max":632,"o":"m 414 478 q 585 372 538 426 q 632 236 632 318 q 601 115 632 172 q 504 22 569 58 q 343 -14 439 -14 q 72 96 175 -14 l 122 183 l 122 185 q 124 184 124 185 q 124 183 124 183 q 220 103 161 133 q 357 74 279 74 q 485 117 433 74 q 536 222 536 160 q 520 290 536 263 q 463 343 504 317 q 338 406 421 369 q 155 519 210 456 q 100 663 100 583 q 171 818 100 760 q 364 876 242 876 q 497 848 435 876 q 604 768 558 819 l 550 696 l 549 694 q 462 774 507 751 q 349 796 417 796 q 241 759 282 796 q 200 669 200 722 q 217 599 200 629 q 281 541 235 569 q 414 478 326 513 m 533 692 q 539 693 533 696 q 546 690 544 690 l 542 685 l 533 690 l 533 692 m 549 694 q 552 687 557 683 q 546 690 547 690 l 549 694 m 138 189 q 132 188 138 185 q 125 190 126 190 l 128 196 l 138 190 l 138 189 m 122 185 q 125 190 114 196 l 122 185 m 189 910 l 143 963 l 342 1099 l 372 1099 l 582 961 l 540 911 l 360 1008 l 189 910 z "},"Ș":{"ha":694,"x_min":72,"x_max":632,"o":"m 414 478 q 585 372 538 426 q 632 236 632 318 q 601 115 632 172 q 504 22 569 58 q 343 -14 439 -14 q 72 96 175 -14 l 122 183 l 122 185 q 124 184 124 185 q 124 183 124 183 q 220 103 161 133 q 357 74 279 74 q 485 117 433 74 q 536 222 536 160 q 520 290 536 263 q 463 343 504 317 q 338 406 421 369 q 155 519 210 456 q 100 663 100 583 q 171 818 100 760 q 364 876 242 876 q 497 848 435 876 q 604 768 558 819 l 550 696 l 549 694 q 462 774 507 751 q 349 796 417 796 q 241 759 282 796 q 200 669 200 722 q 217 599 200 629 q 281 541 235 569 q 414 478 326 513 m 533 692 q 539 693 533 696 q 546 690 544 690 l 542 685 l 533 690 l 533 692 m 549 694 q 552 687 557 683 q 546 690 547 690 l 549 694 m 138 189 q 132 188 138 185 q 125 190 126 190 l 128 196 l 138 190 l 138 189 m 122 185 q 125 190 114 196 l 122 185 m 260 -344 q 318 -275 294 -312 q 342 -214 342 -237 q 335 -195 342 -203 q 313 -172 329 -187 q 286 -144 294 -156 q 278 -117 278 -133 q 299 -65 278 -86 q 351 -43 319 -43 q 411 -73 386 -43 q 436 -147 436 -103 q 303 -382 436 -244 l 260 -344 z "},"Ṡ":{"ha":694,"x_min":72,"x_max":632,"o":"m 414 478 q 585 372 538 426 q 632 236 632 318 q 601 115 632 172 q 504 22 569 58 q 343 -14 439 -14 q 72 96 175 -14 l 122 183 l 122 185 q 124 184 124 185 q 124 183 124 183 q 220 103 161 133 q 357 74 279 74 q 485 117 433 74 q 536 222 536 160 q 520 290 536 263 q 463 343 504 317 q 338 406 421 369 q 155 519 210 456 q 100 663 100 583 q 171 818 100 760 q 364 876 242 876 q 497 848 435 876 q 604 768 558 819 l 550 696 l 549 694 q 462 774 507 751 q 349 796 417 796 q 241 759 282 796 q 200 669 200 722 q 217 599 200 629 q 281 541 235 569 q 414 478 326 513 m 533 692 q 539 693 533 696 q 546 690 544 690 l 542 685 l 533 690 l 533 692 m 549 694 q 552 687 557 683 q 546 690 547 690 l 549 694 m 138 189 q 132 188 138 185 q 125 190 126 190 l 128 196 l 138 190 l 138 189 m 122 185 q 125 190 114 196 l 122 185 m 361 957 q 312 978 333 957 q 290 1028 290 999 q 311 1078 290 1057 q 361 1099 332 1099 q 412 1078 390 1099 q 433 1028 433 1057 q 412 978 433 999 q 361 957 390 957 z "},"Ṣ":{"ha":694,"x_min":72,"x_max":632,"o":"m 414 478 q 585 372 538 426 q 632 236 632 318 q 601 115 632 172 q 504 22 569 58 q 343 -14 439 -14 q 72 96 175 -14 l 122 183 l 122 185 q 124 184 124 185 q 124 183 124 183 q 220 103 161 133 q 357 74 279 74 q 485 117 433 74 q 536 222 536 160 q 520 290 536 263 q 463 343 504 317 q 338 406 421 369 q 155 519 210 456 q 100 663 100 583 q 171 818 100 760 q 364 876 242 876 q 497 848 435 876 q 604 768 558 819 l 550 696 l 549 694 q 462 774 507 751 q 349 796 417 796 q 241 759 282 796 q 200 669 200 722 q 217 599 200 629 q 281 541 235 569 q 414 478 326 513 m 533 692 q 539 693 533 696 q 546 690 544 690 l 542 685 l 533 690 l 533 692 m 549 694 q 552 687 557 683 q 546 690 547 690 l 549 694 m 138 189 q 132 188 138 185 q 125 190 126 190 l 128 196 l 138 190 l 138 189 m 122 185 q 125 190 114 196 l 122 185 m 339 -222 q 288 -201 308 -222 q 267 -151 267 -181 q 288 -101 267 -122 q 339 -79 308 -79 q 389 -101 368 -79 q 410 -151 410 -122 q 389 -201 410 -181 q 339 -222 368 -222 z "},"Ṩ":{"ha":694,"x_min":72,"x_max":632,"o":"m 414 478 q 585 372 538 426 q 632 236 632 318 q 601 115 632 172 q 504 22 569 58 q 343 -14 439 -14 q 72 96 175 -14 l 122 183 l 122 185 q 124 184 124 185 q 124 183 124 183 q 220 103 161 133 q 357 74 279 74 q 485 117 433 74 q 536 222 536 160 q 520 290 536 263 q 463 343 504 317 q 338 406 421 369 q 155 519 210 456 q 100 663 100 583 q 171 818 100 760 q 364 876 242 876 q 497 848 435 876 q 604 768 558 819 l 550 696 l 549 694 q 462 774 507 751 q 349 796 417 796 q 241 759 282 796 q 200 669 200 722 q 217 599 200 629 q 281 541 235 569 q 414 478 326 513 m 533 692 q 539 693 533 696 q 546 690 544 690 l 542 685 l 533 690 l 533 692 m 549 694 q 552 687 557 683 q 546 690 547 690 l 549 694 m 138 189 q 132 188 138 185 q 125 190 126 190 l 128 196 l 138 190 l 138 189 m 122 185 q 125 190 114 196 l 122 185 m 339 -222 q 288 -201 308 -222 q 267 -151 267 -181 q 288 -101 267 -122 q 339 -79 308 -79 q 389 -101 368 -79 q 410 -151 410 -122 q 389 -201 410 -181 q 339 -222 368 -222 m 361 957 q 312 978 333 957 q 290 1028 290 999 q 311 1078 290 1057 q 361 1099 332 1099 q 412 1078 390 1099 q 433 1028 433 1057 q 412 978 433 999 q 361 957 390 957 z "},"ẞ":{"ha":694,"x_min":76,"x_max":644,"o":"m 394 525 q 580 442 515 511 q 644 251 644 374 q 574 52 644 118 q 393 -14 503 -14 q 246 29 310 -14 l 276 107 q 328 82 300 90 q 383 74 357 74 q 504 125 456 74 q 553 264 553 176 q 506 395 553 342 q 339 449 458 449 l 297 449 l 297 528 l 489 696 q 453 805 489 761 q 343 849 418 849 q 221 803 271 849 q 171 660 171 757 l 171 0 l 76 0 l 76 642 q 153 860 76 790 q 342 929 231 929 q 521 859 458 929 q 583 685 583 789 l 394 525 z "},"Ə":{"ha":694,"x_min":38,"x_max":657,"o":"m 347 -15 q 118 100 199 -15 q 38 428 38 215 q 119 753 38 635 q 347 871 200 871 q 576 753 494 871 q 657 428 657 635 q 576 100 657 215 q 347 -15 496 -15 m 347 69 q 502 163 447 69 q 557 428 557 256 q 501 690 557 593 q 347 786 446 786 q 193 690 249 786 q 138 428 138 593 q 192 163 138 256 q 347 69 247 69 z "},"T":{"ha":694,"x_min":43,"x_max":643,"o":"m 289 0 l 289 779 l 43 779 l 43 867 l 643 867 l 643 779 l 388 779 l 388 0 l 289 0 z "},"Ŧ":{"ha":694,"x_min":43,"x_max":643,"o":"m 643 779 l 388 779 l 388 472 l 572 472 l 572 393 l 388 393 l 388 0 l 289 0 l 289 393 l 122 393 l 122 472 l 289 472 l 289 779 l 43 779 l 43 867 l 643 867 l 643 779 z "},"Ť":{"ha":694,"x_min":43,"x_max":643,"o":"m 289 0 l 289 779 l 43 779 l 43 867 l 643 867 l 643 779 l 388 779 l 388 0 l 289 0 m 326 910 l 156 1046 l 201 1099 l 344 1000 l 500 1094 l 539 1049 l 357 910 l 326 910 z "},"Ţ":{"ha":694,"x_min":43,"x_max":643,"o":"m 289 0 l 289 779 l 43 779 l 43 867 l 643 867 l 643 779 l 388 779 l 388 0 l 289 0 m 343 -274 q 206 -231 269 -274 l 240 -172 q 361 -214 292 -214 q 431 -164 431 -214 q 412 -130 431 -142 q 360 -118 393 -118 l 318 -118 l 333 0 l 394 0 l 386 -65 q 474 -97 444 -71 q 504 -156 504 -122 q 463 -240 504 -206 q 343 -274 421 -274 z "},"Ț":{"ha":694,"x_min":43,"x_max":643,"o":"m 289 0 l 289 779 l 43 779 l 43 867 l 643 867 l 643 779 l 388 779 l 388 0 l 289 0 m 264 -344 q 322 -275 299 -312 q 346 -214 346 -237 q 340 -195 346 -203 q 317 -172 333 -187 q 290 -144 299 -156 q 282 -117 282 -133 q 303 -65 282 -86 q 356 -43 324 -43 q 415 -73 390 -43 q 440 -147 440 -103 q 307 -382 440 -244 l 264 -344 z "},"Ṭ":{"ha":694,"x_min":43,"x_max":643,"o":"m 289 0 l 289 779 l 43 779 l 43 867 l 643 867 l 643 779 l 388 779 l 388 0 l 289 0 m 343 -222 q 292 -201 313 -222 q 271 -151 271 -181 q 292 -101 271 -122 q 343 -79 313 -79 q 393 -101 372 -79 q 414 -151 414 -122 q 393 -201 414 -181 q 343 -222 372 -222 z "},"Ṯ":{"ha":694,"x_min":43,"x_max":643,"o":"m 289 0 l 289 779 l 43 779 l 43 867 l 643 867 l 643 779 l 388 779 l 388 0 l 289 0 m 174 -215 l 174 -137 l 526 -137 l 526 -215 l 174 -215 z "},"U":{"ha":694,"x_min":69,"x_max":631,"o":"m 349 -15 q 140 67 211 -15 q 69 299 69 149 l 69 865 l 178 865 l 178 856 q 167 838 169 847 q 165 804 165 828 l 165 297 q 208 126 165 186 q 350 67 251 67 q 494 126 450 67 q 538 301 538 186 l 538 865 l 631 865 l 631 303 q 556 64 631 143 q 349 -15 482 -15 z "},"Ú":{"ha":694,"x_min":69,"x_max":631,"o":"m 349 -15 q 140 67 211 -15 q 69 299 69 149 l 69 865 l 178 865 l 178 856 q 167 838 169 847 q 165 804 165 828 l 165 297 q 208 126 165 186 q 350 67 251 67 q 494 126 450 67 q 538 301 538 186 l 538 865 l 631 865 l 631 303 q 556 64 631 143 q 349 -15 482 -15 m 246 917 l 214 975 l 425 1099 l 481 1001 l 246 917 z "},"Ŭ":{"ha":694,"x_min":69,"x_max":631,"o":"m 349 -15 q 140 67 211 -15 q 69 299 69 149 l 69 865 l 178 865 l 178 856 q 167 838 169 847 q 165 804 165 828 l 165 297 q 208 126 165 186 q 350 67 251 67 q 494 126 450 67 q 538 301 538 186 l 538 865 l 631 865 l 631 303 q 556 64 631 143 q 349 -15 482 -15 m 544 1060 q 462 965 513 999 q 347 932 411 932 q 233 965 283 932 q 150 1060 182 999 l 222 1093 q 275 1022 244 1044 q 347 999 306 999 q 419 1022 389 999 q 472 1093 450 1044 l 544 1060 z "},"Û":{"ha":694,"x_min":69,"x_max":631,"o":"m 349 -15 q 140 67 211 -15 q 69 299 69 149 l 69 865 l 178 865 l 178 856 q 167 838 169 847 q 165 804 165 828 l 165 297 q 208 126 165 186 q 350 67 251 67 q 494 126 450 67 q 538 301 538 186 l 538 865 l 631 865 l 631 303 q 556 64 631 143 q 349 -15 482 -15 m 174 910 l 128 963 l 326 1099 l 357 1099 l 567 961 l 525 911 l 344 1008 l 174 910 z "},"Ȕ":{"ha":694,"x_min":69,"x_max":631,"o":"m 349 -15 q 140 67 211 -15 q 69 299 69 149 l 69 865 l 178 865 l 178 856 q 167 838 169 847 q 165 804 165 828 l 165 297 q 208 126 165 186 q 350 67 251 67 q 494 126 450 67 q 538 301 538 186 l 538 865 l 631 865 l 631 303 q 556 64 631 143 q 349 -15 482 -15 m 243 935 l 103 1122 l 179 1178 l 296 971 l 243 935 m 465 935 l 325 1122 l 401 1178 l 518 971 l 465 935 z "},"Ü":{"ha":694,"x_min":69,"x_max":631,"o":"m 349 -15 q 140 67 211 -15 q 69 299 69 149 l 69 865 l 178 865 l 178 856 q 167 838 169 847 q 165 804 165 828 l 165 297 q 208 126 165 186 q 350 67 251 67 q 494 126 450 67 q 538 301 538 186 l 538 865 l 631 865 l 631 303 q 556 64 631 143 q 349 -15 482 -15 m 222 956 q 174 976 194 956 q 153 1025 153 997 q 174 1074 153 1053 q 222 1096 194 1096 q 272 1075 251 1096 q 293 1025 293 1054 q 272 976 293 997 q 222 956 251 956 m 469 956 q 422 976 442 956 q 401 1025 401 996 q 422 1075 401 1054 q 469 1096 442 1096 q 519 1075 499 1096 q 540 1025 540 1054 q 519 976 540 997 q 469 956 499 956 z "},"Ụ":{"ha":694,"x_min":69,"x_max":631,"o":"m 349 -15 q 140 67 211 -15 q 69 299 69 149 l 69 865 l 178 865 l 178 856 q 167 838 169 847 q 165 804 165 828 l 165 297 q 208 126 165 186 q 350 67 251 67 q 494 126 450 67 q 538 301 538 186 l 538 865 l 631 865 l 631 303 q 556 64 631 143 q 349 -15 482 -15 m 343 -222 q 292 -201 313 -222 q 271 -151 271 -181 q 292 -101 271 -122 q 343 -79 313 -79 q 393 -101 372 -79 q 414 -151 414 -122 q 393 -201 414 -181 q 343 -222 372 -222 z "},"Ù":{"ha":694,"x_min":69,"x_max":631,"o":"m 349 -15 q 140 67 211 -15 q 69 299 69 149 l 69 865 l 178 865 l 178 856 q 167 838 169 847 q 165 804 165 828 l 165 297 q 208 126 165 186 q 350 67 251 67 q 494 126 450 67 q 538 301 538 186 l 538 865 l 631 865 l 631 303 q 556 64 631 143 q 349 -15 482 -15 m 407 917 l 171 1001 l 226 1099 l 439 975 l 407 917 z "},"Ủ":{"ha":694,"x_min":69,"x_max":631,"o":"m 349 -15 q 140 67 211 -15 q 69 299 69 149 l 69 865 l 178 865 l 178 856 q 167 838 169 847 q 165 804 165 828 l 165 297 q 208 126 165 186 q 350 67 251 67 q 494 126 450 67 q 538 301 538 186 l 538 865 l 631 865 l 631 303 q 556 64 631 143 q 349 -15 482 -15 m 465 1106 q 456 1065 465 1079 q 425 1032 446 1050 q 397 1002 406 1015 q 388 967 388 989 l 388 957 l 317 957 l 317 996 q 357 1058 317 1024 q 381 1083 374 1074 q 389 1103 389 1093 q 376 1131 389 1121 q 346 1142 364 1142 q 285 1097 299 1142 l 233 1150 q 287 1194 258 1181 q 353 1208 315 1208 q 433 1181 400 1208 q 465 1106 465 1153 z "},"Ư":{"ha":694,"x_min":63,"x_max":690,"o":"m 690 996 q 682 876 690 917 q 648 816 674 835 q 568 797 622 797 l 568 303 q 501 64 568 143 q 314 -15 433 -15 q 126 66 190 -15 q 63 299 63 147 l 63 865 l 161 865 l 161 856 q 151 838 153 847 q 149 804 149 828 l 149 297 q 188 126 149 186 q 315 67 226 67 q 444 126 406 67 q 483 301 483 186 l 483 865 l 553 865 q 591 876 579 865 q 606 912 603 886 q 610 996 610 938 l 690 996 z "},"Ứ":{"ha":694,"x_min":63,"x_max":690,"o":"m 690 996 q 682 876 690 917 q 648 816 674 835 q 568 797 622 797 l 568 303 q 501 64 568 143 q 314 -15 433 -15 q 126 66 190 -15 q 63 299 63 147 l 63 865 l 161 865 l 161 856 q 151 838 153 847 q 149 804 149 828 l 149 297 q 188 126 149 186 q 315 67 226 67 q 444 126 406 67 q 483 301 483 186 l 483 865 l 553 865 q 591 876 579 865 q 606 912 603 886 q 610 996 610 938 l 690 996 m 208 917 l 176 975 l 388 1099 l 443 1001 l 208 917 z "},"Ự":{"ha":694,"x_min":63,"x_max":690,"o":"m 690 996 q 682 876 690 917 q 648 816 674 835 q 568 797 622 797 l 568 303 q 501 64 568 143 q 314 -15 433 -15 q 126 66 190 -15 q 63 299 63 147 l 63 865 l 161 865 l 161 856 q 151 838 153 847 q 149 804 149 828 l 149 297 q 188 126 149 186 q 315 67 226 67 q 444 126 406 67 q 483 301 483 186 l 483 865 l 553 865 q 591 876 579 865 q 606 912 603 886 q 610 996 610 938 l 690 996 m 304 -222 q 253 -201 274 -222 q 232 -151 232 -181 q 253 -101 232 -122 q 304 -79 274 -79 q 354 -101 333 -79 q 375 -151 375 -122 q 354 -201 375 -181 q 304 -222 333 -222 z "},"Ừ":{"ha":694,"x_min":63,"x_max":690,"o":"m 690 996 q 682 876 690 917 q 648 816 674 835 q 568 797 622 797 l 568 303 q 501 64 568 143 q 314 -15 433 -15 q 126 66 190 -15 q 63 299 63 147 l 63 865 l 161 865 l 161 856 q 151 838 153 847 q 149 804 149 828 l 149 297 q 188 126 149 186 q 315 67 226 67 q 444 126 406 67 q 483 301 483 186 l 483 865 l 553 865 q 591 876 579 865 q 606 912 603 886 q 610 996 610 938 l 690 996 m 369 917 l 133 1001 l 189 1099 l 401 975 l 369 917 z "},"Ử":{"ha":694,"x_min":63,"x_max":690,"o":"m 690 996 q 682 876 690 917 q 648 816 674 835 q 568 797 622 797 l 568 303 q 501 64 568 143 q 314 -15 433 -15 q 126 66 190 -15 q 63 299 63 147 l 63 865 l 161 865 l 161 856 q 151 838 153 847 q 149 804 149 828 l 149 297 q 188 126 149 186 q 315 67 226 67 q 444 126 406 67 q 483 301 483 186 l 483 865 l 553 865 q 591 876 579 865 q 606 912 603 886 q 610 996 610 938 l 690 996 m 428 1106 q 418 1065 428 1079 q 388 1032 408 1050 q 359 1002 368 1015 q 350 967 350 989 l 350 957 l 279 957 l 279 996 q 319 1058 279 1024 q 344 1083 336 1074 q 351 1103 351 1093 q 339 1131 351 1121 q 308 1142 326 1142 q 247 1097 261 1142 l 196 1150 q 249 1194 221 1181 q 315 1208 278 1208 q 395 1181 363 1208 q 428 1106 428 1153 z "},"Ữ":{"ha":694,"x_min":63,"x_max":690,"o":"m 690 996 q 682 876 690 917 q 648 816 674 835 q 568 797 622 797 l 568 303 q 501 64 568 143 q 314 -15 433 -15 q 126 66 190 -15 q 63 299 63 147 l 63 865 l 161 865 l 161 856 q 151 838 153 847 q 149 804 149 828 l 149 297 q 188 126 149 186 q 315 67 226 67 q 444 126 406 67 q 483 301 483 186 l 483 865 l 553 865 q 591 876 579 865 q 606 912 603 886 q 610 996 610 938 l 690 996 m 553 1060 q 494 978 522 1001 q 424 956 465 956 q 372 966 394 956 q 318 997 349 976 q 276 1022 292 1014 q 240 1031 260 1031 q 197 1016 215 1031 q 163 965 179 1001 l 94 996 q 151 1076 115 1046 q 238 1107 186 1107 q 288 1097 267 1107 q 338 1067 308 1086 q 379 1040 361 1049 q 418 1032 397 1032 q 455 1046 440 1032 q 489 1099 469 1060 l 553 1060 z "},"Ű":{"ha":694,"x_min":69,"x_max":631,"o":"m 349 -15 q 140 67 211 -15 q 69 299 69 149 l 69 865 l 178 865 l 178 856 q 167 838 169 847 q 165 804 165 828 l 165 297 q 208 126 165 186 q 350 67 251 67 q 494 126 450 67 q 538 301 538 186 l 538 865 l 631 865 l 631 303 q 556 64 631 143 q 349 -15 482 -15 m 144 896 l 100 953 l 282 1125 l 347 1036 l 144 896 m 392 896 l 347 953 l 529 1125 l 593 1036 l 392 896 z "},"Ȗ":{"ha":694,"x_min":69,"x_max":631,"o":"m 349 -15 q 140 67 211 -15 q 69 299 69 149 l 69 865 l 178 865 l 178 856 q 167 838 169 847 q 165 804 165 828 l 165 297 q 208 126 165 186 q 350 67 251 67 q 494 126 450 67 q 538 301 538 186 l 538 865 l 631 865 l 631 303 q 556 64 631 143 q 349 -15 482 -15 m 472 964 q 419 1035 450 1013 q 347 1058 389 1058 q 275 1035 306 1058 q 222 964 244 1013 l 150 997 q 233 1092 182 1058 q 347 1125 283 1125 q 462 1092 411 1125 q 544 997 513 1058 l 472 964 z "},"Ū":{"ha":694,"x_min":69,"x_max":631,"o":"m 349 -15 q 140 67 211 -15 q 69 299 69 149 l 69 865 l 178 865 l 178 856 q 167 838 169 847 q 165 804 165 828 l 165 297 q 208 126 165 186 q 350 67 251 67 q 494 126 450 67 q 538 301 538 186 l 538 865 l 631 865 l 631 303 q 556 64 631 143 q 349 -15 482 -15 m 171 1015 l 171 1093 l 524 1093 l 524 1015 l 171 1015 z "},"Ṻ":{"ha":694,"x_min":69,"x_max":631,"o":"m 349 -15 q 140 67 211 -15 q 69 299 69 149 l 69 865 l 178 865 l 178 856 q 167 838 169 847 q 165 804 165 828 l 165 297 q 208 126 165 186 q 350 67 251 67 q 494 126 450 67 q 538 301 538 186 l 538 865 l 631 865 l 631 303 q 556 64 631 143 q 349 -15 482 -15 m 171 1015 l 171 1093 l 524 1093 l 524 1015 l 171 1015 m 222 1169 q 174 1190 194 1169 q 153 1239 153 1211 q 174 1288 153 1267 q 222 1310 194 1310 q 272 1289 251 1310 q 293 1239 293 1268 q 272 1190 293 1211 q 222 1169 251 1169 m 469 1169 q 422 1190 442 1169 q 401 1239 401 1210 q 422 1289 401 1268 q 469 1310 442 1310 q 519 1289 499 1310 q 540 1239 540 1268 q 519 1190 540 1211 q 469 1169 499 1169 z "},"Ų":{"ha":694,"x_min":69,"x_max":631,"o":"m 631 865 l 631 303 q 594 119 631 192 q 489 14 557 47 q 406 -74 436 -28 q 375 -157 375 -119 q 397 -208 375 -187 q 461 -235 418 -229 l 439 -301 q 326 -260 368 -292 q 283 -176 283 -228 q 308 -94 283 -136 q 378 -14 332 -53 q 349 -15 368 -15 q 140 67 211 -15 q 69 299 69 149 l 69 865 l 178 865 l 178 856 q 167 838 169 847 q 165 804 165 828 l 165 297 q 208 126 165 186 q 350 67 251 67 q 494 126 450 67 q 538 301 538 186 l 538 865 l 631 865 z "},"Ů":{"ha":694,"x_min":69,"x_max":631,"o":"m 349 -15 q 140 67 211 -15 q 69 299 69 149 l 69 865 l 178 865 l 178 856 q 167 838 169 847 q 165 804 165 828 l 165 297 q 208 126 165 186 q 350 67 251 67 q 494 126 450 67 q 538 301 538 186 l 538 865 l 631 865 l 631 303 q 556 64 631 143 q 349 -15 482 -15 m 347 860 q 257 896 294 860 q 219 982 219 932 q 258 1068 219 1032 q 347 1104 296 1104 q 436 1068 399 1104 q 474 981 474 1032 q 437 895 474 931 q 347 860 400 860 m 349 919 q 389 938 372 919 q 406 982 406 956 q 389 1028 406 1010 q 349 1046 372 1046 q 307 1028 324 1046 q 290 982 290 1010 q 308 938 290 956 q 349 919 325 919 z "},"Ũ":{"ha":694,"x_min":69,"x_max":631,"o":"m 349 -15 q 140 67 211 -15 q 69 299 69 149 l 69 865 l 178 865 l 178 856 q 167 838 169 847 q 165 804 165 828 l 165 297 q 208 126 165 186 q 350 67 251 67 q 494 126 450 67 q 538 301 538 186 l 538 865 l 631 865 l 631 303 q 556 64 631 143 q 349 -15 482 -15 m 590 1060 q 531 978 560 1001 q 461 956 503 956 q 409 966 432 956 q 356 997 386 976 q 313 1022 329 1014 q 278 1031 297 1031 q 235 1016 253 1031 q 200 965 217 1001 l 132 996 q 188 1076 153 1046 q 275 1107 224 1107 q 325 1097 304 1107 q 375 1067 346 1086 q 417 1040 399 1049 q 456 1032 435 1032 q 492 1046 478 1032 q 526 1099 507 1060 l 590 1060 z "},"Ṹ":{"ha":694,"x_min":69,"x_max":631,"o":"m 349 -15 q 140 67 211 -15 q 69 299 69 149 l 69 865 l 178 865 l 178 856 q 167 838 169 847 q 165 804 165 828 l 165 297 q 208 126 165 186 q 350 67 251 67 q 494 126 450 67 q 538 301 538 186 l 538 865 l 631 865 l 631 303 q 556 64 631 143 q 349 -15 482 -15 m 590 1060 q 531 978 560 1001 q 461 956 503 956 q 409 966 432 956 q 356 997 386 976 q 313 1022 329 1014 q 278 1031 297 1031 q 235 1016 253 1031 q 200 965 217 1001 l 132 996 q 188 1076 153 1046 q 275 1107 224 1107 q 325 1097 304 1107 q 375 1067 346 1086 q 417 1040 399 1049 q 456 1032 435 1032 q 492 1046 478 1032 q 526 1099 507 1060 l 590 1060 m 246 1132 l 214 1190 l 425 1314 l 481 1217 l 246 1132 z "},"V":{"ha":694,"x_min":35,"x_max":664,"o":"m 329 -6 l 35 867 l 136 867 l 358 201 l 568 865 l 664 865 l 374 -6 l 329 -6 z "},"W":{"ha":694,"x_min":24,"x_max":678,"o":"m 163 0 l 24 865 l 114 865 l 207 281 l 346 801 l 376 801 l 517 278 l 596 865 l 678 865 l 540 0 l 503 0 l 354 565 l 203 0 l 163 0 z "},"Ẃ":{"ha":694,"x_min":24,"x_max":678,"o":"m 163 0 l 24 865 l 114 865 l 207 281 l 346 801 l 376 801 l 517 278 l 596 865 l 678 865 l 540 0 l 503 0 l 354 565 l 203 0 l 163 0 m 260 917 l 228 975 l 439 1099 l 494 1001 l 260 917 z "},"Ŵ":{"ha":694,"x_min":24,"x_max":678,"o":"m 163 0 l 24 865 l 114 865 l 207 281 l 346 801 l 376 801 l 517 278 l 596 865 l 678 865 l 540 0 l 503 0 l 354 565 l 203 0 l 163 0 m 188 910 l 142 963 l 340 1099 l 371 1099 l 581 961 l 539 911 l 358 1008 l 188 910 z "},"Ẅ":{"ha":694,"x_min":24,"x_max":678,"o":"m 163 0 l 24 865 l 114 865 l 207 281 l 346 801 l 376 801 l 517 278 l 596 865 l 678 865 l 540 0 l 503 0 l 354 565 l 203 0 l 163 0 m 236 956 q 188 976 208 956 q 167 1025 167 997 q 188 1074 167 1053 q 236 1096 208 1096 q 286 1075 265 1096 q 307 1025 307 1054 q 286 976 307 997 q 236 956 265 956 m 483 956 q 435 976 456 956 q 415 1025 415 996 q 435 1075 415 1054 q 483 1096 456 1096 q 533 1075 513 1096 q 554 1025 554 1054 q 533 976 554 997 q 483 956 513 956 z "},"Ẁ":{"ha":694,"x_min":24,"x_max":678,"o":"m 163 0 l 24 865 l 114 865 l 207 281 l 346 801 l 376 801 l 517 278 l 596 865 l 678 865 l 540 0 l 503 0 l 354 565 l 203 0 l 163 0 m 421 917 l 185 1001 l 240 1099 l 453 975 l 421 917 z "},"X":{"ha":694,"x_min":57,"x_max":650,"o":"m 57 0 l 293 442 l 61 867 l 165 867 l 347 538 l 526 867 l 624 867 l 404 443 l 650 0 l 540 0 l 349 343 l 163 0 l 57 0 z "},"Y":{"ha":694,"x_min":39,"x_max":657,"o":"m 306 0 l 306 342 l 39 865 l 150 865 l 363 446 l 554 865 l 657 865 l 411 342 l 411 0 l 306 0 z "},"Ý":{"ha":694,"x_min":39,"x_max":657,"o":"m 306 0 l 306 342 l 39 865 l 150 865 l 363 446 l 554 865 l 657 865 l 411 342 l 411 0 l 306 0 m 246 917 l 214 975 l 425 1099 l 481 1001 l 246 917 z "},"Ŷ":{"ha":694,"x_min":39,"x_max":657,"o":"m 306 0 l 306 342 l 39 865 l 150 865 l 363 446 l 554 865 l 657 865 l 411 342 l 411 0 l 306 0 m 174 910 l 128 963 l 326 1099 l 357 1099 l 567 961 l 525 911 l 344 1008 l 174 910 z "},"Ÿ":{"ha":694,"x_min":39,"x_max":657,"o":"m 306 0 l 306 342 l 39 865 l 150 865 l 363 446 l 554 865 l 657 865 l 411 342 l 411 0 l 306 0 m 222 956 q 174 976 194 956 q 153 1025 153 997 q 174 1074 153 1053 q 222 1096 194 1096 q 272 1075 251 1096 q 293 1025 293 1054 q 272 976 293 997 q 222 956 251 956 m 469 956 q 422 976 442 956 q 401 1025 401 996 q 422 1075 401 1054 q 469 1096 442 1096 q 519 1075 499 1096 q 540 1025 540 1054 q 519 976 540 997 q 469 956 499 956 z "},"Ẏ":{"ha":694,"x_min":39,"x_max":657,"o":"m 306 0 l 306 342 l 39 865 l 150 865 l 363 446 l 554 865 l 657 865 l 411 342 l 411 0 l 306 0 m 346 957 q 297 978 318 957 q 275 1028 275 999 q 296 1078 275 1057 q 346 1099 317 1099 q 397 1078 375 1099 q 418 1028 418 1057 q 397 978 418 999 q 346 957 375 957 z "},"Ỵ":{"ha":694,"x_min":39,"x_max":657,"o":"m 306 0 l 306 342 l 39 865 l 150 865 l 363 446 l 554 865 l 657 865 l 411 342 l 411 0 l 306 0 m 354 -222 q 303 -201 324 -222 q 282 -151 282 -181 q 303 -101 282 -122 q 354 -79 324 -79 q 404 -101 383 -79 q 425 -151 425 -122 q 404 -201 425 -181 q 354 -222 383 -222 z "},"Ỳ":{"ha":694,"x_min":39,"x_max":657,"o":"m 306 0 l 306 342 l 39 865 l 150 865 l 363 446 l 554 865 l 657 865 l 411 342 l 411 0 l 306 0 m 407 917 l 171 1001 l 226 1099 l 439 975 l 407 917 z "},"Ỷ":{"ha":694,"x_min":39,"x_max":657,"o":"m 306 0 l 306 342 l 39 865 l 150 865 l 363 446 l 554 865 l 657 865 l 411 342 l 411 0 l 306 0 m 465 1106 q 456 1065 465 1079 q 425 1032 446 1050 q 397 1002 406 1015 q 388 967 388 989 l 388 957 l 317 957 l 317 996 q 357 1058 317 1024 q 381 1083 374 1074 q 389 1103 389 1093 q 376 1131 389 1121 q 346 1142 364 1142 q 285 1097 299 1142 l 233 1150 q 287 1194 258 1181 q 353 1208 315 1208 q 433 1181 400 1208 q 465 1106 465 1153 z "},"Ȳ":{"ha":694,"x_min":39,"x_max":657,"o":"m 306 0 l 306 342 l 39 865 l 150 865 l 363 446 l 554 865 l 657 865 l 411 342 l 411 0 l 306 0 m 171 1015 l 171 1093 l 524 1093 l 524 1015 l 171 1015 z "},"Ỹ":{"ha":694,"x_min":39,"x_max":657,"o":"m 306 0 l 306 342 l 39 865 l 150 865 l 363 446 l 554 865 l 657 865 l 411 342 l 411 0 l 306 0 m 590 1060 q 531 978 560 1001 q 461 956 503 956 q 409 966 432 956 q 356 997 386 976 q 313 1022 329 1014 q 278 1031 297 1031 q 235 1016 253 1031 q 200 965 217 1001 l 132 996 q 188 1076 153 1046 q 275 1107 224 1107 q 325 1097 304 1107 q 375 1067 346 1086 q 417 1040 399 1049 q 456 1032 435 1032 q 492 1046 478 1032 q 526 1099 507 1060 l 590 1060 z "},"Z":{"ha":694,"x_min":69,"x_max":643,"o":"m 69 68 l 506 778 l 86 778 l 86 865 l 621 865 l 621 797 l 192 86 l 582 86 q 615 89 604 86 q 633 100 625 92 l 643 100 l 643 0 l 69 0 l 69 68 z "},"Ź":{"ha":694,"x_min":69,"x_max":643,"o":"m 69 68 l 506 778 l 86 778 l 86 865 l 621 865 l 621 797 l 192 86 l 582 86 q 615 89 604 86 q 633 100 625 92 l 643 100 l 643 0 l 69 0 l 69 68 m 260 917 l 228 975 l 439 1099 l 494 1001 l 260 917 z "},"Ž":{"ha":694,"x_min":69,"x_max":643,"o":"m 69 68 l 506 778 l 86 778 l 86 865 l 621 865 l 621 797 l 192 86 l 582 86 q 615 89 604 86 q 633 100 625 92 l 643 100 l 643 0 l 69 0 l 69 68 m 340 910 l 169 1046 l 215 1099 l 358 1000 l 514 1094 l 553 1049 l 371 910 l 340 910 z "},"Ż":{"ha":694,"x_min":69,"x_max":643,"o":"m 69 68 l 506 778 l 86 778 l 86 865 l 621 865 l 621 797 l 192 86 l 582 86 q 615 89 604 86 q 633 100 625 92 l 643 100 l 643 0 l 69 0 l 69 68 m 360 957 q 310 978 332 957 q 289 1028 289 999 q 310 1078 289 1057 q 360 1099 331 1099 q 410 1078 389 1099 q 432 1028 432 1057 q 410 978 432 999 q 360 957 389 957 z "},"Ẓ":{"ha":694,"x_min":69,"x_max":643,"o":"m 69 68 l 506 778 l 86 778 l 86 865 l 621 865 l 621 797 l 192 86 l 582 86 q 615 89 604 86 q 633 100 625 92 l 643 100 l 643 0 l 69 0 l 69 68 m 371 -222 q 319 -201 340 -222 q 299 -151 299 -181 q 319 -101 299 -122 q 371 -79 340 -79 q 421 -101 400 -79 q 442 -151 442 -122 q 421 -201 442 -181 q 371 -222 400 -222 z "},"a":{"ha":694,"x_min":68,"x_max":618,"o":"m 339 649 q 547 578 475 649 q 618 338 618 507 l 618 0 l 510 0 l 510 97 q 293 -15 451 -15 q 128 33 188 -15 q 68 160 68 81 q 111 276 68 226 q 227 353 154 326 q 388 381 300 381 q 531 372 467 381 q 474 523 522 479 q 332 567 426 567 q 241 549 285 567 q 161 496 197 531 l 113 560 q 339 649 201 649 m 303 61 q 465 122 406 61 q 531 296 525 182 q 396 306 468 306 q 229 271 290 306 q 168 165 168 236 q 303 61 168 61 z "},"á":{"ha":694,"x_min":68,"x_max":618,"o":"m 339 649 q 547 578 475 649 q 618 338 618 507 l 618 0 l 510 0 l 510 97 q 293 -15 451 -15 q 128 33 188 -15 q 68 160 68 81 q 111 276 68 226 q 227 353 154 326 q 388 381 300 381 q 531 372 467 381 q 474 523 522 479 q 332 567 426 567 q 241 549 285 567 q 161 496 197 531 l 113 560 q 339 649 201 649 m 303 61 q 465 122 406 61 q 531 296 525 182 q 396 306 468 306 q 229 271 290 306 q 168 165 168 236 q 303 61 168 61 m 338 704 l 285 740 l 401 947 l 478 892 l 338 704 z "},"ă":{"ha":694,"x_min":68,"x_max":618,"o":"m 339 649 q 547 578 475 649 q 618 338 618 507 l 618 0 l 510 0 l 510 97 q 293 -15 451 -15 q 128 33 188 -15 q 68 160 68 81 q 111 276 68 226 q 227 353 154 326 q 388 381 300 381 q 531 372 467 381 q 474 523 522 479 q 332 567 426 567 q 241 549 285 567 q 161 496 197 531 l 113 560 q 339 649 201 649 m 303 61 q 465 122 406 61 q 531 296 525 182 q 396 306 468 306 q 229 271 290 306 q 168 165 168 236 q 303 61 168 61 m 544 875 q 462 781 513 814 q 347 747 411 747 q 233 781 283 747 q 150 875 182 814 l 222 908 q 275 837 244 860 q 347 814 306 814 q 419 837 389 814 q 472 908 450 860 l 544 875 z "},"ắ":{"ha":694,"x_min":68,"x_max":618,"o":"m 339 649 q 547 578 475 649 q 618 338 618 507 l 618 0 l 510 0 l 510 97 q 293 -15 451 -15 q 128 33 188 -15 q 68 160 68 81 q 111 276 68 226 q 227 353 154 326 q 388 381 300 381 q 531 372 467 381 q 474 523 522 479 q 332 567 426 567 q 241 549 285 567 q 161 496 197 531 l 113 560 q 339 649 201 649 m 303 61 q 465 122 406 61 q 531 296 525 182 q 396 306 468 306 q 229 271 290 306 q 168 165 168 236 q 303 61 168 61 m 544 875 q 462 781 513 814 q 347 747 411 747 q 233 781 283 747 q 150 875 182 814 l 222 908 q 275 837 244 860 q 347 814 306 814 q 419 837 389 814 q 472 908 450 860 l 544 875 m 353 886 l 300 922 l 417 1129 l 493 1074 l 353 886 z "},"ặ":{"ha":694,"x_min":68,"x_max":618,"o":"m 339 649 q 547 578 475 649 q 618 338 618 507 l 618 0 l 510 0 l 510 97 q 293 -15 451 -15 q 128 33 188 -15 q 68 160 68 81 q 111 276 68 226 q 227 353 154 326 q 388 381 300 381 q 531 372 467 381 q 474 523 522 479 q 332 567 426 567 q 241 549 285 567 q 161 496 197 531 l 113 560 q 339 649 201 649 m 303 61 q 465 122 406 61 q 531 296 525 182 q 396 306 468 306 q 229 271 290 306 q 168 165 168 236 q 303 61 168 61 m 343 -222 q 292 -201 313 -222 q 271 -151 271 -181 q 292 -101 271 -122 q 343 -79 313 -79 q 393 -101 372 -79 q 414 -151 414 -122 q 393 -201 414 -181 q 343 -222 372 -222 m 544 875 q 462 781 513 814 q 347 747 411 747 q 233 781 283 747 q 150 875 182 814 l 222 908 q 275 837 244 860 q 347 814 306 814 q 419 837 389 814 q 472 908 450 860 l 544 875 z "},"ằ":{"ha":694,"x_min":68,"x_max":618,"o":"m 339 649 q 547 578 475 649 q 618 338 618 507 l 618 0 l 510 0 l 510 97 q 293 -15 451 -15 q 128 33 188 -15 q 68 160 68 81 q 111 276 68 226 q 227 353 154 326 q 388 381 300 381 q 531 372 467 381 q 474 523 522 479 q 332 567 426 567 q 241 549 285 567 q 161 496 197 531 l 113 560 q 339 649 201 649 m 303 61 q 465 122 406 61 q 531 296 525 182 q 396 306 468 306 q 229 271 290 306 q 168 165 168 236 q 303 61 168 61 m 544 875 q 462 781 513 814 q 347 747 411 747 q 233 781 283 747 q 150 875 182 814 l 222 908 q 275 837 244 860 q 347 814 306 814 q 419 837 389 814 q 472 908 450 860 l 544 875 m 354 886 l 214 1074 l 290 1129 l 407 922 l 354 886 z "},"ẳ":{"ha":694,"x_min":68,"x_max":618,"o":"m 339 649 q 547 578 475 649 q 618 338 618 507 l 618 0 l 510 0 l 510 97 q 293 -15 451 -15 q 128 33 188 -15 q 68 160 68 81 q 111 276 68 226 q 227 353 154 326 q 388 381 300 381 q 531 372 467 381 q 474 523 522 479 q 332 567 426 567 q 241 549 285 567 q 161 496 197 531 l 113 560 q 339 649 201 649 m 303 61 q 465 122 406 61 q 531 296 525 182 q 396 306 468 306 q 229 271 290 306 q 168 165 168 236 q 303 61 168 61 m 544 875 q 462 781 513 814 q 347 747 411 747 q 233 781 283 747 q 150 875 182 814 l 222 908 q 275 837 244 860 q 347 814 306 814 q 419 837 389 814 q 472 908 450 860 l 544 875 m 457 1051 q 447 1010 457 1025 q 417 978 438 996 q 388 948 397 961 q 379 913 379 935 l 379 903 l 308 903 l 308 942 q 349 1004 308 969 q 373 1029 365 1019 q 381 1049 381 1039 q 368 1077 381 1067 q 338 1088 356 1088 q 276 1043 290 1088 l 225 1096 q 278 1140 250 1126 q 344 1154 307 1154 q 424 1126 392 1154 q 457 1051 457 1099 z "},"ẵ":{"ha":694,"x_min":68,"x_max":618,"o":"m 339 649 q 547 578 475 649 q 618 338 618 507 l 618 0 l 510 0 l 510 97 q 293 -15 451 -15 q 128 33 188 -15 q 68 160 68 81 q 111 276 68 226 q 227 353 154 326 q 388 381 300 381 q 531 372 467 381 q 474 523 522 479 q 332 567 426 567 q 241 549 285 567 q 161 496 197 531 l 113 560 q 339 649 201 649 m 303 61 q 465 122 406 61 q 531 296 525 182 q 396 306 468 306 q 229 271 290 306 q 168 165 168 236 q 303 61 168 61 m 539 875 q 456 781 507 814 q 342 747 406 747 q 227 781 278 747 q 144 875 176 814 l 217 908 q 269 837 239 860 q 342 814 300 814 q 414 837 383 814 q 467 908 444 860 l 539 875 m 542 1042 q 425 943 492 943 q 373 956 396 943 q 326 992 350 969 q 292 1017 304 1010 q 265 1025 279 1025 q 231 1005 244 1025 q 208 942 218 985 l 140 961 q 271 1094 172 1094 q 322 1082 300 1094 q 368 1047 343 1069 q 397 1024 385 1032 q 421 1017 408 1017 q 451 1030 439 1017 q 478 1075 464 1043 l 542 1042 z "},"â":{"ha":694,"x_min":68,"x_max":618,"o":"m 339 649 q 547 578 475 649 q 618 338 618 507 l 618 0 l 510 0 l 510 97 q 293 -15 451 -15 q 128 33 188 -15 q 68 160 68 81 q 111 276 68 226 q 227 353 154 326 q 388 381 300 381 q 531 372 467 381 q 474 523 522 479 q 332 567 426 567 q 241 549 285 567 q 161 496 197 531 l 113 560 q 339 649 201 649 m 303 61 q 465 122 406 61 q 531 296 525 182 q 396 306 468 306 q 229 271 290 306 q 168 165 168 236 q 303 61 168 61 m 193 710 l 138 757 l 331 951 l 364 951 l 557 757 l 501 710 l 347 863 l 193 710 z "},"ấ":{"ha":694,"x_min":68,"x_max":675,"o":"m 339 649 q 547 578 475 649 q 618 338 618 507 l 618 0 l 510 0 l 510 97 q 293 -15 451 -15 q 128 33 188 -15 q 68 160 68 81 q 111 276 68 226 q 227 353 154 326 q 388 381 300 381 q 531 372 467 381 q 474 523 522 479 q 332 567 426 567 q 241 549 285 567 q 161 496 197 531 l 113 560 q 339 649 201 649 m 303 61 q 465 122 406 61 q 531 296 525 182 q 396 306 468 306 q 229 271 290 306 q 168 165 168 236 q 303 61 168 61 m 193 710 l 138 757 l 331 951 l 364 951 l 557 757 l 501 710 l 347 863 l 193 710 m 535 876 l 482 913 l 599 1119 l 675 1064 l 535 876 z "},"ậ":{"ha":694,"x_min":68,"x_max":618,"o":"m 339 649 q 547 578 475 649 q 618 338 618 507 l 618 0 l 510 0 l 510 97 q 293 -15 451 -15 q 128 33 188 -15 q 68 160 68 81 q 111 276 68 226 q 227 353 154 326 q 388 381 300 381 q 531 372 467 381 q 474 523 522 479 q 332 567 426 567 q 241 549 285 567 q 161 496 197 531 l 113 560 q 339 649 201 649 m 303 61 q 465 122 406 61 q 531 296 525 182 q 396 306 468 306 q 229 271 290 306 q 168 165 168 236 q 303 61 168 61 m 343 -222 q 292 -201 313 -222 q 271 -151 271 -181 q 292 -101 271 -122 q 343 -79 313 -79 q 393 -101 372 -79 q 414 -151 414 -122 q 393 -201 414 -181 q 343 -222 372 -222 m 193 710 l 138 757 l 331 951 l 364 951 l 557 757 l 501 710 l 347 863 l 193 710 z "},"ầ":{"ha":694,"x_min":68,"x_max":618,"o":"m 339 649 q 547 578 475 649 q 618 338 618 507 l 618 0 l 510 0 l 510 97 q 293 -15 451 -15 q 128 33 188 -15 q 68 160 68 81 q 111 276 68 226 q 227 353 154 326 q 388 381 300 381 q 531 372 467 381 q 474 523 522 479 q 332 567 426 567 q 241 549 285 567 q 161 496 197 531 l 113 560 q 339 649 201 649 m 303 61 q 465 122 406 61 q 531 296 525 182 q 396 306 468 306 q 229 271 290 306 q 168 165 168 236 q 303 61 168 61 m 196 710 l 140 757 l 333 951 l 367 951 l 560 757 l 504 710 l 350 863 l 196 710 m 526 906 l 386 1093 l 463 1149 l 579 942 l 526 906 z "},"ẩ":{"ha":694,"x_min":68,"x_max":633,"o":"m 339 649 q 547 578 475 649 q 618 338 618 507 l 618 0 l 510 0 l 510 97 q 293 -15 451 -15 q 128 33 188 -15 q 68 160 68 81 q 111 276 68 226 q 227 353 154 326 q 388 381 300 381 q 531 372 467 381 q 474 523 522 479 q 332 567 426 567 q 241 549 285 567 q 161 496 197 531 l 113 560 q 339 649 201 649 m 303 61 q 465 122 406 61 q 531 296 525 182 q 396 306 468 306 q 229 271 290 306 q 168 165 168 236 q 303 61 168 61 m 194 710 l 139 757 l 332 951 l 365 951 l 558 757 l 503 710 l 349 863 l 194 710 m 633 1014 q 624 973 633 988 q 593 940 614 958 q 565 910 574 924 q 556 875 556 897 l 556 865 l 485 865 l 485 904 q 525 967 485 932 q 549 992 542 982 q 557 1011 557 1001 q 544 1040 557 1029 q 514 1050 532 1050 q 453 1006 467 1050 l 401 1058 q 455 1103 426 1089 q 521 1117 483 1117 q 601 1089 568 1117 q 633 1014 633 1061 z "},"ẫ":{"ha":694,"x_min":68,"x_max":618,"o":"m 339 649 q 547 578 475 649 q 618 338 618 507 l 618 0 l 510 0 l 510 97 q 293 -15 451 -15 q 128 33 188 -15 q 68 160 68 81 q 111 276 68 226 q 227 353 154 326 q 388 381 300 381 q 531 372 467 381 q 474 523 522 479 q 332 567 426 567 q 241 549 285 567 q 161 496 197 531 l 113 560 q 339 649 201 649 m 303 61 q 465 122 406 61 q 531 296 525 182 q 396 306 468 306 q 229 271 290 306 q 168 165 168 236 q 303 61 168 61 m 194 710 l 139 757 l 332 951 l 365 951 l 558 757 l 503 710 l 349 863 l 194 710 m 549 1072 q 432 974 499 974 q 380 987 403 974 q 333 1022 357 1000 q 299 1048 311 1040 q 272 1056 286 1056 q 238 1035 251 1056 q 215 972 225 1015 l 147 992 q 278 1125 179 1125 q 328 1113 307 1125 q 375 1078 350 1100 q 403 1055 392 1063 q 428 1047 415 1047 q 458 1060 446 1047 q 485 1106 471 1074 l 549 1072 z "},"ȁ":{"ha":694,"x_min":68,"x_max":618,"o":"m 339 649 q 547 578 475 649 q 618 338 618 507 l 618 0 l 510 0 l 510 97 q 293 -15 451 -15 q 128 33 188 -15 q 68 160 68 81 q 111 276 68 226 q 227 353 154 326 q 388 381 300 381 q 531 372 467 381 q 474 523 522 479 q 332 567 426 567 q 241 549 285 567 q 161 496 197 531 l 113 560 q 339 649 201 649 m 303 61 q 465 122 406 61 q 531 296 525 182 q 396 306 468 306 q 229 271 290 306 q 168 165 168 236 q 303 61 168 61 m 243 704 l 103 892 l 179 947 l 296 740 l 243 704 m 465 704 l 325 892 l 401 947 l 518 740 l 465 704 z "},"ä":{"ha":694,"x_min":68,"x_max":618,"o":"m 339 649 q 547 578 475 649 q 618 338 618 507 l 618 0 l 510 0 l 510 97 q 293 -15 451 -15 q 128 33 188 -15 q 68 160 68 81 q 111 276 68 226 q 227 353 154 326 q 388 381 300 381 q 531 372 467 381 q 474 523 522 479 q 332 567 426 567 q 241 549 285 567 q 161 496 197 531 l 113 560 q 339 649 201 649 m 303 61 q 465 122 406 61 q 531 296 525 182 q 396 306 468 306 q 229 271 290 306 q 168 165 168 236 q 303 61 168 61 m 225 783 q 175 804 196 783 q 154 853 154 825 q 175 902 154 881 q 225 924 196 924 q 274 903 253 924 q 294 853 294 882 q 274 804 294 825 q 225 783 253 783 m 472 783 q 423 803 443 783 q 403 853 403 824 q 423 903 403 882 q 472 924 443 924 q 521 903 500 924 q 542 853 542 882 q 521 804 542 825 q 472 783 500 783 z "},"ạ":{"ha":694,"x_min":68,"x_max":618,"o":"m 339 649 q 547 578 475 649 q 618 338 618 507 l 618 0 l 510 0 l 510 97 q 293 -15 451 -15 q 128 33 188 -15 q 68 160 68 81 q 111 276 68 226 q 227 353 154 326 q 388 381 300 381 q 531 372 467 381 q 474 523 522 479 q 332 567 426 567 q 241 549 285 567 q 161 496 197 531 l 113 560 q 339 649 201 649 m 303 61 q 465 122 406 61 q 531 296 525 182 q 396 306 468 306 q 229 271 290 306 q 168 165 168 236 q 303 61 168 61 m 343 -222 q 292 -201 313 -222 q 271 -151 271 -181 q 292 -101 271 -122 q 343 -79 313 -79 q 393 -101 372 -79 q 414 -151 414 -122 q 393 -201 414 -181 q 343 -222 372 -222 z "},"à":{"ha":694,"x_min":68,"x_max":618,"o":"m 339 649 q 547 578 475 649 q 618 338 618 507 l 618 0 l 510 0 l 510 97 q 293 -15 451 -15 q 128 33 188 -15 q 68 160 68 81 q 111 276 68 226 q 227 353 154 326 q 388 381 300 381 q 531 372 467 381 q 474 523 522 479 q 332 567 426 567 q 241 549 285 567 q 161 496 197 531 l 113 560 q 339 649 201 649 m 303 61 q 465 122 406 61 q 531 296 525 182 q 396 306 468 306 q 229 271 290 306 q 168 165 168 236 q 303 61 168 61 m 339 704 l 199 892 l 275 947 l 392 740 l 339 704 z "},"ả":{"ha":694,"x_min":68,"x_max":618,"o":"m 339 649 q 547 578 475 649 q 618 338 618 507 l 618 0 l 510 0 l 510 97 q 293 -15 451 -15 q 128 33 188 -15 q 68 160 68 81 q 111 276 68 226 q 227 353 154 326 q 388 381 300 381 q 531 372 467 381 q 474 523 522 479 q 332 567 426 567 q 241 549 285 567 q 161 496 197 531 l 113 560 q 339 649 201 649 m 303 61 q 465 122 406 61 q 531 296 525 182 q 396 306 468 306 q 229 271 290 306 q 168 165 168 236 q 303 61 168 61 m 465 875 q 456 834 465 849 q 425 801 446 819 q 397 772 406 785 q 388 736 388 758 l 388 726 l 317 726 l 317 765 q 357 828 317 793 q 381 853 374 843 q 389 872 389 863 q 376 901 389 890 q 346 911 364 911 q 285 867 299 911 l 233 919 q 287 964 258 950 q 353 978 315 978 q 433 950 400 978 q 465 875 465 922 z "},"ȃ":{"ha":694,"x_min":68,"x_max":618,"o":"m 339 649 q 547 578 475 649 q 618 338 618 507 l 618 0 l 510 0 l 510 97 q 293 -15 451 -15 q 128 33 188 -15 q 68 160 68 81 q 111 276 68 226 q 227 353 154 326 q 388 381 300 381 q 531 372 467 381 q 474 523 522 479 q 332 567 426 567 q 241 549 285 567 q 161 496 197 531 l 113 560 q 339 649 201 649 m 303 61 q 465 122 406 61 q 531 296 525 182 q 396 306 468 306 q 229 271 290 306 q 168 165 168 236 q 303 61 168 61 m 472 733 q 419 805 450 782 q 347 828 389 828 q 275 805 306 828 q 222 733 244 782 l 150 767 q 233 861 182 828 q 347 894 283 894 q 462 861 411 894 q 544 767 513 828 l 472 733 z "},"ā":{"ha":694,"x_min":68,"x_max":618,"o":"m 339 649 q 547 578 475 649 q 618 338 618 507 l 618 0 l 510 0 l 510 97 q 293 -15 451 -15 q 128 33 188 -15 q 68 160 68 81 q 111 276 68 226 q 227 353 154 326 q 388 381 300 381 q 531 372 467 381 q 474 523 522 479 q 332 567 426 567 q 241 549 285 567 q 161 496 197 531 l 113 560 q 339 649 201 649 m 303 61 q 465 122 406 61 q 531 296 525 182 q 396 306 468 306 q 229 271 290 306 q 168 165 168 236 q 303 61 168 61 m 171 785 l 171 863 l 524 863 l 524 785 l 171 785 z "},"ą":{"ha":694,"x_min":68,"x_max":618,"o":"m 586 0 q 469 -142 469 -104 q 481 -169 469 -158 q 508 -181 492 -181 q 589 -149 549 -181 l 589 -212 q 496 -244 549 -244 q 413 -221 442 -244 q 383 -160 383 -197 q 494 0 383 -90 l 510 0 l 510 97 q 293 -15 451 -15 q 128 33 188 -15 q 68 160 68 81 q 111 276 68 226 q 227 353 154 326 q 388 381 300 381 q 531 372 467 381 q 474 523 522 479 q 332 567 426 567 q 241 549 285 567 q 161 496 197 531 l 113 560 q 339 649 201 649 q 547 578 475 649 q 618 338 618 507 l 618 0 l 586 0 m 303 61 q 465 122 406 61 q 531 296 525 182 q 396 306 468 306 q 229 271 290 306 q 168 165 168 236 q 303 61 168 61 z "},"å":{"ha":694,"x_min":68,"x_max":618,"o":"m 339 649 q 547 578 475 649 q 618 338 618 507 l 618 0 l 510 0 l 510 97 q 293 -15 451 -15 q 128 33 188 -15 q 68 160 68 81 q 111 276 68 226 q 227 353 154 326 q 388 381 300 381 q 531 372 467 381 q 474 523 522 479 q 332 567 426 567 q 241 549 285 567 q 161 496 197 531 l 113 560 q 339 649 201 649 m 303 61 q 465 122 406 61 q 531 296 525 182 q 396 306 468 306 q 229 271 290 306 q 168 165 168 236 q 303 61 168 61 m 346 718 q 258 754 296 718 q 219 840 219 790 q 258 926 219 890 q 346 963 296 963 q 436 927 399 963 q 474 840 474 892 q 435 754 474 790 q 346 718 397 718 m 347 778 q 388 797 371 778 q 406 842 406 815 q 388 887 406 868 q 347 906 371 906 q 307 887 324 906 q 290 842 290 868 q 307 797 290 815 q 347 778 324 778 z "},"ǻ":{"ha":694,"x_min":68,"x_max":618,"o":"m 339 649 q 547 578 475 649 q 618 338 618 507 l 618 0 l 510 0 l 510 97 q 293 -15 451 -15 q 128 33 188 -15 q 68 160 68 81 q 111 276 68 226 q 227 353 154 326 q 388 381 300 381 q 531 372 467 381 q 474 523 522 479 q 332 567 426 567 q 241 549 285 567 q 161 496 197 531 l 113 560 q 339 649 201 649 m 303 61 q 465 122 406 61 q 531 296 525 182 q 396 306 468 306 q 229 271 290 306 q 168 165 168 236 q 303 61 168 61 m 346 718 q 258 754 296 718 q 219 840 219 790 q 258 926 219 890 q 346 963 296 963 q 436 927 399 963 q 474 840 474 892 q 435 754 474 790 q 346 718 397 718 m 347 778 q 388 797 371 778 q 406 842 406 815 q 388 887 406 868 q 347 906 371 906 q 307 887 324 906 q 290 842 290 868 q 307 797 290 815 q 347 778 324 778 m 338 1032 l 285 1068 l 401 1275 l 478 1219 l 338 1032 z "},"ã":{"ha":694,"x_min":68,"x_max":618,"o":"m 339 649 q 547 578 475 649 q 618 338 618 507 l 618 0 l 510 0 l 510 97 q 293 -15 451 -15 q 128 33 188 -15 q 68 160 68 81 q 111 276 68 226 q 227 353 154 326 q 388 381 300 381 q 531 372 467 381 q 474 523 522 479 q 332 567 426 567 q 241 549 285 567 q 161 496 197 531 l 113 560 q 339 649 201 649 m 303 61 q 465 122 406 61 q 531 296 525 182 q 396 306 468 306 q 229 271 290 306 q 168 165 168 236 q 303 61 168 61 m 585 901 q 526 820 554 843 q 456 797 497 797 q 403 808 426 797 q 350 839 381 818 q 308 864 324 856 q 272 872 292 872 q 229 858 247 872 q 194 807 211 843 l 126 838 q 183 918 147 888 q 269 949 218 949 q 319 938 299 949 q 369 908 340 928 q 411 882 393 890 q 450 874 429 874 q 487 888 472 874 q 521 940 501 901 l 585 901 z "},"æ":{"ha":694,"x_min":14,"x_max":686,"o":"m 197 -15 q 59 36 104 -15 q 14 171 14 88 q 88 327 14 272 q 307 388 161 382 q 281 526 307 481 q 197 571 254 571 q 92 511 135 571 l 43 572 q 204 649 103 649 q 295 626 254 649 q 358 563 336 603 q 422 626 382 603 q 503 649 461 649 q 681 372 681 649 l 681 319 l 392 310 l 392 243 q 431 114 392 163 q 536 65 469 65 q 638 117 600 65 l 686 58 q 528 -15 625 -15 q 428 10 475 -15 q 354 81 382 36 q 289 10 331 36 q 197 -15 247 -15 m 600 394 q 577 527 600 483 q 503 571 554 571 q 421 523 450 571 q 392 388 392 475 l 600 394 m 200 69 q 287 128 267 69 q 307 304 307 188 q 148 270 193 299 q 103 169 103 242 q 126 92 103 114 q 200 69 150 69 z "},"ǽ":{"ha":694,"x_min":14,"x_max":686,"o":"m 197 -15 q 59 36 104 -15 q 14 171 14 88 q 88 327 14 272 q 307 388 161 382 q 281 526 307 481 q 197 571 254 571 q 92 511 135 571 l 43 572 q 204 649 103 649 q 295 626 254 649 q 358 563 336 603 q 422 626 382 603 q 503 649 461 649 q 681 372 681 649 l 681 319 l 392 310 l 392 243 q 431 114 392 163 q 536 65 469 65 q 638 117 600 65 l 686 58 q 528 -15 625 -15 q 428 10 475 -15 q 354 81 382 36 q 289 10 331 36 q 197 -15 247 -15 m 600 394 q 577 527 600 483 q 503 571 554 571 q 421 523 450 571 q 392 388 392 475 l 600 394 m 200 69 q 287 128 267 69 q 307 304 307 188 q 148 270 193 299 q 103 169 103 242 q 126 92 103 114 q 200 69 150 69 m 353 704 l 300 740 l 417 947 l 493 892 l 353 704 z "},"b":{"ha":694,"x_min":83,"x_max":635,"o":"m 369 -15 q 264 10 313 -15 q 182 83 215 36 l 147 0 l 83 0 l 83 924 l 197 924 l 197 914 q 187 896 189 906 q 185 863 185 886 l 185 538 q 267 619 215 589 q 374 650 319 650 q 564 567 493 650 q 635 324 635 483 q 597 138 635 215 q 499 23 560 61 q 369 -15 438 -15 m 357 74 q 482 133 432 74 q 532 318 532 192 q 485 502 532 440 q 360 564 439 564 q 233 494 282 564 q 185 315 185 425 q 357 74 185 74 z "},"ʘ":{"ha":694,"x_min":38,"x_max":657,"o":"m 347 -15 q 118 100 199 -15 q 38 428 38 215 q 119 753 38 635 q 347 871 200 871 q 576 753 494 871 q 657 428 657 635 q 576 100 657 215 q 347 -15 496 -15 m 347 69 q 502 163 447 69 q 557 428 557 256 q 501 690 557 593 q 347 786 446 786 q 193 690 249 786 q 138 428 138 593 q 192 163 138 256 q 347 69 247 69 m 350 372 q 307 390 325 372 q 289 433 289 408 q 306 478 289 460 q 350 496 324 496 q 394 477 376 496 q 413 433 413 458 q 394 390 413 408 q 350 372 376 372 z "},"c":{"ha":694,"x_min":78,"x_max":635,"o":"m 401 75 q 567 153 497 75 l 625 85 q 396 -15 532 -15 q 232 28 304 -15 q 119 147 160 71 q 78 317 78 222 q 119 486 78 411 q 232 604 160 561 q 394 647 304 647 q 533 616 471 647 q 635 529 596 585 l 572 468 l 571 467 q 488 541 531 519 q 383 563 446 563 q 283 533 329 563 q 208 449 236 503 q 181 324 181 394 q 209 196 181 253 q 288 107 238 139 q 401 75 339 75 m 556 465 q 568 464 556 474 l 563 458 l 556 465 m 571 467 q 574 460 578 457 q 568 464 571 463 l 571 467 z "},"ć":{"ha":694,"x_min":78,"x_max":635,"o":"m 401 75 q 567 153 497 75 l 625 85 q 396 -15 532 -15 q 232 28 304 -15 q 119 147 160 71 q 78 317 78 222 q 119 486 78 411 q 232 604 160 561 q 394 647 304 647 q 533 616 471 647 q 635 529 596 585 l 572 468 l 571 467 q 488 541 531 519 q 383 563 446 563 q 283 533 329 563 q 208 449 236 503 q 181 324 181 394 q 209 196 181 253 q 288 107 238 139 q 401 75 339 75 m 556 465 q 568 464 556 474 l 563 458 l 556 465 m 571 467 q 574 460 578 457 q 568 464 571 463 l 571 467 m 388 704 l 335 740 l 451 947 l 528 892 l 388 704 z "},"č":{"ha":694,"x_min":78,"x_max":635,"o":"m 401 75 q 567 153 497 75 l 625 85 q 396 -15 532 -15 q 232 28 304 -15 q 119 147 160 71 q 78 317 78 222 q 119 486 78 411 q 232 604 160 561 q 394 647 304 647 q 533 616 471 647 q 635 529 596 585 l 572 468 l 571 467 q 488 541 531 519 q 383 563 446 563 q 283 533 329 563 q 208 449 236 503 q 181 324 181 394 q 209 196 181 253 q 288 107 238 139 q 401 75 339 75 m 556 465 q 568 464 556 474 l 563 458 l 556 465 m 571 467 q 574 460 578 457 q 568 464 571 463 l 571 467 m 242 956 l 396 803 l 550 956 l 606 908 l 413 714 l 379 714 l 186 908 l 242 956 z "},"ç":{"ha":694,"x_min":78,"x_max":635,"o":"m 401 75 q 567 153 497 75 l 625 85 q 443 -12 546 1 l 436 -65 q 524 -97 494 -71 q 554 -156 554 -122 q 513 -240 554 -206 q 393 -274 471 -274 q 256 -231 319 -274 l 290 -172 q 411 -214 343 -214 q 481 -164 481 -214 q 462 -130 481 -142 q 410 -118 443 -118 l 368 -118 l 382 -15 q 225 32 294 -12 q 117 151 156 76 q 78 317 78 225 q 119 486 78 411 q 232 604 160 561 q 394 647 304 647 q 533 616 471 647 q 635 529 596 585 l 572 468 l 571 467 q 488 541 531 519 q 383 563 446 563 q 283 533 329 563 q 208 449 236 503 q 181 324 181 394 q 209 196 181 253 q 288 107 238 139 q 401 75 339 75 m 556 465 q 568 464 556 474 l 563 458 l 556 465 m 571 467 q 574 460 578 457 q 568 464 571 463 l 571 467 z "},"ḉ":{"ha":694,"x_min":78,"x_max":635,"o":"m 528 892 l 388 704 l 335 740 l 451 947 l 528 892 m 401 75 q 567 153 497 75 l 625 85 q 443 -12 546 1 l 436 -65 q 524 -97 494 -71 q 554 -156 554 -122 q 513 -240 554 -206 q 393 -274 471 -274 q 256 -231 319 -274 l 290 -172 q 411 -214 343 -214 q 481 -164 481 -214 q 462 -130 481 -142 q 410 -118 443 -118 l 368 -118 l 382 -15 q 225 32 294 -12 q 117 151 156 76 q 78 317 78 225 q 119 486 78 411 q 232 604 160 561 q 394 647 304 647 q 533 616 471 647 q 635 529 596 585 l 572 468 l 571 467 q 488 541 531 519 q 383 563 446 563 q 283 533 329 563 q 208 449 236 503 q 181 324 181 394 q 209 196 181 253 q 288 107 238 139 q 401 75 339 75 m 556 465 q 568 464 556 474 l 563 458 l 556 465 m 571 467 q 574 460 578 457 q 568 464 571 463 l 571 467 z "},"ĉ":{"ha":694,"x_min":78,"x_max":635,"o":"m 401 75 q 567 153 497 75 l 625 85 q 396 -15 532 -15 q 232 28 304 -15 q 119 147 160 71 q 78 317 78 222 q 119 486 78 411 q 232 604 160 561 q 394 647 304 647 q 533 616 471 647 q 635 529 596 585 l 572 468 l 571 467 q 488 541 531 519 q 383 563 446 563 q 283 533 329 563 q 208 449 236 503 q 181 324 181 394 q 209 196 181 253 q 288 107 238 139 q 401 75 339 75 m 556 465 q 568 464 556 474 l 563 458 l 556 465 m 571 467 q 574 460 578 457 q 568 464 571 463 l 571 467 m 243 710 l 188 757 l 381 951 l 414 951 l 607 757 l 551 710 l 397 863 l 243 710 z "},"ċ":{"ha":694,"x_min":78,"x_max":635,"o":"m 401 75 q 567 153 497 75 l 625 85 q 396 -15 532 -15 q 232 28 304 -15 q 119 147 160 71 q 78 317 78 222 q 119 486 78 411 q 232 604 160 561 q 394 647 304 647 q 533 616 471 647 q 635 529 596 585 l 572 468 l 571 467 q 488 541 531 519 q 383 563 446 563 q 283 533 329 563 q 208 449 236 503 q 181 324 181 394 q 209 196 181 253 q 288 107 238 139 q 401 75 339 75 m 556 465 q 568 464 556 474 l 563 458 l 556 465 m 571 467 q 574 460 578 457 q 568 464 571 463 l 571 467 m 396 768 q 346 789 367 768 q 325 839 325 810 q 345 890 325 869 q 396 911 365 911 q 447 890 425 911 q 468 839 468 868 q 447 789 468 810 q 396 768 425 768 z "},"d":{"ha":694,"x_min":63,"x_max":624,"o":"m 325 -14 q 197 24 257 -14 q 100 139 138 63 q 63 324 63 215 q 101 507 63 433 q 201 616 140 581 q 331 651 263 651 q 442 622 394 651 q 515 542 490 593 l 515 924 l 621 924 l 621 914 q 610 896 613 906 q 608 863 608 886 l 610 99 q 612 44 610 65 q 624 0 614 22 l 525 0 q 513 44 515 22 q 511 99 511 65 q 433 16 481 46 q 325 -14 385 -14 m 340 74 q 467 142 426 74 q 507 321 507 210 q 463 501 507 433 q 332 569 419 569 q 204 508 249 569 q 160 339 160 446 q 206 145 160 217 q 340 74 253 74 z "},"ð":{"ha":694,"x_min":56,"x_max":639,"o":"m 356 -17 q 206 26 275 -17 q 97 143 138 68 q 56 310 56 218 q 96 478 56 400 q 201 602 136 556 q 336 649 265 649 q 513 576 444 649 q 393 767 467 686 l 215 717 l 190 783 l 335 822 q 193 911 268 878 l 306 933 q 426 847 372 896 l 576 888 l 600 826 l 482 792 q 639 351 639 614 q 565 83 639 182 q 356 -17 490 -17 m 356 69 q 485 133 432 69 q 538 322 538 197 q 482 505 538 446 q 351 564 426 564 q 261 536 304 564 q 190 453 218 508 q 163 322 163 399 q 188 191 163 249 q 258 101 214 133 q 356 69 303 69 z "},"ď":{"ha":694,"x_min":35,"x_max":664,"o":"m 251 -14 q 142 24 192 -14 q 64 138 93 61 q 35 324 35 214 q 67 507 35 433 q 151 616 100 581 q 260 651 203 651 q 347 622 310 651 q 404 542 385 593 l 404 924 l 511 924 q 504 901 511 915 q 497 878 497 888 l 499 60 q 506 0 499 28 l 406 0 q 400 47 400 15 l 400 101 q 335 17 376 49 q 251 -14 293 -14 m 613 924 q 649 910 635 924 q 664 874 664 896 q 657 843 664 861 l 586 671 l 528 693 l 547 754 q 556 824 556 782 l 556 868 q 572 909 556 894 q 613 924 588 924 m 271 74 q 362 144 328 74 q 396 321 396 215 q 364 501 396 433 q 275 569 332 569 q 168 508 204 569 q 132 339 132 447 q 168 145 132 217 q 271 74 204 74 z "},"đ":{"ha":694,"x_min":63,"x_max":694,"o":"m 694 722 l 608 722 l 610 99 q 612 44 610 65 q 624 0 614 22 l 525 0 q 513 44 515 22 q 511 99 511 65 q 433 16 481 46 q 325 -14 385 -14 q 197 24 257 -14 q 100 139 138 63 q 63 324 63 215 q 101 507 63 433 q 201 616 140 581 q 331 651 263 651 q 442 622 394 651 q 515 542 490 593 l 515 722 l 319 722 l 319 801 l 515 801 l 515 924 l 621 924 l 621 914 q 610 896 613 906 q 608 863 608 886 l 608 801 l 694 801 l 694 722 m 340 74 q 467 142 426 74 q 507 321 507 210 q 463 501 507 433 q 332 569 419 569 q 204 508 249 569 q 160 339 160 446 q 206 145 160 217 q 340 74 253 74 z "},"ḍ":{"ha":694,"x_min":63,"x_max":624,"o":"m 325 -14 q 197 24 257 -14 q 100 139 138 63 q 63 324 63 215 q 101 507 63 433 q 201 616 140 581 q 331 651 263 651 q 442 622 394 651 q 515 542 490 593 l 515 924 l 621 924 l 621 914 q 610 896 613 906 q 608 863 608 886 l 610 99 q 612 44 610 65 q 624 0 614 22 l 525 0 q 513 44 515 22 q 511 99 511 65 q 433 16 481 46 q 325 -14 385 -14 m 340 74 q 467 142 426 74 q 507 321 507 210 q 463 501 507 433 q 332 569 419 569 q 204 508 249 569 q 160 339 160 446 q 206 145 160 217 q 340 74 253 74 m 343 -222 q 292 -201 313 -222 q 271 -151 271 -181 q 292 -101 271 -122 q 343 -79 313 -79 q 393 -101 372 -79 q 414 -151 414 -122 q 393 -201 414 -181 q 343 -222 372 -222 z "},"ḏ":{"ha":694,"x_min":63,"x_max":624,"o":"m 325 -14 q 197 24 257 -14 q 100 139 138 63 q 63 324 63 215 q 101 507 63 433 q 201 616 140 581 q 331 651 263 651 q 442 622 394 651 q 515 542 490 593 l 515 924 l 621 924 l 621 914 q 610 896 613 906 q 608 863 608 886 l 610 99 q 612 44 610 65 q 624 0 614 22 l 525 0 q 513 44 515 22 q 511 99 511 65 q 433 16 481 46 q 325 -14 385 -14 m 340 74 q 467 142 426 74 q 507 321 507 210 q 463 501 507 433 q 332 569 419 569 q 204 508 249 569 q 160 339 160 446 q 206 145 160 217 q 340 74 253 74 m 174 -215 l 174 -137 l 526 -137 l 526 -215 l 174 -215 z "},"e":{"ha":694,"x_min":68,"x_max":618,"o":"m 378 -14 q 152 72 236 -14 q 68 315 68 158 q 107 495 68 419 q 212 610 146 571 q 360 650 278 650 q 547 574 475 650 q 618 349 618 497 q 615 303 618 333 l 164 303 q 229 126 169 186 q 381 67 289 67 q 544 138 481 67 l 600 83 q 378 -14 519 -14 m 517 381 q 472 522 517 469 q 353 574 426 574 q 232 525 283 574 q 168 381 181 476 l 517 381 z "},"é":{"ha":694,"x_min":68,"x_max":618,"o":"m 378 -14 q 152 72 236 -14 q 68 315 68 158 q 107 495 68 419 q 212 610 146 571 q 360 650 278 650 q 547 574 475 650 q 618 349 618 497 q 615 303 618 333 l 164 303 q 229 126 169 186 q 381 67 289 67 q 544 138 481 67 l 600 83 q 378 -14 519 -14 m 517 381 q 472 522 517 469 q 353 574 426 574 q 232 525 283 574 q 168 381 181 476 l 517 381 m 351 704 l 299 740 l 415 947 l 492 892 l 351 704 z "},"ĕ":{"ha":694,"x_min":68,"x_max":618,"o":"m 378 -14 q 152 72 236 -14 q 68 315 68 158 q 107 495 68 419 q 212 610 146 571 q 360 650 278 650 q 547 574 475 650 q 618 349 618 497 q 615 303 618 333 l 164 303 q 229 126 169 186 q 381 67 289 67 q 544 138 481 67 l 600 83 q 378 -14 519 -14 m 517 381 q 472 522 517 469 q 353 574 426 574 q 232 525 283 574 q 168 381 181 476 l 517 381 m 558 875 q 476 781 526 814 q 361 747 425 747 q 247 781 297 747 q 164 875 196 814 l 236 908 q 289 837 258 860 q 361 814 319 814 q 433 837 403 814 q 486 908 464 860 l 558 875 z "},"ě":{"ha":694,"x_min":68,"x_max":618,"o":"m 378 -14 q 152 72 236 -14 q 68 315 68 158 q 107 495 68 419 q 212 610 146 571 q 360 650 278 650 q 547 574 475 650 q 618 349 618 497 q 615 303 618 333 l 164 303 q 229 126 169 186 q 381 67 289 67 q 544 138 481 67 l 600 83 q 378 -14 519 -14 m 517 381 q 472 522 517 469 q 353 574 426 574 q 232 525 283 574 q 168 381 181 476 l 517 381 m 206 956 l 360 803 l 514 956 l 569 908 l 376 714 l 343 714 l 150 908 l 206 956 z "},"ḝ":{"ha":694,"x_min":68,"x_max":618,"o":"m 361 747 q 247 781 297 747 q 164 875 196 814 l 236 908 q 289 837 258 860 q 361 814 319 814 q 433 837 403 814 q 486 908 464 860 l 558 875 q 476 781 526 814 q 361 747 425 747 m 618 349 q 615 303 618 333 l 164 303 q 229 126 169 186 q 381 67 289 67 q 544 138 481 67 l 600 83 q 435 -10 536 7 l 428 -65 q 516 -97 486 -71 q 546 -156 546 -122 q 504 -240 546 -206 q 385 -274 463 -274 q 247 -231 311 -274 l 282 -172 q 403 -214 335 -214 q 472 -164 472 -214 q 453 -130 472 -142 q 401 -118 435 -118 l 360 -118 l 374 -14 q 151 74 233 -12 q 68 315 68 160 q 107 495 68 419 q 212 610 146 571 q 360 650 278 650 q 547 574 475 650 q 618 349 618 497 m 517 381 q 472 522 517 469 q 353 574 426 574 q 232 525 283 574 q 168 381 181 476 l 517 381 z "},"ê":{"ha":694,"x_min":68,"x_max":618,"o":"m 378 -14 q 152 72 236 -14 q 68 315 68 158 q 107 495 68 419 q 212 610 146 571 q 360 650 278 650 q 547 574 475 650 q 618 349 618 497 q 615 303 618 333 l 164 303 q 229 126 169 186 q 381 67 289 67 q 544 138 481 67 l 600 83 q 378 -14 519 -14 m 517 381 q 472 522 517 469 q 353 574 426 574 q 232 525 283 574 q 168 381 181 476 l 517 381 m 207 710 l 151 757 l 344 951 l 378 951 l 571 757 l 515 710 l 361 863 l 207 710 z "},"ế":{"ha":694,"x_min":68,"x_max":689,"o":"m 378 -14 q 152 72 236 -14 q 68 315 68 158 q 107 495 68 419 q 212 610 146 571 q 360 650 278 650 q 547 574 475 650 q 618 349 618 497 q 615 303 618 333 l 164 303 q 229 126 169 186 q 381 67 289 67 q 544 138 481 67 l 600 83 q 378 -14 519 -14 m 517 381 q 472 522 517 469 q 353 574 426 574 q 232 525 283 574 q 168 381 181 476 l 517 381 m 207 710 l 151 757 l 344 951 l 378 951 l 571 757 l 515 710 l 361 863 l 207 710 m 549 876 l 496 913 l 613 1119 l 689 1064 l 549 876 z "},"ệ":{"ha":694,"x_min":68,"x_max":618,"o":"m 378 -14 q 152 72 236 -14 q 68 315 68 158 q 107 495 68 419 q 212 610 146 571 q 360 650 278 650 q 547 574 475 650 q 618 349 618 497 q 615 303 618 333 l 164 303 q 229 126 169 186 q 381 67 289 67 q 544 138 481 67 l 600 83 q 378 -14 519 -14 m 517 381 q 472 522 517 469 q 353 574 426 574 q 232 525 283 574 q 168 381 181 476 l 517 381 m 385 -222 q 333 -201 354 -222 q 313 -151 313 -181 q 333 -101 313 -122 q 385 -79 354 -79 q 435 -101 414 -79 q 456 -151 456 -122 q 435 -201 456 -181 q 385 -222 414 -222 m 207 710 l 151 757 l 344 951 l 378 951 l 571 757 l 515 710 l 361 863 l 207 710 z "},"ề":{"ha":694,"x_min":68,"x_max":618,"o":"m 378 -14 q 152 72 236 -14 q 68 315 68 158 q 107 495 68 419 q 212 610 146 571 q 360 650 278 650 q 547 574 475 650 q 618 349 618 497 q 615 303 618 333 l 164 303 q 229 126 169 186 q 381 67 289 67 q 544 138 481 67 l 600 83 q 378 -14 519 -14 m 517 381 q 472 522 517 469 q 353 574 426 574 q 232 525 283 574 q 168 381 181 476 l 517 381 m 210 710 l 154 757 l 347 951 l 381 951 l 574 757 l 518 710 l 364 863 l 210 710 m 540 906 l 400 1093 l 476 1149 l 593 942 l 540 906 z "},"ể":{"ha":694,"x_min":68,"x_max":647,"o":"m 378 -14 q 152 72 236 -14 q 68 315 68 158 q 107 495 68 419 q 212 610 146 571 q 360 650 278 650 q 547 574 475 650 q 618 349 618 497 q 615 303 618 333 l 164 303 q 229 126 169 186 q 381 67 289 67 q 544 138 481 67 l 600 83 q 378 -14 519 -14 m 517 381 q 472 522 517 469 q 353 574 426 574 q 232 525 283 574 q 168 381 181 476 l 517 381 m 208 710 l 153 757 l 346 951 l 379 951 l 572 757 l 517 710 l 363 863 l 208 710 m 647 1014 q 638 973 647 988 q 607 940 628 958 q 578 910 588 924 q 569 875 569 897 l 569 865 l 499 865 l 499 904 q 539 967 499 932 q 563 992 556 982 q 571 1011 571 1001 q 558 1040 571 1029 q 528 1050 546 1050 q 467 1006 481 1050 l 415 1058 q 469 1103 440 1089 q 535 1117 497 1117 q 615 1089 582 1117 q 647 1014 647 1061 z "},"ễ":{"ha":694,"x_min":68,"x_max":618,"o":"m 378 -14 q 152 72 236 -14 q 68 315 68 158 q 107 495 68 419 q 212 610 146 571 q 360 650 278 650 q 547 574 475 650 q 618 349 618 497 q 615 303 618 333 l 164 303 q 229 126 169 186 q 381 67 289 67 q 544 138 481 67 l 600 83 q 378 -14 519 -14 m 517 381 q 472 522 517 469 q 353 574 426 574 q 232 525 283 574 q 168 381 181 476 l 517 381 m 208 710 l 153 757 l 346 951 l 379 951 l 572 757 l 517 710 l 363 863 l 208 710 m 563 1072 q 446 974 513 974 q 394 987 417 974 q 347 1022 371 1000 q 313 1048 325 1040 q 286 1056 300 1056 q 252 1035 265 1056 q 229 972 239 1015 l 161 992 q 292 1125 193 1125 q 342 1113 321 1125 q 389 1078 364 1100 q 417 1055 406 1063 q 442 1047 429 1047 q 472 1060 460 1047 q 499 1106 485 1074 l 563 1072 z "},"ȅ":{"ha":694,"x_min":68,"x_max":618,"o":"m 378 -14 q 152 72 236 -14 q 68 315 68 158 q 107 495 68 419 q 212 610 146 571 q 360 650 278 650 q 547 574 475 650 q 618 349 618 497 q 615 303 618 333 l 164 303 q 229 126 169 186 q 381 67 289 67 q 544 138 481 67 l 600 83 q 378 -14 519 -14 m 517 381 q 472 522 517 469 q 353 574 426 574 q 232 525 283 574 q 168 381 181 476 l 517 381 m 257 704 l 117 892 l 193 947 l 310 740 l 257 704 m 479 704 l 339 892 l 415 947 l 532 740 l 479 704 z "},"ë":{"ha":694,"x_min":68,"x_max":618,"o":"m 378 -14 q 152 72 236 -14 q 68 315 68 158 q 107 495 68 419 q 212 610 146 571 q 360 650 278 650 q 547 574 475 650 q 618 349 618 497 q 615 303 618 333 l 164 303 q 229 126 169 186 q 381 67 289 67 q 544 138 481 67 l 600 83 q 378 -14 519 -14 m 517 381 q 472 522 517 469 q 353 574 426 574 q 232 525 283 574 q 168 381 181 476 l 517 381 m 239 783 q 189 804 210 783 q 168 853 168 825 q 189 902 168 881 q 239 924 210 924 q 288 903 267 924 q 308 853 308 882 q 288 804 308 825 q 239 783 267 783 m 486 783 q 437 803 457 783 q 417 853 417 824 q 437 903 417 882 q 486 924 457 924 q 535 903 514 924 q 556 853 556 882 q 535 804 556 825 q 486 783 514 783 z "},"ė":{"ha":694,"x_min":68,"x_max":618,"o":"m 378 -14 q 152 72 236 -14 q 68 315 68 158 q 107 495 68 419 q 212 610 146 571 q 360 650 278 650 q 547 574 475 650 q 618 349 618 497 q 615 303 618 333 l 164 303 q 229 126 169 186 q 381 67 289 67 q 544 138 481 67 l 600 83 q 378 -14 519 -14 m 517 381 q 472 522 517 469 q 353 574 426 574 q 232 525 283 574 q 168 381 181 476 l 517 381 m 360 768 q 310 789 331 768 q 289 839 289 810 q 309 890 289 869 q 360 911 329 911 q 410 890 389 911 q 432 839 432 868 q 410 789 432 810 q 360 768 389 768 z "},"ẹ":{"ha":694,"x_min":68,"x_max":618,"o":"m 378 -14 q 152 72 236 -14 q 68 315 68 158 q 107 495 68 419 q 212 610 146 571 q 360 650 278 650 q 547 574 475 650 q 618 349 618 497 q 615 303 618 333 l 164 303 q 229 126 169 186 q 381 67 289 67 q 544 138 481 67 l 600 83 q 378 -14 519 -14 m 517 381 q 472 522 517 469 q 353 574 426 574 q 232 525 283 574 q 168 381 181 476 l 517 381 m 385 -222 q 333 -201 354 -222 q 313 -151 313 -181 q 333 -101 313 -122 q 385 -79 354 -79 q 435 -101 414 -79 q 456 -151 456 -122 q 435 -201 456 -181 q 385 -222 414 -222 z "},"è":{"ha":694,"x_min":68,"x_max":618,"o":"m 378 -14 q 152 72 236 -14 q 68 315 68 158 q 107 495 68 419 q 212 610 146 571 q 360 650 278 650 q 547 574 475 650 q 618 349 618 497 q 615 303 618 333 l 164 303 q 229 126 169 186 q 381 67 289 67 q 544 138 481 67 l 600 83 q 378 -14 519 -14 m 517 381 q 472 522 517 469 q 353 574 426 574 q 232 525 283 574 q 168 381 181 476 l 517 381 m 353 704 l 213 892 l 289 947 l 406 740 l 353 704 z "},"ẻ":{"ha":694,"x_min":68,"x_max":618,"o":"m 378 -14 q 152 72 236 -14 q 68 315 68 158 q 107 495 68 419 q 212 610 146 571 q 360 650 278 650 q 547 574 475 650 q 618 349 618 497 q 615 303 618 333 l 164 303 q 229 126 169 186 q 381 67 289 67 q 544 138 481 67 l 600 83 q 378 -14 519 -14 m 517 381 q 472 522 517 469 q 353 574 426 574 q 232 525 283 574 q 168 381 181 476 l 517 381 m 479 875 q 469 834 479 849 q 439 801 460 819 q 410 772 419 785 q 401 736 401 758 l 401 726 l 331 726 l 331 765 q 371 828 331 793 q 395 853 388 843 q 403 872 403 863 q 390 901 403 890 q 360 911 378 911 q 299 867 313 911 l 247 919 q 301 964 272 950 q 367 978 329 978 q 447 950 414 978 q 479 875 479 922 z "},"ȇ":{"ha":694,"x_min":68,"x_max":618,"o":"m 378 -14 q 152 72 236 -14 q 68 315 68 158 q 107 495 68 419 q 212 610 146 571 q 360 650 278 650 q 547 574 475 650 q 618 349 618 497 q 615 303 618 333 l 164 303 q 229 126 169 186 q 381 67 289 67 q 544 138 481 67 l 600 83 q 378 -14 519 -14 m 517 381 q 472 522 517 469 q 353 574 426 574 q 232 525 283 574 q 168 381 181 476 l 517 381 m 486 733 q 433 805 464 782 q 361 828 403 828 q 289 805 319 828 q 236 733 258 782 l 164 767 q 247 861 196 828 q 361 894 297 894 q 476 861 425 894 q 558 767 526 828 l 486 733 z "},"ē":{"ha":694,"x_min":68,"x_max":618,"o":"m 378 -14 q 152 72 236 -14 q 68 315 68 158 q 107 495 68 419 q 212 610 146 571 q 360 650 278 650 q 547 574 475 650 q 618 349 618 497 q 615 303 618 333 l 164 303 q 229 126 169 186 q 381 67 289 67 q 544 138 481 67 l 600 83 q 378 -14 519 -14 m 517 381 q 472 522 517 469 q 353 574 426 574 q 232 525 283 574 q 168 381 181 476 l 517 381 m 185 785 l 185 863 l 538 863 l 538 785 l 185 785 z "},"ḗ":{"ha":694,"x_min":68,"x_max":618,"o":"m 378 -14 q 152 72 236 -14 q 68 315 68 158 q 107 495 68 419 q 212 610 146 571 q 360 650 278 650 q 547 574 475 650 q 618 349 618 497 q 615 303 618 333 l 164 303 q 229 126 169 186 q 381 67 289 67 q 544 138 481 67 l 600 83 q 378 -14 519 -14 m 517 381 q 472 522 517 469 q 353 574 426 574 q 232 525 283 574 q 168 381 181 476 l 517 381 m 185 785 l 185 863 l 538 863 l 538 785 l 185 785 m 351 918 l 299 954 l 415 1161 l 492 1106 l 351 918 z "},"ḕ":{"ha":694,"x_min":68,"x_max":618,"o":"m 378 -14 q 152 72 236 -14 q 68 315 68 158 q 107 495 68 419 q 212 610 146 571 q 360 650 278 650 q 547 574 475 650 q 618 349 618 497 q 615 303 618 333 l 164 303 q 229 126 169 186 q 381 67 289 67 q 544 138 481 67 l 600 83 q 378 -14 519 -14 m 517 381 q 472 522 517 469 q 353 574 426 574 q 232 525 283 574 q 168 381 181 476 l 517 381 m 185 785 l 185 863 l 538 863 l 538 785 l 185 785 m 353 918 l 213 1106 l 289 1161 l 406 954 l 353 918 z "},"ę":{"ha":694,"x_min":68,"x_max":618,"o":"m 378 -14 q 152 72 236 -14 q 68 315 68 158 q 107 495 68 419 q 212 610 146 571 q 360 650 278 650 q 547 574 475 650 q 618 349 618 497 q 615 303 618 333 l 164 303 q 229 126 169 186 q 381 67 289 67 q 544 138 481 67 l 600 83 q 378 -14 519 -14 m 517 381 q 472 522 517 469 q 353 574 426 574 q 232 525 283 574 q 168 381 181 476 l 517 381 m 496 -244 q 413 -221 442 -244 q 383 -160 383 -197 q 494 0 383 -90 l 586 0 q 469 -142 469 -104 q 481 -169 469 -158 q 508 -181 492 -181 q 589 -149 549 -181 l 589 -212 q 496 -244 549 -244 z "},"ʚ":{"ha":694,"x_min":76,"x_max":643,"o":"m 344 -11 q 206 17 267 -11 q 110 92 144 44 q 76 199 76 140 q 109 297 76 257 q 199 350 142 338 q 115 478 115 397 q 147 565 115 526 q 232 626 178 604 q 353 649 286 649 q 505 606 439 649 q 607 489 571 564 q 643 318 643 414 q 606 148 643 222 q 501 31 568 74 q 344 -11 433 -11 m 342 72 q 485 138 432 72 q 538 319 538 203 q 486 497 538 429 q 349 565 435 565 q 254 540 286 565 q 222 471 222 514 q 349 385 222 385 q 382 386 371 385 l 382 293 q 358 296 372 294 q 332 297 343 297 q 225 270 265 297 q 185 190 185 243 q 229 105 185 138 q 342 72 274 72 z "},"ẽ":{"ha":694,"x_min":68,"x_max":618,"o":"m 378 -14 q 152 72 236 -14 q 68 315 68 158 q 107 495 68 419 q 212 610 146 571 q 360 650 278 650 q 547 574 475 650 q 618 349 618 497 q 615 303 618 333 l 164 303 q 229 126 169 186 q 381 67 289 67 q 544 138 481 67 l 600 83 q 378 -14 519 -14 m 517 381 q 472 522 517 469 q 353 574 426 574 q 232 525 283 574 q 168 381 181 476 l 517 381 m 599 901 q 540 820 568 843 q 469 797 511 797 q 417 808 440 797 q 364 839 394 818 q 322 864 338 856 q 286 872 306 872 q 243 858 261 872 q 208 807 225 843 l 140 838 q 197 918 161 888 q 283 949 232 949 q 333 938 313 949 q 383 908 354 928 q 425 882 407 890 q 464 874 443 874 q 501 888 486 874 q 535 940 515 901 l 599 901 z "},"ə":{"ha":694,"x_min":76,"x_max":626,"o":"m 317 649 q 542 563 458 649 q 626 319 626 476 q 588 140 626 215 q 483 24 549 64 q 335 -15 417 -15 q 148 61 219 -15 q 76 286 76 138 q 79 332 76 301 l 531 332 q 465 508 525 449 q 314 568 406 568 q 150 497 215 568 l 94 551 q 317 649 175 649 m 178 254 q 223 113 178 165 q 342 61 268 61 q 463 110 411 61 q 526 254 514 158 l 178 254 z "},"ƹ":{"ha":694,"x_min":126,"x_max":624,"o":"m 624 -147 q 400 -246 533 -246 q 251 -211 313 -246 q 158 -119 189 -176 q 126 8 126 -61 q 160 144 126 82 q 256 245 194 207 q 394 286 317 283 l 150 547 l 150 635 l 574 635 l 574 547 l 258 547 l 497 286 l 497 214 q 298 172 369 221 q 226 15 226 124 q 275 -114 226 -65 q 410 -162 324 -162 q 526 -119 489 -162 q 560 -75 560 -79 q 555 -75 560 -74 q 549 -71 550 -76 l 554 -64 l 565 -72 l 624 -147 z "},"f":{"ha":694,"x_min":88,"x_max":657,"o":"m 604 771 l 603 769 q 537 835 564 818 q 461 851 510 851 q 358 813 396 851 q 321 688 321 774 l 321 635 l 529 635 l 529 556 l 321 556 l 321 0 l 225 0 l 225 556 l 88 556 l 88 635 l 225 635 l 225 688 q 288 871 225 810 q 458 932 351 932 q 572 910 519 932 q 657 844 624 888 l 604 771 m 588 767 q 593 768 588 771 q 600 765 599 765 l 596 760 l 588 765 l 588 767 m 603 769 q 606 762 611 758 q 600 765 601 765 l 603 769 z "},"g":{"ha":694,"x_min":53,"x_max":660,"o":"m 660 569 q 624 571 647 571 q 513 542 557 571 q 536 438 536 494 q 509 324 536 375 q 431 244 482 274 q 314 215 381 215 q 215 235 261 215 q 190 176 190 204 q 233 128 190 143 q 385 114 275 114 q 569 73 519 114 q 618 -47 618 32 q 551 -184 618 -129 q 343 -239 485 -239 q 130 -197 207 -239 q 53 -75 53 -156 q 81 11 53 -25 q 151 68 108 47 q 106 153 106 99 q 163 269 106 208 q 110 343 128 300 q 92 438 92 386 q 119 549 92 499 q 197 629 146 600 q 314 658 247 658 q 476 593 415 658 q 545 638 510 624 q 624 653 581 653 l 647 651 l 660 569 m 314 299 q 413 339 374 299 q 453 438 453 379 q 413 536 453 496 q 314 576 374 576 q 215 536 254 576 q 175 438 175 496 q 215 339 175 379 q 314 299 254 299 m 526 -62 q 515 -10 526 -29 q 468 17 503 8 q 364 26 433 26 q 204 44 264 26 q 158 -1 171 22 q 144 -64 144 -25 q 197 -137 144 -111 q 344 -164 250 -164 q 481 -137 436 -164 q 526 -62 526 -110 z "},"ğ":{"ha":694,"x_min":53,"x_max":660,"o":"m 660 569 q 624 571 647 571 q 513 542 557 571 q 536 438 536 494 q 509 324 536 375 q 431 244 482 274 q 314 215 381 215 q 215 235 261 215 q 190 176 190 204 q 233 128 190 143 q 385 114 275 114 q 569 73 519 114 q 618 -47 618 32 q 551 -184 618 -129 q 343 -239 485 -239 q 130 -197 207 -239 q 53 -75 53 -156 q 81 11 53 -25 q 151 68 108 47 q 106 153 106 99 q 163 269 106 208 q 110 343 128 300 q 92 438 92 386 q 119 549 92 499 q 197 629 146 600 q 314 658 247 658 q 476 593 415 658 q 545 638 510 624 q 624 653 581 653 l 647 651 l 660 569 m 314 299 q 413 339 374 299 q 453 438 453 379 q 413 536 453 496 q 314 576 374 576 q 215 536 254 576 q 175 438 175 496 q 215 339 175 379 q 314 299 254 299 m 526 -62 q 515 -10 526 -29 q 468 17 503 8 q 364 26 433 26 q 204 44 264 26 q 158 -1 171 22 q 144 -64 144 -25 q 197 -137 144 -111 q 344 -164 250 -164 q 481 -137 436 -164 q 526 -62 526 -110 m 361 728 q 153 835 243 728 l 203 897 q 272 827 231 854 q 360 800 313 800 q 525 897 449 800 l 564 839 q 472 758 525 788 q 361 728 418 728 z "},"ǧ":{"ha":694,"x_min":53,"x_max":660,"o":"m 660 569 q 624 571 647 571 q 513 542 557 571 q 536 438 536 494 q 509 324 536 375 q 431 244 482 274 q 314 215 381 215 q 215 235 261 215 q 190 176 190 204 q 233 128 190 143 q 385 114 275 114 q 569 73 519 114 q 618 -47 618 32 q 551 -184 618 -129 q 343 -239 485 -239 q 130 -197 207 -239 q 53 -75 53 -156 q 81 11 53 -25 q 151 68 108 47 q 106 153 106 99 q 163 269 106 208 q 110 343 128 300 q 92 438 92 386 q 119 549 92 499 q 197 629 146 600 q 314 658 247 658 q 476 593 415 658 q 545 638 510 624 q 624 653 581 653 l 647 651 l 660 569 m 314 299 q 413 339 374 299 q 453 438 453 379 q 413 536 453 496 q 314 576 374 576 q 215 536 254 576 q 175 438 175 496 q 215 339 175 379 q 314 299 254 299 m 526 -62 q 515 -10 526 -29 q 468 17 503 8 q 364 26 433 26 q 204 44 264 26 q 158 -1 171 22 q 144 -64 144 -25 q 197 -137 144 -111 q 344 -164 250 -164 q 481 -137 436 -164 q 526 -62 526 -110 m 158 956 l 313 803 l 467 956 l 522 908 l 329 714 l 296 714 l 103 908 l 158 956 z "},"ĝ":{"ha":694,"x_min":53,"x_max":660,"o":"m 660 569 q 624 571 647 571 q 513 542 557 571 q 536 438 536 494 q 509 324 536 375 q 431 244 482 274 q 314 215 381 215 q 215 235 261 215 q 190 176 190 204 q 233 128 190 143 q 385 114 275 114 q 569 73 519 114 q 618 -47 618 32 q 551 -184 618 -129 q 343 -239 485 -239 q 130 -197 207 -239 q 53 -75 53 -156 q 81 11 53 -25 q 151 68 108 47 q 106 153 106 99 q 163 269 106 208 q 110 343 128 300 q 92 438 92 386 q 119 549 92 499 q 197 629 146 600 q 314 658 247 658 q 476 593 415 658 q 545 638 510 624 q 624 653 581 653 l 647 651 l 660 569 m 314 299 q 413 339 374 299 q 453 438 453 379 q 413 536 453 496 q 314 576 374 576 q 215 536 254 576 q 175 438 175 496 q 215 339 175 379 q 314 299 254 299 m 526 -62 q 515 -10 526 -29 q 468 17 503 8 q 364 26 433 26 q 204 44 264 26 q 158 -1 171 22 q 144 -64 144 -25 q 197 -137 144 -111 q 344 -164 250 -164 q 481 -137 436 -164 q 526 -62 526 -110 m 160 710 l 104 757 l 297 951 l 331 951 l 524 757 l 468 710 l 314 863 l 160 710 z "},"ģ":{"ha":694,"x_min":53,"x_max":660,"o":"m 660 569 q 624 571 647 571 q 513 542 557 571 q 536 438 536 494 q 509 324 536 375 q 431 244 482 274 q 314 215 381 215 q 215 235 261 215 q 190 176 190 204 q 233 128 190 143 q 385 114 275 114 q 569 73 519 114 q 618 -47 618 32 q 551 -184 618 -129 q 343 -239 485 -239 q 130 -197 207 -239 q 53 -75 53 -156 q 81 11 53 -25 q 151 68 108 47 q 106 153 106 99 q 163 269 106 208 q 110 343 128 300 q 92 438 92 386 q 119 549 92 499 q 197 629 146 600 q 314 658 247 658 q 476 593 415 658 q 545 638 510 624 q 624 653 581 653 l 647 651 l 660 569 m 314 299 q 413 339 374 299 q 453 438 453 379 q 413 536 453 496 q 314 576 374 576 q 215 536 254 576 q 175 438 175 496 q 215 339 175 379 q 314 299 254 299 m 526 -62 q 515 -10 526 -29 q 468 17 503 8 q 364 26 433 26 q 204 44 264 26 q 158 -1 171 22 q 144 -64 144 -25 q 197 -137 144 -111 q 344 -164 250 -164 q 481 -137 436 -164 q 526 -62 526 -110 m 413 1085 q 348 1007 374 1049 q 322 939 322 965 q 329 918 322 926 q 354 893 336 910 q 383 863 374 875 q 393 832 393 850 q 370 774 393 797 q 311 750 347 750 q 245 783 274 750 q 217 865 217 815 q 365 1126 217 974 l 413 1085 z "},"ġ":{"ha":694,"x_min":53,"x_max":660,"o":"m 660 569 q 624 571 647 571 q 513 542 557 571 q 536 438 536 494 q 509 324 536 375 q 431 244 482 274 q 314 215 381 215 q 215 235 261 215 q 190 176 190 204 q 233 128 190 143 q 385 114 275 114 q 569 73 519 114 q 618 -47 618 32 q 551 -184 618 -129 q 343 -239 485 -239 q 130 -197 207 -239 q 53 -75 53 -156 q 81 11 53 -25 q 151 68 108 47 q 106 153 106 99 q 163 269 106 208 q 110 343 128 300 q 92 438 92 386 q 119 549 92 499 q 197 629 146 600 q 314 658 247 658 q 476 593 415 658 q 545 638 510 624 q 624 653 581 653 l 647 651 l 660 569 m 314 299 q 413 339 374 299 q 453 438 453 379 q 413 536 453 496 q 314 576 374 576 q 215 536 254 576 q 175 438 175 496 q 215 339 175 379 q 314 299 254 299 m 526 -62 q 515 -10 526 -29 q 468 17 503 8 q 364 26 433 26 q 204 44 264 26 q 158 -1 171 22 q 144 -64 144 -25 q 197 -137 144 -111 q 344 -164 250 -164 q 481 -137 436 -164 q 526 -62 526 -110 m 313 768 q 263 789 283 768 q 242 839 242 810 q 262 890 242 869 q 313 911 282 911 q 363 890 342 911 q 385 839 385 868 q 363 789 385 810 q 313 768 342 768 z "},"ḡ":{"ha":694,"x_min":53,"x_max":660,"o":"m 660 569 q 624 571 647 571 q 513 542 557 571 q 536 438 536 494 q 509 324 536 375 q 431 244 482 274 q 314 215 381 215 q 215 235 261 215 q 190 176 190 204 q 233 128 190 143 q 385 114 275 114 q 569 73 519 114 q 618 -47 618 32 q 551 -184 618 -129 q 343 -239 485 -239 q 130 -197 207 -239 q 53 -75 53 -156 q 81 11 53 -25 q 151 68 108 47 q 106 153 106 99 q 163 269 106 208 q 110 343 128 300 q 92 438 92 386 q 119 549 92 499 q 197 629 146 600 q 314 658 247 658 q 476 593 415 658 q 545 638 510 624 q 624 653 581 653 l 647 651 l 660 569 m 314 299 q 413 339 374 299 q 453 438 453 379 q 413 536 453 496 q 314 576 374 576 q 215 536 254 576 q 175 438 175 496 q 215 339 175 379 q 314 299 254 299 m 526 -62 q 515 -10 526 -29 q 468 17 503 8 q 364 26 433 26 q 204 44 264 26 q 158 -1 171 22 q 144 -64 144 -25 q 197 -137 144 -111 q 344 -164 250 -164 q 481 -137 436 -164 q 526 -62 526 -110 m 138 785 l 138 863 l 490 863 l 490 785 l 138 785 z "},"h":{"ha":694,"x_min":101,"x_max":600,"o":"m 101 924 l 211 924 l 211 914 q 201 896 203 906 q 199 863 199 886 l 199 522 q 292 615 236 581 q 407 650 349 650 q 549 586 497 650 q 600 385 600 522 l 600 0 l 503 0 l 503 382 q 471 519 503 476 q 386 563 439 563 q 299 538 342 563 q 227 469 256 514 q 199 365 199 424 l 199 0 l 101 0 l 101 924 z "},"ħ":{"ha":694,"x_min":0,"x_max":600,"o":"m 407 650 q 549 586 497 650 q 600 385 600 522 l 600 0 l 503 0 l 503 382 q 471 519 503 476 q 386 563 439 563 q 299 538 342 563 q 227 469 256 514 q 199 365 199 424 l 199 0 l 101 0 l 101 722 l 0 722 l 0 801 l 101 801 l 101 924 l 211 924 l 211 914 q 201 896 203 906 q 199 863 199 886 l 199 801 l 375 801 l 375 722 l 199 722 l 199 522 q 292 615 236 581 q 407 650 349 650 z "},"ḫ":{"ha":694,"x_min":101,"x_max":600,"o":"m 101 924 l 211 924 l 211 914 q 201 896 203 906 q 199 863 199 886 l 199 522 q 292 615 236 581 q 407 650 349 650 q 549 586 497 650 q 600 385 600 522 l 600 0 l 503 0 l 503 382 q 471 519 503 476 q 386 563 439 563 q 299 538 342 563 q 227 469 256 514 q 199 365 199 424 l 199 0 l 101 0 l 101 924 m 558 -115 q 476 -210 526 -176 q 361 -243 425 -243 q 247 -210 297 -243 q 164 -115 196 -176 l 236 -82 q 289 -153 258 -131 q 361 -176 319 -176 q 433 -153 403 -176 q 486 -82 464 -131 l 558 -115 z "},"ĥ":{"ha":694,"x_min":-56,"x_max":600,"o":"m 101 924 l 211 924 l 211 914 q 201 896 203 906 q 199 863 199 886 l 199 522 q 292 615 236 581 q 407 650 349 650 q 549 586 497 650 q 600 385 600 522 l 600 0 l 503 0 l 503 382 q 471 519 503 476 q 386 563 439 563 q 299 538 342 563 q 227 469 256 514 q 199 365 199 424 l 199 0 l 101 0 l 101 924 m -10 968 l -56 1021 l 143 1157 l 174 1157 l 383 1019 l 342 969 l 161 1067 l -10 968 z "},"ḥ":{"ha":694,"x_min":101,"x_max":600,"o":"m 101 924 l 211 924 l 211 914 q 201 896 203 906 q 199 863 199 886 l 199 522 q 292 615 236 581 q 407 650 349 650 q 549 586 497 650 q 600 385 600 522 l 600 0 l 503 0 l 503 382 q 471 519 503 476 q 386 563 439 563 q 299 538 342 563 q 227 469 256 514 q 199 365 199 424 l 199 0 l 101 0 l 101 924 m 343 -222 q 292 -201 313 -222 q 271 -151 271 -181 q 292 -101 271 -122 q 343 -79 313 -79 q 393 -101 372 -79 q 414 -151 414 -122 q 393 -201 414 -181 q 343 -222 372 -222 z "},"i":{"ha":694,"x_min":139,"x_max":550,"o":"m 139 0 l 139 81 l 301 81 l 301 554 l 147 554 l 147 635 l 401 635 l 401 81 l 550 81 l 550 0 l 139 0 m 346 768 q 296 789 317 768 q 275 839 275 810 q 295 890 275 869 q 346 911 315 911 q 397 890 375 911 q 418 839 418 868 q 397 789 418 810 q 346 768 375 768 z "},"ı":{"ha":694,"x_min":139,"x_max":550,"o":"m 139 0 l 139 81 l 301 81 l 301 554 l 147 554 l 147 635 l 401 635 l 401 81 l 550 81 l 550 0 l 139 0 z "},"í":{"ha":694,"x_min":139,"x_max":550,"o":"m 139 0 l 139 81 l 301 81 l 301 554 l 147 554 l 147 635 l 401 635 l 401 81 l 550 81 l 550 0 l 139 0 m 342 725 l 289 761 l 406 968 l 482 913 l 342 725 z "},"ĭ":{"ha":694,"x_min":139,"x_max":550,"o":"m 139 0 l 139 81 l 301 81 l 301 554 l 147 554 l 147 635 l 401 635 l 401 81 l 550 81 l 550 0 l 139 0 m 544 875 q 462 781 513 814 q 347 747 411 747 q 233 781 283 747 q 150 875 182 814 l 222 908 q 275 837 244 860 q 347 814 306 814 q 419 837 389 814 q 472 908 450 860 l 544 875 z "},"î":{"ha":694,"x_min":139,"x_max":550,"o":"m 139 0 l 139 81 l 301 81 l 301 554 l 147 554 l 147 635 l 401 635 l 401 81 l 550 81 l 550 0 l 139 0 m 449 719 l 326 863 l 194 715 l 144 757 l 313 951 l 343 951 l 510 756 l 449 719 z "},"ȉ":{"ha":694,"x_min":103,"x_max":550,"o":"m 139 0 l 139 81 l 301 81 l 301 554 l 147 554 l 147 635 l 401 635 l 401 81 l 550 81 l 550 0 l 139 0 m 243 704 l 103 892 l 179 947 l 296 740 l 243 704 m 465 704 l 325 892 l 401 947 l 518 740 l 465 704 z "},"ï":{"ha":694,"x_min":139,"x_max":550,"o":"m 139 0 l 139 81 l 301 81 l 301 554 l 147 554 l 147 635 l 401 635 l 401 81 l 550 81 l 550 0 l 139 0 m 215 783 q 165 804 186 783 q 144 853 144 825 q 165 902 144 881 q 215 924 186 924 q 264 903 243 924 q 285 853 285 882 q 264 804 285 825 q 215 783 243 783 m 463 783 q 413 803 433 783 q 393 853 393 824 q 413 903 393 882 q 463 924 433 924 q 511 903 490 924 q 532 853 532 882 q 511 804 532 825 q 463 783 490 783 z "},"ḯ":{"ha":694,"x_min":139,"x_max":550,"o":"m 139 0 l 139 81 l 301 81 l 301 554 l 147 554 l 147 635 l 401 635 l 401 81 l 550 81 l 550 0 l 139 0 m 225 783 q 175 804 196 783 q 154 853 154 825 q 175 902 154 881 q 225 924 196 924 q 274 903 253 924 q 294 853 294 882 q 274 804 294 825 q 225 783 253 783 m 472 783 q 423 803 443 783 q 403 853 403 824 q 423 903 403 882 q 472 924 443 924 q 521 903 500 924 q 542 853 542 882 q 521 804 542 825 q 472 783 500 783 m 339 910 l 286 946 l 403 1153 l 479 1097 l 339 910 z "},"ị":{"ha":694,"x_min":139,"x_max":550,"o":"m 139 0 l 139 81 l 301 81 l 301 554 l 147 554 l 147 635 l 401 635 l 401 81 l 550 81 l 550 0 l 139 0 m 346 768 q 296 789 317 768 q 275 839 275 810 q 295 890 275 869 q 346 911 315 911 q 397 890 375 911 q 418 839 418 868 q 397 789 418 810 q 346 768 375 768 m 343 -222 q 292 -201 313 -222 q 271 -151 271 -181 q 292 -101 271 -122 q 343 -79 313 -79 q 393 -101 372 -79 q 414 -151 414 -122 q 393 -201 414 -181 q 343 -222 372 -222 z "},"ì":{"ha":694,"x_min":139,"x_max":550,"o":"m 139 0 l 139 81 l 301 81 l 301 554 l 147 554 l 147 635 l 401 635 l 401 81 l 550 81 l 550 0 l 139 0 m 321 725 l 181 913 l 268 971 l 390 767 l 321 725 z "},"ỉ":{"ha":694,"x_min":139,"x_max":550,"o":"m 139 0 l 139 81 l 301 81 l 301 554 l 147 554 l 147 635 l 401 635 l 401 81 l 550 81 l 550 0 l 139 0 m 465 875 q 456 834 465 849 q 425 801 446 819 q 397 772 406 785 q 388 736 388 758 l 388 726 l 317 726 l 317 765 q 357 828 317 793 q 381 853 374 843 q 389 872 389 863 q 376 901 389 890 q 346 911 364 911 q 285 867 299 911 l 233 919 q 287 964 258 950 q 353 978 315 978 q 433 950 400 978 q 465 875 465 922 z "},"ȋ":{"ha":694,"x_min":139,"x_max":550,"o":"m 139 0 l 139 81 l 301 81 l 301 554 l 147 554 l 147 635 l 401 635 l 401 81 l 550 81 l 550 0 l 139 0 m 472 733 q 419 805 450 782 q 347 828 389 828 q 275 805 306 828 q 222 733 244 782 l 150 767 q 233 861 182 828 q 347 894 283 894 q 462 861 411 894 q 544 767 513 828 l 472 733 z "},"ī":{"ha":694,"x_min":139,"x_max":550,"o":"m 139 0 l 139 81 l 301 81 l 301 554 l 147 554 l 147 635 l 401 635 l 401 81 l 550 81 l 550 0 l 139 0 m 171 785 l 171 863 l 524 863 l 524 785 l 171 785 z "},"į":{"ha":694,"x_min":139,"x_max":550,"o":"m 346 768 q 296 789 317 768 q 275 839 275 810 q 295 890 275 869 q 346 911 315 911 q 397 890 375 911 q 418 839 418 868 q 397 789 418 810 q 346 768 375 768 m 550 0 q 467 -87 497 -42 q 436 -171 436 -133 q 458 -222 436 -201 q 522 -249 479 -243 l 500 -315 q 387 -274 429 -306 q 344 -190 344 -242 q 378 -93 344 -142 q 475 0 411 -44 l 139 0 l 139 81 l 301 81 l 301 554 l 147 554 l 147 635 l 401 635 l 401 81 l 550 81 l 550 0 z "},"ĩ":{"ha":694,"x_min":139,"x_max":550,"o":"m 139 0 l 139 81 l 301 81 l 301 554 l 147 554 l 147 635 l 401 635 l 401 81 l 550 81 l 550 0 l 139 0 m 546 876 q 429 778 496 778 q 377 791 400 778 q 331 826 354 804 q 296 852 308 844 q 269 860 283 860 q 235 840 249 860 q 213 776 222 819 l 144 796 q 275 929 176 929 q 326 917 304 929 q 372 882 347 904 q 401 859 389 867 q 425 851 413 851 q 456 865 443 851 q 482 910 468 878 l 546 876 z "},"j":{"ha":694,"x_min":67,"x_max":526,"o":"m 513 635 l 513 31 q 444 -174 513 -107 q 269 -242 376 -242 q 156 -219 208 -242 q 67 -153 103 -197 l 122 -78 l 124 -76 l 125 -78 q 187 -135 153 -114 q 268 -156 221 -156 q 372 -111 333 -156 q 411 25 411 -67 l 411 553 l 175 553 l 175 635 l 513 635 m 139 -74 q 135 -76 139 -78 q 126 -72 131 -75 l 131 -67 l 139 -72 l 139 -74 m 124 -76 q 121 -69 119 -69 q 126 -72 122 -69 l 124 -76 m 454 768 q 404 789 425 768 q 383 839 383 810 q 403 890 383 869 q 454 911 424 911 q 505 890 483 911 q 526 839 526 868 q 505 789 526 810 q 454 768 483 768 z "},"ȷ":{"ha":694,"x_min":67,"x_max":513,"o":"m 513 635 l 513 31 q 444 -174 513 -107 q 269 -242 376 -242 q 156 -219 208 -242 q 67 -153 103 -197 l 122 -78 l 124 -76 l 125 -78 q 187 -135 153 -114 q 268 -156 221 -156 q 372 -111 333 -156 q 411 25 411 -67 l 411 553 l 175 553 l 175 635 l 513 635 m 139 -74 q 135 -76 139 -78 q 126 -72 131 -75 l 131 -67 l 139 -72 l 139 -74 m 124 -76 q 121 -69 119 -69 q 126 -72 122 -69 l 124 -76 z "},"ĵ":{"ha":694,"x_min":67,"x_max":665,"o":"m 513 635 l 513 31 q 444 -174 513 -107 q 269 -242 376 -242 q 156 -219 208 -242 q 67 -153 103 -197 l 122 -78 l 124 -76 l 125 -78 q 187 -135 153 -114 q 268 -156 221 -156 q 372 -111 333 -156 q 411 25 411 -67 l 411 553 l 175 553 l 175 635 l 513 635 m 139 -74 q 135 -76 139 -78 q 126 -72 131 -75 l 131 -67 l 139 -72 l 139 -74 m 124 -76 q 121 -69 119 -69 q 126 -72 122 -69 l 124 -76 m 301 710 l 246 757 l 439 951 l 472 951 l 665 757 l 610 710 l 456 863 l 301 710 z "},"k":{"ha":694,"x_min":92,"x_max":665,"o":"m 276 318 l 193 240 l 193 0 l 92 0 l 92 924 l 206 924 l 206 914 q 195 896 197 906 q 193 863 193 886 l 193 343 l 511 638 q 585 631 546 631 l 621 631 l 354 379 l 665 0 l 536 -6 l 276 318 z "},"ķ":{"ha":694,"x_min":92,"x_max":665,"o":"m 276 318 l 193 240 l 193 0 l 92 0 l 92 924 l 206 924 l 206 914 q 195 896 197 906 q 193 863 193 886 l 193 343 l 511 638 q 585 631 546 631 l 621 631 l 354 379 l 665 0 l 536 -6 l 276 318 m 264 -344 q 322 -275 299 -312 q 346 -214 346 -237 q 340 -195 346 -203 q 317 -172 333 -187 q 290 -144 299 -156 q 282 -117 282 -133 q 303 -65 282 -86 q 356 -43 324 -43 q 415 -73 390 -43 q 440 -147 440 -103 q 307 -382 440 -244 l 264 -344 z "},"ĸ":{"ha":694,"x_min":92,"x_max":665,"o":"m 276 318 l 193 240 l 193 0 l 92 0 l 92 635 l 206 635 q 199 617 206 629 q 193 599 193 604 l 193 343 l 513 642 q 586 635 547 635 l 622 635 l 354 379 l 665 0 l 536 -6 l 276 318 z "},"l":{"ha":694,"x_min":110,"x_max":585,"o":"m 110 0 l 110 81 l 297 81 l 297 843 l 118 843 l 118 924 l 399 924 l 399 81 l 585 81 l 585 0 l 110 0 z "},"ĺ":{"ha":694,"x_min":110,"x_max":585,"o":"m 110 0 l 110 81 l 297 81 l 297 843 l 118 843 l 118 924 l 399 924 l 399 81 l 585 81 l 585 0 l 110 0 m 246 975 l 214 1033 l 425 1157 l 481 1060 l 246 975 z "},"ľ":{"ha":694,"x_min":110,"x_max":635,"o":"m 110 0 l 110 81 l 297 81 l 297 843 l 118 843 l 118 924 l 399 924 l 399 81 l 585 81 l 585 0 l 110 0 m 478 664 q 530 726 510 692 q 550 782 550 761 q 542 800 550 792 q 525 817 535 808 q 501 842 508 832 q 493 867 493 851 q 512 913 493 894 q 560 932 531 932 q 613 906 590 932 q 635 840 635 879 q 517 631 635 749 l 478 664 z "},"ļ":{"ha":694,"x_min":110,"x_max":585,"o":"m 110 0 l 110 81 l 297 81 l 297 843 l 118 843 l 118 924 l 399 924 l 399 81 l 585 81 l 585 0 l 110 0 m 264 -344 q 322 -275 299 -312 q 346 -214 346 -237 q 340 -195 346 -203 q 317 -172 333 -187 q 290 -144 299 -156 q 282 -117 282 -133 q 303 -65 282 -86 q 356 -43 324 -43 q 415 -73 390 -43 q 440 -147 440 -103 q 307 -382 440 -244 l 264 -344 z "},"ŀ":{"ha":694,"x_min":96,"x_max":622,"o":"m 96 0 l 96 81 l 256 81 l 256 843 l 104 843 l 104 924 l 357 924 l 357 81 l 571 81 l 571 0 l 96 0 m 539 381 q 481 403 504 381 q 457 460 457 426 q 481 516 457 493 q 539 539 506 539 q 597 515 571 539 q 622 460 622 492 q 598 404 622 428 q 539 381 574 381 z "},"ḷ":{"ha":694,"x_min":110,"x_max":585,"o":"m 110 0 l 110 81 l 297 81 l 297 843 l 118 843 l 118 924 l 399 924 l 399 81 l 585 81 l 585 0 l 110 0 m 343 -222 q 292 -201 313 -222 q 271 -151 271 -181 q 292 -101 271 -122 q 343 -79 313 -79 q 393 -101 372 -79 q 414 -151 414 -122 q 393 -201 414 -181 q 343 -222 372 -222 z "},"ǉ":{"ha":694,"x_min":26,"x_max":603,"o":"m 26 0 l 26 81 l 117 81 l 117 843 l 35 843 l 35 924 l 218 924 l 218 81 l 390 81 l 390 0 l 26 0 m 531 768 q 481 789 501 768 q 460 839 460 810 q 480 890 460 869 q 531 911 500 911 q 581 890 560 911 q 603 839 603 868 q 581 789 603 810 q 531 768 560 768 m 344 -242 q 150 -153 222 -242 l 215 -67 q 226 -87 221 -72 q 244 -115 232 -103 q 286 -140 256 -126 q 351 -156 319 -156 q 456 -111 417 -156 q 494 25 494 -67 l 494 553 l 300 553 l 300 635 l 596 635 l 596 31 q 527 -171 596 -106 q 344 -242 458 -236 z "},"ḻ":{"ha":694,"x_min":110,"x_max":585,"o":"m 110 0 l 110 81 l 297 81 l 297 843 l 118 843 l 118 924 l 399 924 l 399 81 l 585 81 l 585 0 l 110 0 m 174 -215 l 174 -137 l 526 -137 l 526 -215 l 174 -215 z "},"ł":{"ha":694,"x_min":110,"x_max":585,"o":"m 110 0 l 110 81 l 297 81 l 297 388 l 188 350 l 188 442 l 297 479 l 297 843 l 118 843 l 118 924 l 399 924 l 399 514 l 525 560 l 525 464 l 399 421 l 399 81 l 585 81 l 585 0 l 110 0 z "},"m":{"ha":694,"x_min":53,"x_max":654,"o":"m 53 635 l 144 635 l 144 572 q 201 628 167 607 q 274 650 236 650 q 347 624 315 650 q 386 557 378 597 q 443 624 404 599 q 529 650 482 650 q 623 605 592 650 q 651 488 654 560 l 651 0 l 560 0 l 560 450 q 544 553 560 529 q 500 576 529 576 q 451 553 475 576 q 413 492 428 529 q 399 419 399 456 l 399 0 l 306 0 l 306 442 q 291 547 306 519 q 236 574 276 574 q 194 555 215 574 q 158 502 172 536 q 144 424 144 468 l 144 0 l 53 0 l 53 635 z "},"ṃ":{"ha":694,"x_min":53,"x_max":651,"o":"m 53 635 l 144 635 l 144 572 q 201 628 167 607 q 274 650 236 650 q 347 624 315 650 q 386 557 378 597 q 443 624 404 599 q 529 650 482 650 q 623 605 592 650 q 651 488 654 560 l 651 0 l 560 0 l 560 450 q 544 553 560 529 q 500 576 529 576 q 451 553 475 576 q 413 492 428 529 q 399 419 399 456 l 399 0 l 306 0 l 306 442 q 291 547 306 519 q 236 574 276 574 q 194 555 215 574 q 158 502 172 536 q 144 424 144 468 l 144 0 l 53 0 l 53 635 m 343 -222 q 292 -201 313 -222 q 271 -151 271 -181 q 292 -101 271 -122 q 343 -79 313 -79 q 393 -101 372 -79 q 414 -151 414 -122 q 393 -201 414 -181 q 343 -222 372 -222 z "},"n":{"ha":694,"x_min":100,"x_max":599,"o":"m 100 635 l 197 635 l 197 522 q 292 615 235 581 q 413 650 349 650 q 548 585 497 650 q 599 385 599 521 l 599 0 l 501 0 l 501 382 q 469 519 501 476 q 385 563 438 563 q 298 538 342 563 q 226 467 254 513 q 197 365 197 422 l 197 0 l 100 0 l 100 635 z "},"ń":{"ha":694,"x_min":100,"x_max":599,"o":"m 100 635 l 197 635 l 197 522 q 292 615 235 581 q 413 650 349 650 q 548 585 497 650 q 599 385 599 521 l 599 0 l 501 0 l 501 382 q 469 519 501 476 q 385 563 438 563 q 298 538 342 563 q 226 467 254 513 q 197 365 197 422 l 197 0 l 100 0 l 100 635 m 358 704 l 306 740 l 422 947 l 499 892 l 358 704 z "},"ň":{"ha":694,"x_min":100,"x_max":599,"o":"m 100 635 l 197 635 l 197 522 q 292 615 235 581 q 413 650 349 650 q 548 585 497 650 q 599 385 599 521 l 599 0 l 501 0 l 501 382 q 469 519 501 476 q 385 563 438 563 q 298 538 342 563 q 226 467 254 513 q 197 365 197 422 l 197 0 l 100 0 l 100 635 m 213 956 l 367 803 l 521 956 l 576 908 l 383 714 l 350 714 l 157 908 l 213 956 z "},"ņ":{"ha":694,"x_min":100,"x_max":599,"o":"m 100 635 l 197 635 l 197 522 q 292 615 235 581 q 413 650 349 650 q 548 585 497 650 q 599 385 599 521 l 599 0 l 501 0 l 501 382 q 469 519 501 476 q 385 563 438 563 q 298 538 342 563 q 226 467 254 513 q 197 365 197 422 l 197 0 l 100 0 l 100 635 m 278 -344 q 336 -275 313 -312 q 360 -214 360 -237 q 353 -195 360 -203 q 331 -172 347 -187 q 304 -144 313 -156 q 296 -117 296 -133 q 317 -65 296 -86 q 369 -43 338 -43 q 429 -73 404 -43 q 454 -147 454 -103 q 321 -382 454 -244 l 278 -344 z "},"ṅ":{"ha":694,"x_min":100,"x_max":599,"o":"m 100 635 l 197 635 l 197 522 q 292 615 235 581 q 413 650 349 650 q 548 585 497 650 q 599 385 599 521 l 599 0 l 501 0 l 501 382 q 469 519 501 476 q 385 563 438 563 q 298 538 342 563 q 226 467 254 513 q 197 365 197 422 l 197 0 l 100 0 l 100 635 m 367 768 q 317 789 338 768 q 296 839 296 810 q 316 890 296 869 q 367 911 336 911 q 417 890 396 911 q 439 839 439 868 q 417 789 439 810 q 367 768 396 768 z "},"ṇ":{"ha":694,"x_min":100,"x_max":599,"o":"m 100 635 l 197 635 l 197 522 q 292 615 235 581 q 413 650 349 650 q 548 585 497 650 q 599 385 599 521 l 599 0 l 501 0 l 501 382 q 469 519 501 476 q 385 563 438 563 q 298 538 342 563 q 226 467 254 513 q 197 365 197 422 l 197 0 l 100 0 l 100 635 m 357 -222 q 306 -201 326 -222 q 285 -151 285 -181 q 306 -101 285 -122 q 357 -79 326 -79 q 407 -101 386 -79 q 428 -151 428 -122 q 407 -201 428 -181 q 357 -222 386 -222 z "},"ŋ":{"ha":694,"x_min":94,"x_max":600,"o":"m 364 -244 q 229 -197 289 -244 l 276 -104 q 288 -119 279 -106 q 314 -142 296 -132 q 367 -151 332 -151 q 501 63 501 -151 l 501 382 q 469 519 501 476 q 385 563 438 563 q 297 538 340 563 q 225 467 253 513 q 197 365 197 422 l 197 0 l 94 0 l 94 635 l 197 635 l 197 522 q 290 615 233 581 q 404 650 346 650 q 547 586 494 650 q 600 385 600 522 l 600 78 q 535 -165 600 -85 q 364 -244 471 -244 z "},"ṉ":{"ha":694,"x_min":100,"x_max":599,"o":"m 100 635 l 197 635 l 197 522 q 292 615 235 581 q 413 650 349 650 q 548 585 497 650 q 599 385 599 521 l 599 0 l 501 0 l 501 382 q 469 519 501 476 q 385 563 438 563 q 298 538 342 563 q 226 467 254 513 q 197 365 197 422 l 197 0 l 100 0 l 100 635 m 188 -215 l 188 -137 l 540 -137 l 540 -215 l 188 -215 z "},"ñ":{"ha":694,"x_min":100,"x_max":606,"o":"m 100 635 l 197 635 l 197 522 q 292 615 235 581 q 413 650 349 650 q 548 585 497 650 q 599 385 599 521 l 599 0 l 501 0 l 501 382 q 469 519 501 476 q 385 563 438 563 q 298 538 342 563 q 226 467 254 513 q 197 365 197 422 l 197 0 l 100 0 l 100 635 m 606 901 q 547 820 575 843 q 476 797 518 797 q 424 808 447 797 q 371 839 401 818 q 328 864 344 856 q 293 872 313 872 q 250 858 268 872 q 215 807 232 843 l 147 838 q 203 918 168 888 q 290 949 239 949 q 340 938 319 949 q 390 908 361 928 q 432 882 414 890 q 471 874 450 874 q 508 888 493 874 q 542 940 522 901 l 606 901 z "},"o":{"ha":694,"x_min":54,"x_max":640,"o":"m 347 -11 q 196 31 263 -11 q 92 147 129 72 q 54 318 54 222 q 92 489 54 414 q 196 606 129 564 q 347 649 263 649 q 499 606 432 649 q 603 489 565 564 q 640 318 640 414 q 603 147 640 222 q 499 31 565 72 q 347 -11 432 -11 m 347 72 q 444 104 401 72 q 510 192 486 136 q 535 319 535 249 q 482 497 535 428 q 347 565 429 565 q 213 497 265 565 q 160 319 160 428 q 184 192 160 249 q 251 104 208 136 q 347 72 293 72 z "},"ó":{"ha":694,"x_min":54,"x_max":640,"o":"m 347 -11 q 196 31 263 -11 q 92 147 129 72 q 54 318 54 222 q 92 489 54 414 q 196 606 129 564 q 347 649 263 649 q 499 606 432 649 q 603 489 565 564 q 640 318 640 414 q 603 147 640 222 q 499 31 565 72 q 347 -11 432 -11 m 347 72 q 444 104 401 72 q 510 192 486 136 q 535 319 535 249 q 482 497 535 428 q 347 565 429 565 q 213 497 265 565 q 160 319 160 428 q 184 192 160 249 q 251 104 208 136 q 347 72 293 72 m 338 704 l 285 740 l 401 947 l 478 892 l 338 704 z "},"ŏ":{"ha":694,"x_min":54,"x_max":640,"o":"m 347 -11 q 196 31 263 -11 q 92 147 129 72 q 54 318 54 222 q 92 489 54 414 q 196 606 129 564 q 347 649 263 649 q 499 606 432 649 q 603 489 565 564 q 640 318 640 414 q 603 147 640 222 q 499 31 565 72 q 347 -11 432 -11 m 347 72 q 444 104 401 72 q 510 192 486 136 q 535 319 535 249 q 482 497 535 428 q 347 565 429 565 q 213 497 265 565 q 160 319 160 428 q 184 192 160 249 q 251 104 208 136 q 347 72 293 72 m 544 875 q 462 781 513 814 q 347 747 411 747 q 233 781 283 747 q 150 875 182 814 l 222 908 q 275 837 244 860 q 347 814 306 814 q 419 837 389 814 q 472 908 450 860 l 544 875 z "},"ô":{"ha":694,"x_min":54,"x_max":640,"o":"m 347 -11 q 196 31 263 -11 q 92 147 129 72 q 54 318 54 222 q 92 489 54 414 q 196 606 129 564 q 347 649 263 649 q 499 606 432 649 q 603 489 565 564 q 640 318 640 414 q 603 147 640 222 q 499 31 565 72 q 347 -11 432 -11 m 347 72 q 444 104 401 72 q 510 192 486 136 q 535 319 535 249 q 482 497 535 428 q 347 565 429 565 q 213 497 265 565 q 160 319 160 428 q 184 192 160 249 q 251 104 208 136 q 347 72 293 72 m 193 710 l 138 757 l 331 951 l 364 951 l 557 757 l 501 710 l 347 863 l 193 710 z "},"ố":{"ha":694,"x_min":54,"x_max":675,"o":"m 347 -11 q 196 31 263 -11 q 92 147 129 72 q 54 318 54 222 q 92 489 54 414 q 196 606 129 564 q 347 649 263 649 q 499 606 432 649 q 603 489 565 564 q 640 318 640 414 q 603 147 640 222 q 499 31 565 72 q 347 -11 432 -11 m 347 72 q 444 104 401 72 q 510 192 486 136 q 535 319 535 249 q 482 497 535 428 q 347 565 429 565 q 213 497 265 565 q 160 319 160 428 q 184 192 160 249 q 251 104 208 136 q 347 72 293 72 m 193 710 l 138 757 l 331 951 l 364 951 l 557 757 l 501 710 l 347 863 l 193 710 m 535 876 l 482 913 l 599 1119 l 675 1064 l 535 876 z "},"ộ":{"ha":694,"x_min":54,"x_max":640,"o":"m 347 -11 q 196 31 263 -11 q 92 147 129 72 q 54 318 54 222 q 92 489 54 414 q 196 606 129 564 q 347 649 263 649 q 499 606 432 649 q 603 489 565 564 q 640 318 640 414 q 603 147 640 222 q 499 31 565 72 q 347 -11 432 -11 m 347 72 q 444 104 401 72 q 510 192 486 136 q 535 319 535 249 q 482 497 535 428 q 347 565 429 565 q 213 497 265 565 q 160 319 160 428 q 184 192 160 249 q 251 104 208 136 q 347 72 293 72 m 343 -222 q 292 -201 313 -222 q 271 -151 271 -181 q 292 -101 271 -122 q 343 -79 313 -79 q 393 -101 372 -79 q 414 -151 414 -122 q 393 -201 414 -181 q 343 -222 372 -222 m 193 710 l 138 757 l 331 951 l 364 951 l 557 757 l 501 710 l 347 863 l 193 710 z "},"ồ":{"ha":694,"x_min":54,"x_max":640,"o":"m 347 -11 q 196 31 263 -11 q 92 147 129 72 q 54 318 54 222 q 92 489 54 414 q 196 606 129 564 q 347 649 263 649 q 499 606 432 649 q 603 489 565 564 q 640 318 640 414 q 603 147 640 222 q 499 31 565 72 q 347 -11 432 -11 m 347 72 q 444 104 401 72 q 510 192 486 136 q 535 319 535 249 q 482 497 535 428 q 347 565 429 565 q 213 497 265 565 q 160 319 160 428 q 184 192 160 249 q 251 104 208 136 q 347 72 293 72 m 196 710 l 140 757 l 333 951 l 367 951 l 560 757 l 504 710 l 350 863 l 196 710 m 526 906 l 386 1093 l 463 1149 l 579 942 l 526 906 z "},"ổ":{"ha":694,"x_min":54,"x_max":640,"o":"m 347 -11 q 196 31 263 -11 q 92 147 129 72 q 54 318 54 222 q 92 489 54 414 q 196 606 129 564 q 347 649 263 649 q 499 606 432 649 q 603 489 565 564 q 640 318 640 414 q 603 147 640 222 q 499 31 565 72 q 347 -11 432 -11 m 347 72 q 444 104 401 72 q 510 192 486 136 q 535 319 535 249 q 482 497 535 428 q 347 565 429 565 q 213 497 265 565 q 160 319 160 428 q 184 192 160 249 q 251 104 208 136 q 347 72 293 72 m 194 710 l 139 757 l 332 951 l 365 951 l 558 757 l 503 710 l 349 863 l 194 710 m 633 1014 q 624 973 633 988 q 593 940 614 958 q 565 910 574 924 q 556 875 556 897 l 556 865 l 485 865 l 485 904 q 525 967 485 932 q 549 992 542 982 q 557 1011 557 1001 q 544 1040 557 1029 q 514 1050 532 1050 q 453 1006 467 1050 l 401 1058 q 455 1103 426 1089 q 521 1117 483 1117 q 601 1089 568 1117 q 633 1014 633 1061 z "},"ỗ":{"ha":694,"x_min":54,"x_max":640,"o":"m 347 -11 q 196 31 263 -11 q 92 147 129 72 q 54 318 54 222 q 92 489 54 414 q 196 606 129 564 q 347 649 263 649 q 499 606 432 649 q 603 489 565 564 q 640 318 640 414 q 603 147 640 222 q 499 31 565 72 q 347 -11 432 -11 m 347 72 q 444 104 401 72 q 510 192 486 136 q 535 319 535 249 q 482 497 535 428 q 347 565 429 565 q 213 497 265 565 q 160 319 160 428 q 184 192 160 249 q 251 104 208 136 q 347 72 293 72 m 194 710 l 139 757 l 332 951 l 365 951 l 558 757 l 503 710 l 349 863 l 194 710 m 549 1072 q 432 974 499 974 q 380 987 403 974 q 333 1022 357 1000 q 299 1048 311 1040 q 272 1056 286 1056 q 238 1035 251 1056 q 215 972 225 1015 l 147 992 q 278 1125 179 1125 q 328 1113 307 1125 q 375 1078 350 1100 q 403 1055 392 1063 q 428 1047 415 1047 q 458 1060 446 1047 q 485 1106 471 1074 l 549 1072 z "},"ȍ":{"ha":694,"x_min":54,"x_max":640,"o":"m 347 -11 q 196 31 263 -11 q 92 147 129 72 q 54 318 54 222 q 92 489 54 414 q 196 606 129 564 q 347 649 263 649 q 499 606 432 649 q 603 489 565 564 q 640 318 640 414 q 603 147 640 222 q 499 31 565 72 q 347 -11 432 -11 m 347 72 q 444 104 401 72 q 510 192 486 136 q 535 319 535 249 q 482 497 535 428 q 347 565 429 565 q 213 497 265 565 q 160 319 160 428 q 184 192 160 249 q 251 104 208 136 q 347 72 293 72 m 243 704 l 103 892 l 179 947 l 296 740 l 243 704 m 465 704 l 325 892 l 401 947 l 518 740 l 465 704 z "},"ö":{"ha":694,"x_min":54,"x_max":640,"o":"m 347 -11 q 196 31 263 -11 q 92 147 129 72 q 54 318 54 222 q 92 489 54 414 q 196 606 129 564 q 347 649 263 649 q 499 606 432 649 q 603 489 565 564 q 640 318 640 414 q 603 147 640 222 q 499 31 565 72 q 347 -11 432 -11 m 347 72 q 444 104 401 72 q 510 192 486 136 q 535 319 535 249 q 482 497 535 428 q 347 565 429 565 q 213 497 265 565 q 160 319 160 428 q 184 192 160 249 q 251 104 208 136 q 347 72 293 72 m 225 783 q 175 804 196 783 q 154 853 154 825 q 175 902 154 881 q 225 924 196 924 q 274 903 253 924 q 294 853 294 882 q 274 804 294 825 q 225 783 253 783 m 472 783 q 423 803 443 783 q 403 853 403 824 q 423 903 403 882 q 472 924 443 924 q 521 903 500 924 q 542 853 542 882 q 521 804 542 825 q 472 783 500 783 z "},"ȫ":{"ha":694,"x_min":54,"x_max":640,"o":"m 347 -11 q 196 31 263 -11 q 92 147 129 72 q 54 318 54 222 q 92 489 54 414 q 196 606 129 564 q 347 649 263 649 q 499 606 432 649 q 603 489 565 564 q 640 318 640 414 q 603 147 640 222 q 499 31 565 72 q 347 -11 432 -11 m 347 72 q 444 104 401 72 q 510 192 486 136 q 535 319 535 249 q 482 497 535 428 q 347 565 429 565 q 213 497 265 565 q 160 319 160 428 q 184 192 160 249 q 251 104 208 136 q 347 72 293 72 m 225 783 q 175 804 196 783 q 154 853 154 825 q 175 902 154 881 q 225 924 196 924 q 274 903 253 924 q 294 853 294 882 q 274 804 294 825 q 225 783 253 783 m 472 783 q 423 803 443 783 q 403 853 403 824 q 423 903 403 882 q 472 924 443 924 q 521 903 500 924 q 542 853 542 882 q 521 804 542 825 q 472 783 500 783 m 172 990 l 172 1068 l 525 1068 l 525 990 l 172 990 z "},"ȱ":{"ha":694,"x_min":54,"x_max":640,"o":"m 347 -11 q 196 31 263 -11 q 92 147 129 72 q 54 318 54 222 q 92 489 54 414 q 196 606 129 564 q 347 649 263 649 q 499 606 432 649 q 603 489 565 564 q 640 318 640 414 q 603 147 640 222 q 499 31 565 72 q 347 -11 432 -11 m 347 72 q 444 104 401 72 q 510 192 486 136 q 535 319 535 249 q 482 497 535 428 q 347 565 429 565 q 213 497 265 565 q 160 319 160 428 q 184 192 160 249 q 251 104 208 136 q 347 72 293 72 m 346 768 q 296 789 317 768 q 275 839 275 810 q 295 890 275 869 q 346 911 315 911 q 397 890 375 911 q 418 839 418 868 q 397 789 418 810 q 346 768 375 768 m 171 990 l 171 1068 l 524 1068 l 524 990 l 171 990 z "},"ọ":{"ha":694,"x_min":54,"x_max":640,"o":"m 347 -11 q 196 31 263 -11 q 92 147 129 72 q 54 318 54 222 q 92 489 54 414 q 196 606 129 564 q 347 649 263 649 q 499 606 432 649 q 603 489 565 564 q 640 318 640 414 q 603 147 640 222 q 499 31 565 72 q 347 -11 432 -11 m 347 72 q 444 104 401 72 q 510 192 486 136 q 535 319 535 249 q 482 497 535 428 q 347 565 429 565 q 213 497 265 565 q 160 319 160 428 q 184 192 160 249 q 251 104 208 136 q 347 72 293 72 m 343 -222 q 292 -201 313 -222 q 271 -151 271 -181 q 292 -101 271 -122 q 343 -79 313 -79 q 393 -101 372 -79 q 414 -151 414 -122 q 393 -201 414 -181 q 343 -222 372 -222 z "},"ò":{"ha":694,"x_min":54,"x_max":640,"o":"m 347 -11 q 196 31 263 -11 q 92 147 129 72 q 54 318 54 222 q 92 489 54 414 q 196 606 129 564 q 347 649 263 649 q 499 606 432 649 q 603 489 565 564 q 640 318 640 414 q 603 147 640 222 q 499 31 565 72 q 347 -11 432 -11 m 347 72 q 444 104 401 72 q 510 192 486 136 q 535 319 535 249 q 482 497 535 428 q 347 565 429 565 q 213 497 265 565 q 160 319 160 428 q 184 192 160 249 q 251 104 208 136 q 347 72 293 72 m 339 704 l 199 892 l 275 947 l 392 740 l 339 704 z "},"ỏ":{"ha":694,"x_min":54,"x_max":640,"o":"m 347 -11 q 196 31 263 -11 q 92 147 129 72 q 54 318 54 222 q 92 489 54 414 q 196 606 129 564 q 347 649 263 649 q 499 606 432 649 q 603 489 565 564 q 640 318 640 414 q 603 147 640 222 q 499 31 565 72 q 347 -11 432 -11 m 347 72 q 444 104 401 72 q 510 192 486 136 q 535 319 535 249 q 482 497 535 428 q 347 565 429 565 q 213 497 265 565 q 160 319 160 428 q 184 192 160 249 q 251 104 208 136 q 347 72 293 72 m 465 875 q 456 834 465 849 q 425 801 446 819 q 397 772 406 785 q 388 736 388 758 l 388 726 l 317 726 l 317 765 q 357 828 317 793 q 381 853 374 843 q 389 872 389 863 q 376 901 389 890 q 346 911 364 911 q 285 867 299 911 l 233 919 q 287 964 258 950 q 353 978 315 978 q 433 950 400 978 q 465 875 465 922 z "},"ơ":{"ha":694,"x_min":54,"x_max":640,"o":"m 565 547 q 621 444 601 503 q 640 318 640 386 q 603 147 640 222 q 499 31 565 72 q 347 -11 432 -11 q 196 31 263 -11 q 92 147 129 72 q 54 318 54 222 q 92 489 54 414 q 196 606 129 564 q 347 649 263 649 q 500 606 433 649 q 531 631 522 607 q 540 722 540 654 l 629 722 q 616 602 629 642 q 565 547 603 563 m 347 72 q 444 104 401 72 q 510 192 486 136 q 535 319 535 249 q 482 497 535 428 q 347 565 429 565 q 213 497 265 565 q 160 319 160 428 q 184 192 160 249 q 251 104 208 136 q 347 72 293 72 z "},"ớ":{"ha":694,"x_min":54,"x_max":640,"o":"m 565 547 q 621 444 601 503 q 640 318 640 386 q 603 147 640 222 q 499 31 565 72 q 347 -11 432 -11 q 196 31 263 -11 q 92 147 129 72 q 54 318 54 222 q 92 489 54 414 q 196 606 129 564 q 347 649 263 649 q 500 606 433 649 q 531 631 522 607 q 540 722 540 654 l 629 722 q 616 602 629 642 q 565 547 603 563 m 347 72 q 444 104 401 72 q 510 192 486 136 q 535 319 535 249 q 482 497 535 428 q 347 565 429 565 q 213 497 265 565 q 160 319 160 428 q 184 192 160 249 q 251 104 208 136 q 347 72 293 72 m 338 704 l 285 740 l 401 947 l 478 892 l 338 704 z "},"ợ":{"ha":694,"x_min":54,"x_max":640,"o":"m 565 547 q 621 444 601 503 q 640 318 640 386 q 603 147 640 222 q 499 31 565 72 q 347 -11 432 -11 q 196 31 263 -11 q 92 147 129 72 q 54 318 54 222 q 92 489 54 414 q 196 606 129 564 q 347 649 263 649 q 500 606 433 649 q 531 631 522 607 q 540 722 540 654 l 629 722 q 616 602 629 642 q 565 547 603 563 m 347 72 q 444 104 401 72 q 510 192 486 136 q 535 319 535 249 q 482 497 535 428 q 347 565 429 565 q 213 497 265 565 q 160 319 160 428 q 184 192 160 249 q 251 104 208 136 q 347 72 293 72 m 343 -222 q 292 -201 313 -222 q 271 -151 271 -181 q 292 -101 271 -122 q 343 -79 313 -79 q 393 -101 372 -79 q 414 -151 414 -122 q 393 -201 414 -181 q 343 -222 372 -222 z "},"ờ":{"ha":694,"x_min":54,"x_max":640,"o":"m 565 547 q 621 444 601 503 q 640 318 640 386 q 603 147 640 222 q 499 31 565 72 q 347 -11 432 -11 q 196 31 263 -11 q 92 147 129 72 q 54 318 54 222 q 92 489 54 414 q 196 606 129 564 q 347 649 263 649 q 500 606 433 649 q 531 631 522 607 q 540 722 540 654 l 629 722 q 616 602 629 642 q 565 547 603 563 m 347 72 q 444 104 401 72 q 510 192 486 136 q 535 319 535 249 q 482 497 535 428 q 347 565 429 565 q 213 497 265 565 q 160 319 160 428 q 184 192 160 249 q 251 104 208 136 q 347 72 293 72 m 339 704 l 199 892 l 275 947 l 392 740 l 339 704 z "},"ở":{"ha":694,"x_min":54,"x_max":640,"o":"m 565 547 q 621 444 601 503 q 640 318 640 386 q 603 147 640 222 q 499 31 565 72 q 347 -11 432 -11 q 196 31 263 -11 q 92 147 129 72 q 54 318 54 222 q 92 489 54 414 q 196 606 129 564 q 347 649 263 649 q 500 606 433 649 q 531 631 522 607 q 540 722 540 654 l 629 722 q 616 602 629 642 q 565 547 603 563 m 347 72 q 444 104 401 72 q 510 192 486 136 q 535 319 535 249 q 482 497 535 428 q 347 565 429 565 q 213 497 265 565 q 160 319 160 428 q 184 192 160 249 q 251 104 208 136 q 347 72 293 72 m 465 875 q 456 834 465 849 q 425 801 446 819 q 397 772 406 785 q 388 736 388 758 l 388 726 l 317 726 l 317 765 q 357 828 317 793 q 381 853 374 843 q 389 872 389 863 q 376 901 389 890 q 346 911 364 911 q 285 867 299 911 l 233 919 q 287 964 258 950 q 353 978 315 978 q 433 950 400 978 q 465 875 465 922 z "},"ỡ":{"ha":694,"x_min":54,"x_max":640,"o":"m 565 547 q 621 444 601 503 q 640 318 640 386 q 603 147 640 222 q 499 31 565 72 q 347 -11 432 -11 q 196 31 263 -11 q 92 147 129 72 q 54 318 54 222 q 92 489 54 414 q 196 606 129 564 q 347 649 263 649 q 500 606 433 649 q 531 631 522 607 q 540 722 540 654 l 629 722 q 616 602 629 642 q 565 547 603 563 m 347 72 q 444 104 401 72 q 510 192 486 136 q 535 319 535 249 q 482 497 535 428 q 347 565 429 565 q 213 497 265 565 q 160 319 160 428 q 184 192 160 249 q 251 104 208 136 q 347 72 293 72 m 585 901 q 526 820 554 843 q 456 797 497 797 q 403 808 426 797 q 350 839 381 818 q 308 864 324 856 q 272 872 292 872 q 229 858 247 872 q 194 807 211 843 l 126 838 q 183 918 147 888 q 269 949 218 949 q 319 938 299 949 q 369 908 340 928 q 411 882 393 890 q 450 874 429 874 q 487 888 472 874 q 521 940 501 901 l 585 901 z "},"ő":{"ha":694,"x_min":54,"x_max":640,"o":"m 347 -11 q 196 31 263 -11 q 92 147 129 72 q 54 318 54 222 q 92 489 54 414 q 196 606 129 564 q 347 649 263 649 q 499 606 432 649 q 603 489 565 564 q 640 318 640 414 q 603 147 640 222 q 499 31 565 72 q 347 -11 432 -11 m 347 72 q 444 104 401 72 q 510 192 486 136 q 535 319 535 249 q 482 497 535 428 q 347 565 429 565 q 213 497 265 565 q 160 319 160 428 q 184 192 160 249 q 251 104 208 136 q 347 72 293 72 m 260 725 l 190 767 l 313 971 l 400 913 l 260 725 m 475 725 l 406 767 l 528 971 l 615 913 l 475 725 z "},"ȏ":{"ha":694,"x_min":54,"x_max":640,"o":"m 347 -11 q 196 31 263 -11 q 92 147 129 72 q 54 318 54 222 q 92 489 54 414 q 196 606 129 564 q 347 649 263 649 q 499 606 432 649 q 603 489 565 564 q 640 318 640 414 q 603 147 640 222 q 499 31 565 72 q 347 -11 432 -11 m 347 72 q 444 104 401 72 q 510 192 486 136 q 535 319 535 249 q 482 497 535 428 q 347 565 429 565 q 213 497 265 565 q 160 319 160 428 q 184 192 160 249 q 251 104 208 136 q 347 72 293 72 m 472 733 q 419 805 450 782 q 347 828 389 828 q 275 805 306 828 q 222 733 244 782 l 150 767 q 233 861 182 828 q 347 894 283 894 q 462 861 411 894 q 544 767 513 828 l 472 733 z "},"ō":{"ha":694,"x_min":54,"x_max":640,"o":"m 347 -11 q 196 31 263 -11 q 92 147 129 72 q 54 318 54 222 q 92 489 54 414 q 196 606 129 564 q 347 649 263 649 q 499 606 432 649 q 603 489 565 564 q 640 318 640 414 q 603 147 640 222 q 499 31 565 72 q 347 -11 432 -11 m 347 72 q 444 104 401 72 q 510 192 486 136 q 535 319 535 249 q 482 497 535 428 q 347 565 429 565 q 213 497 265 565 q 160 319 160 428 q 184 192 160 249 q 251 104 208 136 q 347 72 293 72 m 171 785 l 171 863 l 524 863 l 524 785 l 171 785 z "},"ṓ":{"ha":694,"x_min":54,"x_max":640,"o":"m 347 -11 q 196 31 263 -11 q 92 147 129 72 q 54 318 54 222 q 92 489 54 414 q 196 606 129 564 q 347 649 263 649 q 499 606 432 649 q 603 489 565 564 q 640 318 640 414 q 603 147 640 222 q 499 31 565 72 q 347 -11 432 -11 m 347 72 q 444 104 401 72 q 510 192 486 136 q 535 319 535 249 q 482 497 535 428 q 347 565 429 565 q 213 497 265 565 q 160 319 160 428 q 184 192 160 249 q 251 104 208 136 q 347 72 293 72 m 171 785 l 171 863 l 524 863 l 524 785 l 171 785 m 338 918 l 285 954 l 401 1161 l 478 1106 l 338 918 z "},"ṑ":{"ha":694,"x_min":54,"x_max":640,"o":"m 347 -11 q 196 31 263 -11 q 92 147 129 72 q 54 318 54 222 q 92 489 54 414 q 196 606 129 564 q 347 649 263 649 q 499 606 432 649 q 603 489 565 564 q 640 318 640 414 q 603 147 640 222 q 499 31 565 72 q 347 -11 432 -11 m 347 72 q 444 104 401 72 q 510 192 486 136 q 535 319 535 249 q 482 497 535 428 q 347 565 429 565 q 213 497 265 565 q 160 319 160 428 q 184 192 160 249 q 251 104 208 136 q 347 72 293 72 m 171 785 l 171 863 l 524 863 l 524 785 l 171 785 m 339 918 l 199 1106 l 275 1161 l 392 954 l 339 918 z "},"ǫ":{"ha":694,"x_min":54,"x_max":640,"o":"m 465 14 q 383 -74 413 -28 q 353 -157 353 -119 q 374 -208 353 -187 q 439 -235 396 -229 l 417 -301 q 303 -260 346 -292 q 261 -176 261 -228 q 360 -11 261 -93 l 347 -11 q 196 31 263 -11 q 92 147 129 72 q 54 318 54 222 q 92 489 54 414 q 196 606 129 564 q 347 649 263 649 q 499 606 432 649 q 603 489 565 564 q 640 318 640 414 q 593 131 640 211 q 465 14 546 50 m 160 319 q 184 192 160 249 q 251 104 208 136 q 347 72 293 72 q 444 104 401 72 q 510 192 486 136 q 535 319 535 249 q 482 497 535 428 q 347 565 429 565 q 213 497 265 565 q 160 319 160 428 z "},"ø":{"ha":694,"x_min":56,"x_max":639,"o":"m 97 -51 l 158 61 q 56 307 56 160 q 97 482 56 404 q 207 604 138 560 q 357 649 276 649 q 465 625 410 649 l 517 721 l 590 681 l 536 579 q 639 324 639 485 q 601 142 639 219 q 498 24 563 65 q 354 -17 433 -17 q 225 14 285 -17 l 169 -89 l 97 -51 m 422 546 q 350 564 388 564 q 256 533 300 564 q 187 449 213 503 q 161 326 161 394 q 208 153 161 221 l 422 546 m 354 69 q 447 99 404 69 q 514 183 489 128 q 539 310 539 238 q 488 492 539 424 l 269 93 q 354 69 310 69 z "},"ǿ":{"ha":694,"x_min":56,"x_max":639,"o":"m 97 -51 l 158 61 q 56 307 56 160 q 97 482 56 404 q 207 604 138 560 q 357 649 276 649 q 465 625 410 649 l 517 721 l 590 681 l 536 579 q 639 324 639 485 q 601 142 639 219 q 498 24 563 65 q 354 -17 433 -17 q 225 14 285 -17 l 169 -89 l 97 -51 m 422 546 q 350 564 388 564 q 256 533 300 564 q 187 449 213 503 q 161 326 161 394 q 208 153 161 221 l 422 546 m 354 69 q 447 99 404 69 q 514 183 489 128 q 539 310 539 238 q 488 492 539 424 l 269 93 q 354 69 310 69 m 353 704 l 300 740 l 417 947 l 493 892 l 353 704 z "},"õ":{"ha":694,"x_min":54,"x_max":640,"o":"m 347 -11 q 196 31 263 -11 q 92 147 129 72 q 54 318 54 222 q 92 489 54 414 q 196 606 129 564 q 347 649 263 649 q 499 606 432 649 q 603 489 565 564 q 640 318 640 414 q 603 147 640 222 q 499 31 565 72 q 347 -11 432 -11 m 347 72 q 444 104 401 72 q 510 192 486 136 q 535 319 535 249 q 482 497 535 428 q 347 565 429 565 q 213 497 265 565 q 160 319 160 428 q 184 192 160 249 q 251 104 208 136 q 347 72 293 72 m 585 901 q 526 820 554 843 q 456 797 497 797 q 403 808 426 797 q 350 839 381 818 q 308 864 324 856 q 272 872 292 872 q 229 858 247 872 q 194 807 211 843 l 126 838 q 183 918 147 888 q 269 949 218 949 q 319 938 299 949 q 369 908 340 928 q 411 882 393 890 q 450 874 429 874 q 487 888 472 874 q 521 940 501 901 l 585 901 z "},"ṍ":{"ha":694,"x_min":54,"x_max":640,"o":"m 347 -11 q 196 31 263 -11 q 92 147 129 72 q 54 318 54 222 q 92 489 54 414 q 196 606 129 564 q 347 649 263 649 q 499 606 432 649 q 603 489 565 564 q 640 318 640 414 q 603 147 640 222 q 499 31 565 72 q 347 -11 432 -11 m 347 72 q 444 104 401 72 q 510 192 486 136 q 535 319 535 249 q 482 497 535 428 q 347 565 429 565 q 213 497 265 565 q 160 319 160 428 q 184 192 160 249 q 251 104 208 136 q 347 72 293 72 m 585 901 q 526 820 554 843 q 456 797 497 797 q 403 808 426 797 q 350 839 381 818 q 308 864 324 856 q 272 872 292 872 q 229 858 247 872 q 194 807 211 843 l 126 838 q 183 918 147 888 q 269 949 218 949 q 319 938 299 949 q 369 908 340 928 q 411 882 393 890 q 450 874 429 874 q 487 888 472 874 q 521 940 501 901 l 585 901 m 338 953 l 285 989 l 401 1196 l 478 1140 l 338 953 z "},"ṏ":{"ha":694,"x_min":54,"x_max":640,"o":"m 347 -11 q 196 31 263 -11 q 92 147 129 72 q 54 318 54 222 q 92 489 54 414 q 196 606 129 564 q 347 649 263 649 q 499 606 432 649 q 603 489 565 564 q 640 318 640 414 q 603 147 640 222 q 499 31 565 72 q 347 -11 432 -11 m 347 72 q 444 104 401 72 q 510 192 486 136 q 535 319 535 249 q 482 497 535 428 q 347 565 429 565 q 213 497 265 565 q 160 319 160 428 q 184 192 160 249 q 251 104 208 136 q 347 72 293 72 m 585 901 q 526 820 554 843 q 456 797 497 797 q 403 808 426 797 q 350 839 381 818 q 308 864 324 856 q 272 872 292 872 q 229 858 247 872 q 194 807 211 843 l 126 838 q 183 918 147 888 q 269 949 218 949 q 319 938 299 949 q 369 908 340 928 q 411 882 393 890 q 450 874 429 874 q 487 888 472 874 q 521 940 501 901 l 585 901 m 225 1032 q 175 1053 196 1032 q 154 1101 154 1074 q 175 1151 154 1129 q 225 1172 196 1172 q 274 1151 253 1172 q 294 1101 294 1131 q 274 1053 294 1074 q 225 1032 253 1032 m 472 1032 q 423 1052 443 1032 q 403 1101 403 1072 q 423 1151 403 1131 q 472 1172 443 1172 q 521 1151 500 1172 q 542 1101 542 1131 q 521 1053 542 1074 q 472 1032 500 1032 z "},"ȭ":{"ha":694,"x_min":54,"x_max":640,"o":"m 347 -11 q 196 31 263 -11 q 92 147 129 72 q 54 318 54 222 q 92 489 54 414 q 196 606 129 564 q 347 649 263 649 q 499 606 432 649 q 603 489 565 564 q 640 318 640 414 q 603 147 640 222 q 499 31 565 72 q 347 -11 432 -11 m 347 72 q 444 104 401 72 q 510 192 486 136 q 535 319 535 249 q 482 497 535 428 q 347 565 429 565 q 213 497 265 565 q 160 319 160 428 q 184 192 160 249 q 251 104 208 136 q 347 72 293 72 m 585 901 q 526 820 554 843 q 456 797 497 797 q 403 808 426 797 q 350 839 381 818 q 308 864 324 856 q 272 872 292 872 q 229 858 247 872 q 194 807 211 843 l 126 838 q 183 918 147 888 q 269 949 218 949 q 319 938 299 949 q 369 908 340 928 q 411 882 393 890 q 450 874 429 874 q 487 888 472 874 q 521 940 501 901 l 585 901 m 171 1033 l 171 1111 l 524 1111 l 524 1033 l 171 1033 z "},"œ":{"ha":694,"x_min":8,"x_max":686,"o":"m 517 -17 q 351 40 421 -17 q 214 -15 292 -15 q 69 60 129 -15 q 8 317 8 136 q 69 567 8 488 q 224 647 131 647 q 354 583 307 647 q 494 647 408 647 q 632 583 583 647 q 681 393 681 518 l 681 307 l 364 307 q 381 158 365 210 q 427 85 397 106 q 504 65 457 65 q 638 118 589 65 l 686 58 q 517 -17 614 -17 m 599 386 q 572 528 599 485 q 486 571 546 571 q 398 522 431 571 q 365 386 365 474 l 599 386 m 226 69 q 276 85 256 69 q 296 124 296 100 l 292 156 q 278 331 278 238 q 284 453 278 410 q 290 503 290 496 q 271 547 290 529 q 224 564 251 564 q 130 507 168 564 q 92 332 92 450 q 127 135 92 201 q 226 69 163 69 z "},"p":{"ha":694,"x_min":83,"x_max":643,"o":"m 83 635 l 185 635 l 185 510 q 257 614 206 579 q 378 649 308 649 q 510 612 450 649 q 607 501 571 575 q 643 322 643 428 q 606 138 643 215 q 506 22 568 61 q 375 -17 444 -17 q 268 10 318 -17 q 186 83 218 36 l 186 -232 l 83 -232 l 83 635 m 358 72 q 487 130 435 72 q 539 318 539 188 q 493 499 539 436 q 363 563 447 563 q 234 497 283 563 q 185 296 185 431 q 233 129 188 186 q 358 72 279 72 z "},"þ":{"ha":694,"x_min":83,"x_max":643,"o":"m 83 924 l 194 924 q 190 897 194 914 q 185 864 185 879 l 185 538 q 270 618 217 588 q 378 649 324 649 q 510 612 450 649 q 607 501 571 575 q 643 322 643 428 q 606 138 643 215 q 507 22 568 61 q 376 -17 446 -17 q 268 10 318 -17 q 186 83 218 36 l 186 -232 l 83 -232 l 83 924 m 356 72 q 487 126 435 72 q 539 304 539 181 q 492 495 539 426 q 360 564 444 564 q 233 497 281 564 q 185 306 185 431 q 231 126 188 181 q 356 72 275 72 z "},"q":{"ha":694,"x_min":58,"x_max":614,"o":"m 514 101 q 433 17 485 47 q 319 -14 382 -14 q 188 28 247 -14 q 93 147 128 71 q 58 319 58 222 q 96 497 58 421 q 197 612 133 572 q 338 651 261 651 q 449 623 403 651 q 519 542 494 594 l 519 635 l 614 635 l 614 -232 l 514 -232 l 514 101 m 338 74 q 463 138 415 74 q 511 335 511 203 q 349 569 511 569 q 213 507 265 569 q 160 324 160 444 q 208 141 160 208 q 338 74 256 74 z "},"r":{"ha":694,"x_min":165,"x_max":636,"o":"m 592 503 l 592 501 q 524 551 551 539 q 461 564 497 564 q 367 539 411 564 q 294 463 322 514 q 267 336 267 413 l 267 -1 l 165 -1 l 165 635 l 269 635 l 267 518 q 348 615 293 581 q 468 650 403 650 q 636 581 569 650 l 592 503 m 592 501 q 597 494 601 493 q 589 497 592 496 l 592 501 m 576 497 q 581 501 576 501 q 589 497 585 500 l 586 490 l 576 496 l 576 497 z "},"ŕ":{"ha":694,"x_min":165,"x_max":636,"o":"m 592 503 l 592 501 q 524 551 551 539 q 461 564 497 564 q 367 539 411 564 q 294 463 322 514 q 267 336 267 413 l 267 -1 l 165 -1 l 165 635 l 269 635 l 267 518 q 348 615 293 581 q 468 650 403 650 q 636 581 569 650 l 592 503 m 592 501 q 597 494 601 493 q 589 497 592 496 l 592 501 m 576 497 q 581 501 576 501 q 589 497 585 500 l 586 490 l 576 496 l 576 497 m 338 704 l 285 740 l 401 947 l 478 892 l 338 704 z "},"ř":{"ha":694,"x_min":136,"x_max":636,"o":"m 592 503 l 592 501 q 524 551 551 539 q 461 564 497 564 q 367 539 411 564 q 294 463 322 514 q 267 336 267 413 l 267 -1 l 165 -1 l 165 635 l 269 635 l 267 518 q 348 615 293 581 q 468 650 403 650 q 636 581 569 650 l 592 503 m 592 501 q 597 494 601 493 q 589 497 592 496 l 592 501 m 576 497 q 581 501 576 501 q 589 497 585 500 l 586 490 l 576 496 l 576 497 m 192 956 l 346 803 l 500 956 l 556 908 l 363 714 l 329 714 l 136 908 l 192 956 z "},"ŗ":{"ha":694,"x_min":165,"x_max":636,"o":"m 592 503 l 592 501 q 524 551 551 539 q 461 564 497 564 q 367 539 411 564 q 294 463 322 514 q 267 336 267 413 l 267 -1 l 165 -1 l 165 635 l 269 635 l 267 518 q 348 615 293 581 q 468 650 403 650 q 636 581 569 650 l 592 503 m 592 501 q 597 494 601 493 q 589 497 592 496 l 592 501 m 576 497 q 581 501 576 501 q 589 497 585 500 l 586 490 l 576 496 l 576 497 m 292 -344 q 350 -275 326 -312 q 374 -214 374 -237 q 367 -195 374 -203 q 344 -172 361 -187 q 318 -144 326 -156 q 310 -117 310 -133 q 331 -65 310 -86 q 383 -43 351 -43 q 443 -73 418 -43 q 468 -147 468 -103 q 335 -382 468 -244 l 292 -344 z "}}}
